<?xml version="1.0" encoding="UTF-8"?>
<svg width="1150px" height="860px" viewBox="0 0 1150 860" version="1.1" xmlns="http://www.w3.org/2000/svg" xmlns:xlink="http://www.w3.org/1999/xlink">
    <!-- Generator: Sketch 52.4 (67378) - http://www.bohemiancoding.com/sketch -->
    <title>Artboard_2</title>
    <desc>Created with Sketch.</desc>
    <defs>
        <linearGradient x1="50.0138009%" y1="99.9956479%" x2="50.0138009%" y2="-0.000296357378%" id="linearGradient-1">
            <stop stop-color="#808080" stop-opacity="0.25" offset="0%"></stop>
            <stop stop-color="#808080" stop-opacity="0.12" offset="54%"></stop>
            <stop stop-color="#808080" stop-opacity="0.1" offset="100%"></stop>
        </linearGradient>
    </defs>
    <g id="Artboard_2" stroke="none" stroke-width="1" fill="none" fill-rule="evenodd">
        <g id="undraw_envelope_n8lc" transform="translate(58.000000, 14.000000)">
            <path d="M601.31,96.07 C534.96,94.16 471.77,76.32 411.47,56.8 C351.17,37.28 291.31,15.69 226.55,5.35 C184.9,-1.3 137.27,-2.24 103.71,16.35 C71.41,34.24 60.98,65.13 55.37,93.8 C51.14,115.36 48.66,138.06 60.23,158.24 C68.23,172.24 82.52,184.03 92.38,197.45 C126.68,244.16 102.44,301.75 65.26,347.35 C47.82,368.74 27.59,389.15 14.13,411.92 C0.67,434.69 -5.53,460.8 6.22,484 C17.89,507 45.7,524.31 75.83,536.48 C137.02,561.18 209.13,568.25 279.44,572.26 C435.08,581.12 591.56,577.26 747.62,573.44 C805.37,572.02 863.38,570.58 920.2,563.14 C951.75,559.01 984.32,552.46 1007.2,536.64 C1036.28,516.56 1043.48,482.55 1024,457.37 C991.32,415.13 901,404.64 878.11,359.31 C865.53,334.36 878.45,306.56 896.72,283.42 C935.92,233.78 1001.63,190.23 1005.09,133.49 C1007.46,94.49 975.88,55.49 927.04,37.05 C875.85,17.72 804.86,20.15 767.04,52.15 C728.23,85.09 659.89,97.8 601.31,96.07 Z" id="Path" fill="#EB8C30" opacity="0.1"></path>
            <ellipse id="Oval" fill="#912329" opacity="0.1" cx="435.45" cy="803.29" rx="290.75" ry="29.32"></ellipse>
            <path d="M169.47,800.11 C169.47,800.11 156.57,727.02 108.69,690.8 C88.6,675.6 73.9,654.93 67.48,631.39 C64.4586714,620.236216 62.5229966,608.816404 61.7,597.29" id="Path" stroke="#535461" stroke-width="2"></path>
            <path d="M31.68,574.29 C35.68,582.12 62.41,597.97 62.41,597.97 C62.41,597.97 65.77,568.36 61.74,560.52 C57.71,552.68 47.74,549.41 39.42,553.21 C31.1,557.01 27.65,566.45 31.68,574.29 Z" id="Path" fill="#912329"></path>
            <path d="M29.13,629.08 C37.03,633.59 68.57,633.19 68.57,633.19 C68.57,633.19 54.34,606.61 46.47,602.1 C38.6,597.59 28.31,599.97 23.53,607.42 C18.75,614.87 21.24,624.57 29.13,629.08 Z" id="Path" fill="#912329"></path>
            <path d="M68.34,702.8 C77.56,702.93 104.57,687.55 104.57,687.55 C104.57,687.55 78.08,671.39 68.85,671.25 C59.62,671.11 52.03,678.07 51.85,686.78 C51.67,695.49 59.11,702.64 68.34,702.8 Z" id="Path" fill="#912329"></path>
            <path d="M111.3,752.23 C120.36,753.84 149.74,742.98 149.74,742.98 C149.74,742.98 126.52,722.8 117.47,721.22 C108.42,719.64 99.67,725.22 97.97,733.82 C96.27,742.42 102.23,750.63 111.3,752.23 Z" id="Path" fill="#912329"></path>
            <path d="M100.91,620.25 C97.76,628.44 72.91,646.8 72.91,646.8 C72.91,646.8 66.33,617.68 69.48,609.49 C72.63,601.3 82.22,597.07 90.89,600.04 C99.56,603.01 104.06,612.07 100.91,620.25 Z" id="Path" fill="#912329"></path>
            <path d="M150.38,678.69 C144.78,685.62 115.26,696.12 115.26,696.12 C115.26,696.12 118.26,666.47 123.82,659.55 C129.645014,652.586802 139.847947,651.279851 147.24,656.55 C150.73814,658.960668 153.067777,662.725299 153.664326,666.931536 C154.260874,671.137774 153.069888,675.401716 150.38,678.69 Z" id="Path" fill="#912329"></path>
            <path d="M190.2,741.72 C185.92,749.44 158.71,764.5 158.71,764.5 C158.71,764.5 156.32,734.81 160.6,727.09 C164.88,719.37 174.97,716.39 183.15,720.43 C191.33,724.47 194.47,734 190.2,741.72 Z" id="Path" fill="#912329"></path>
            <path d="M31.68,574.29 C35.68,582.12 62.41,597.97 62.41,597.97 C62.41,597.97 65.77,568.36 61.74,560.52 C57.71,552.68 47.74,549.41 39.42,553.21 C31.1,557.01 27.65,566.45 31.68,574.29 Z" id="Path" fill="#000000" opacity="0.25"></path>
            <path d="M29.13,629.08 C37.03,633.59 68.57,633.19 68.57,633.19 C68.57,633.19 54.34,606.61 46.47,602.1 C38.6,597.59 28.31,599.97 23.53,607.42 C18.75,614.87 21.24,624.57 29.13,629.08 Z" id="Path" fill="#000000" opacity="0.25"></path>
            <path d="M68.34,702.8 C77.56,702.93 104.57,687.55 104.57,687.55 C104.57,687.55 78.08,671.39 68.85,671.25 C59.62,671.11 52.03,678.07 51.85,686.78 C51.67,695.49 59.11,702.64 68.34,702.8 Z" id="Path" fill="#000000" opacity="0.25"></path>
            <path d="M111.3,752.23 C120.36,753.84 149.74,742.98 149.74,742.98 C149.74,742.98 126.52,722.8 117.47,721.22 C108.42,719.64 99.67,725.22 97.97,733.82 C96.27,742.42 102.23,750.63 111.3,752.23 Z" id="Path" fill="#000000" opacity="0.25"></path>
            <path d="M100.91,620.25 C97.76,628.44 72.91,646.8 72.91,646.8 C72.91,646.8 66.33,617.68 69.48,609.49 C72.63,601.3 82.22,597.07 90.89,600.04 C99.56,603.01 104.06,612.07 100.91,620.25 Z" id="Path" fill="#000000" opacity="0.25"></path>
            <path d="M150.38,678.69 C144.78,685.62 115.26,696.12 115.26,696.12 C115.26,696.12 118.26,666.47 123.82,659.55 C129.645014,652.586802 139.847947,651.279851 147.24,656.55 C150.73814,658.960668 153.067777,662.725299 153.664326,666.931536 C154.260874,671.137774 153.069888,675.401716 150.38,678.69 Z" id="Path" fill="#000000" opacity="0.25"></path>
            <path d="M190.2,741.72 C185.92,749.44 158.71,764.5 158.71,764.5 C158.71,764.5 156.32,734.81 160.6,727.09 C164.88,719.37 174.97,716.39 183.15,720.43 C191.33,724.47 194.47,734 190.2,741.72 Z" id="Path" fill="#000000" opacity="0.25"></path>
            <path d="M167.85,798.19 C167.85,798.19 187.42,726.43 159.2,674.99 C147.36,653.41 142.79,628.89 147.03,604.91 C149.065515,593.508439 152.196698,582.329949 156.38,571.53" id="Path" stroke="#535461" stroke-width="2"></path>
            <path d="M138.8,539.02 C139.12,547.72 156.73,572.43 156.73,572.43 C156.73,572.43 172.51,546.64 172.19,537.93 C171.87,529.22 164.14,522.41 154.92,522.71 C145.7,523.01 138.47,530.31 138.8,539.02 Z" id="Path" fill="#EB8C30"></path>
            <path d="M112.96,588.14 C118.24,595.28 147.24,606.98 147.24,606.98 C147.24,606.98 145.64,577.24 140.36,570.09 C134.820898,562.906645 124.683335,561.202523 117.1,566.18 C113.508037,568.435923 111.019577,572.087593 110.233769,576.255792 C109.447961,580.423992 110.436002,584.731068 112.96,588.14 Z" id="Path" fill="#EB8C30"></path>
            <path d="M117.16,670.51 C125.54,674.16 156.84,670.44 156.84,670.44 C156.84,670.44 139.55,645.52 131.17,641.87 C122.79,638.22 112.87,641.67 109,649.58 C105.13,657.49 108.79,666.86 117.16,670.51 Z" id="Path" fill="#EB8C30"></path>
            <path d="M135.21,732.16 C142.82,737.1 174.33,738.41 174.33,738.41 C174.33,738.41 161.75,711.1 154.15,706.17 C146.552584,701.220983 136.424591,702.964934 130.92,710.17 C128.399316,713.599766 127.428907,717.927872 128.243923,722.105538 C129.058938,726.283204 131.585001,729.929187 135.21,732.16 Z" id="Path" fill="#EB8C30"></path>
            <path d="M182.37,607.53 C175.97,613.81 145.37,621.1 145.37,621.1 C145.37,621.1 151.86,591.95 158.25,585.67 C164.807476,579.385463 175.09311,579.193941 181.88,585.23 C185.059937,588.031297 186.922176,592.035732 187.015272,596.272546 C187.108368,600.50936 185.42382,604.591728 182.37,607.53 Z" id="Path" fill="#EB8C30"></path>
            <path d="M202.47,679.88 C194.38,684.07 162.89,682.38 162.89,682.38 C162.89,682.38 178.32,656.38 186.41,652.22 C194.5,648.06 204.66,650.83 209.09,658.47 C213.52,666.11 210.6,675.69 202.47,679.88 Z" id="Path" fill="#EB8C30"></path>
            <path d="M211.86,752.74 C204.63,758.16 173.29,761.52 173.29,761.52 C173.29,761.52 183.85,733.45 191.08,728.03 C198.368958,722.621008 208.592775,723.731819 214.55,730.58 C217.295764,733.80997 218.566822,738.04042 218.05596,742.248857 C217.545098,746.457295 215.298803,750.260774 211.86,752.74 Z" id="Path" fill="#EB8C30"></path>
            <path d="M992.21,379.16 C992.81,377.52 988.31,368.43 988.31,367.98 C988.31,367.53 983.66,362.46 983.66,359.63 C983.66,356.8 977.5,350.69 977.5,350.69 C977.5,350.69 969.25,347.26 968.35,339.81 C967.45,332.36 958.46,332.2 958.44,332.2 C958.44,332.2 958.44,331.52 958.5,330.49 C958.5,328.17 958.43,324.03 957.39,321.77 C956.319705,319.712956 954.484818,318.15815 952.28,317.44 C952.28,317.44 951.38,311.63 949.58,309.84 C947.535324,307.704262 946.737589,304.664551 947.47,301.8 C948.37,298.97 946.27,291.8 941.91,290.8 C937.55,289.8 932.61,288.12 932.61,288.12 C932.61,288.12 932.12,288.21 931.41,288.31 L930.81,288.12 C929.765334,288.312558 928.710136,288.442788 927.65,288.51 C926.730143,288.542626 925.829035,288.244622 925.11,287.67 C923.6,286.03 911.44,282.9 909.19,282.9 C906.94,282.9 900.48,279.9 900.48,279.9 L894.04,274.98 C892.23,273.6 888.88,267.98 888.39,267.19 L888.33,267.08 C887.776788,265.810152 887.322113,264.499617 886.97,263.16 C889.165271,260.864908 891.042075,258.285143 892.55,255.49 C892.71,255.2 892.85,254.9 892.99,254.61 C893.329219,254.604187 893.665902,254.550317 893.99,254.45 C894.12,254.45 894.25,254.35 894.38,254.3 C895.902496,253.498303 897.048383,252.129704 897.57,250.49 C897.68,250.17 897.78,249.84 897.86,249.49 C897.86,249.38 897.86,249.26 897.93,249.15 C898,249.04 898.03,248.7 898.07,248.47 C898.11,248.24 898.12,248.21 898.14,248.09 C898.16,247.97 898.21,247.64 898.24,247.41 C898.27,247.18 898.24,247.16 898.24,247.04 C898.24,246.75 898.31,246.47 898.35,246.19 C898.4513,245.132482 898.608184,244.081028 898.82,243.04 C898.82,243.04 898.82,243.04 898.82,243.04 C899.72,239.04 902.15,235.58 903.88,231.84 C904.13,231.31 904.36,230.76 904.57,230.21 C904.78,229.66 904.99,229.01 905.16,228.4 L905.31,227.84 C905.42,227.4 905.52,226.95 905.61,226.5 C905.61,226.3 905.69,226.1 905.72,225.9 C905.82,225.28 905.91,224.66 905.96,224.03 C906.28298,220.458576 905.772941,216.860918 904.47,213.52 C903.34,210.72 901.67,208.2 900.53,205.4 C898.8,201.16 898.35,196.4 896.24,192.32 C892.71,185.54 884.39,182.15 877.55,184.7 C874.28,185.91 871.45,188.27 868.14,189.33 C863.7,190.74 858.96,189.68 854.37,189.04 C849.78,188.4 844.7,188.35 841.01,191.35 C836.76,194.8 835.59,201.29 831.6,205.08 C829.93,206.67 827.84,207.69 826.07,209.16 C824.827649,210.156045 823.8718,211.463868 823.3,212.95 C823.3,213.06 823.23,213.16 823.2,213.27 C823.17,213.38 823.13,213.52 823.1,213.65 C823.07,213.78 823.04,213.95 823.02,214.1 C823,214.25 823.02,214.31 823.02,214.41 C822.999959,214.67629 822.999959,214.94371 823.02,215.21 C823.048736,215.462312 823.092142,215.712736 823.15,215.96 C823.15,216.03 823.15,216.1 823.15,216.17 C823.15,216.24 823.27,216.58 823.34,216.79 C823.335702,216.829885 823.335702,216.870115 823.34,216.91 C823.42,217.14 823.51,217.36 823.6,217.59 L823.75,217.93 L823.87,218.21 C824.456071,219.31015 824.922085,220.470157 825.26,221.67 C825.446569,222.429165 825.401287,223.226827 825.13,223.96 C824.722729,224.789802 824.155143,225.530724 823.46,226.14 C820.473736,229.246808 818.168011,232.942098 816.69,236.99 C816.52,237.45 816.35,237.91 816.2,238.39 L816.41,238.44 C816.838364,238.570953 817.276389,238.66792 817.72,238.73 C817.97,238.73 818.22,238.79 818.48,238.81 C819.506106,238.864142 820.534882,238.783454 821.54,238.57 C821.79,238.52 822.05,238.46 822.3,238.39 C823.329615,238.105578 824.333219,237.734244 825.3,237.28 C825.3,237.58 825.3,237.89 825.3,238.19 C825.3,238.49 825.3,238.53 825.3,238.7 C825.321441,252.147947 832.946147,264.427247 844.99,270.41 C844.99,270.73 845.08,271.06 845.12,271.41 C845.16,271.76 845.19,271.95 845.22,272.22 L844.82,271.83 C844.82,271.83 842.11,270.49 839.56,274.36 C837.01,278.23 832.21,280.03 832.21,280.03 C832.21,280.03 804.89,284.35 803.84,287.93 L791.08,288.67 C791.08,288.67 786.57,289.27 786.08,298.67 C785.59,308.07 783.23,308.96 783.23,308.96 C783.23,308.96 777.98,318.2 778.43,322.96 C778.88,327.72 774.43,330.12 774.43,330.12 L773.83,338.61 C773.83,338.61 768.83,337.87 767.52,343.68 C766.21,349.49 763.77,352.18 763.77,352.18 C763.77,352.18 755.51,359.04 755.06,364.85 L749.96,367.98 C749.96,367.98 738.1,365.3 735.4,360.53 L734.57,359.75 C734.543004,359.712252 734.51957,359.67208 734.5,359.63 C734.497851,359.649942 734.497851,359.670058 734.5,359.69 C732.72,358.01 728.96,354.51 729.5,355.31 C729.850429,356.059476 729.935079,356.905973 729.74,357.71 L728.86,356.71 L726.5,354.09 C726.5,354.09 707.33,336.09 696.07,334.71 C695.92,334.42 695.2,331.59 693.28,333.36 C690.056031,336.307285 688.210536,340.467849 688.189645,344.835918 C688.168755,349.203987 689.974369,353.382013 693.17,356.36 L711.12,373.13 L711.58,373.47 L715.44,378.47 C714.79,380.03 714.24,381.54 713.79,382.92 C713.79,382.92 713.79,383.01 713.74,383.05 C713.65,383.35 713.55,383.63 713.46,383.91 L713.37,384.21 C713.29,384.49 713.2,384.77 713.12,385.03 C713.04,385.29 713.03,385.36 712.98,385.52 C712.93,385.68 712.98,385.71 712.9,385.8 C712.48,387.3 712.2,388.45 712.06,389.09 L711.06,388.78 L712.06,389.2 C712.06,389.25 712.06,389.31 712.06,389.36 L712,389.67 L712.92,390.07 C718.18,392.36 744.43,403.87 745.78,405.62 C747.28,407.55 757.18,413.22 766.19,408.45 C775.2,403.68 777.19,396.37 777.19,396.37 C777.19,396.37 785.89,384.3 786.19,382.51 C786.49,380.72 793.25,378.63 793.25,378.63 C793.25,378.63 793.85,398.63 790.4,405.91 C786.95,413.19 780.49,445.57 780.49,445.57 C780.911104,445.485713 781.341678,445.458803 781.77,445.49 C781.53,446.66 781.39,447.36 781.39,447.36 C781.915722,447.264764 782.454278,447.264764 782.98,447.36 C782.5,451.04 779.74,468.12 779.74,468.12 C779.74,468.12 778.84,475.87 777.34,478.55 C775.84,481.23 775.69,495.25 775.69,495.25 L773.29,505.38 C773.563725,505.978259 773.867444,506.562334 774.2,507.13 C774.2,507.13 776.78,512.85 781.11,516.06 C780.911927,517.653044 780.505102,519.2131 779.9,520.7 C778.960581,522.96081 778.550137,525.406374 778.7,527.85 C778.7,527.85 776.15,539.33 776.45,542.61 C776.75,545.89 774.8,553.94 774.8,553.94 L772.01,579.8 C772.01,579.8 770.21,602.31 771.11,608.43 C772.01,614.55 770.5,622.88 770.5,622.88 C770.5,622.88 772.3,640.62 771.85,642.56 C771.4,644.5 769.15,652.84 770.5,657.47 C771.85,662.1 771.11,674.76 771.11,674.76 C771.11,674.76 772.01,691.45 773.05,696.82 C774.09,702.19 772.75,709.05 772.75,709.05 C772.75,709.05 771.75,720.52 771.25,720.52 C770.75,720.52 766.9,728.42 774.85,736.18 C782.8,743.94 777.85,742.73 777.85,742.73 C777.85,742.73 771.55,739.6 772.29,746.01 C773.01,752.11 774,750.52 774.09,750.35 L772.59,755.25 L773.59,755.4 L772.72,756.4 C771.819979,757.537818 770.815614,758.589054 769.72,759.54 C767.91,760.88 767.72,763.86 767.72,763.86 C767.72,763.86 756.62,775.94 746.26,782.05 C740.81,785.27 736.11,787.99 734.06,790.24 C732.21,792.24 732.51,793.9 736.35,795.17 C744.46,797.85 758.71,799.17 768.92,795.77 C775.005976,793.736044 780.478903,790.196358 784.83,785.48 C784.83,785.48 791.29,782.2 797.6,783.39 C803.91,784.58 816.51,776.39 816.51,776.39 L816.28,774.27 L815.61,768.18 C814.753011,767.142535 814.371936,765.79244 814.56,764.46 C814.634602,762.657347 814.4562,760.853133 814.03,759.1 C813.93,758.51 813.81,757.92 813.7,757.37 L814.85,757.16 C814.85,757.16 813.36,749.55 816.06,748.06 C818.76,746.57 818,727.06 818,727.06 C818,727.06 814.56,722.59 812.75,721.85 C810.94,721.11 812.6,711.85 812.91,710.66 C813.22,709.47 815.61,686.36 815.61,686.36 C815.61,686.36 814.71,679.06 815.91,675.93 C817.11,672.8 814.47,660.8 814.47,660.8 C814.47,660.8 813.57,659.31 815.23,657.52 C816.89,655.73 816.23,639.78 816.23,639.78 C816.23,639.78 816.09,631.73 816.09,629.64 C816.09,627.55 817.89,619.95 819.54,617.42 C821.19,614.89 820.14,606.98 820.14,606.98 L820.23,606.39 C820.23,606.16 820.31,605.88 820.37,605.54 L820.5,604.75 C821.231925,600.358431 822.223666,596.014137 823.47,591.74 C825.47,585.48 827.67,574.45 827.67,574.45 L841.67,538.05 L841.83,537.62 C841.83,537.62 848.28,549.55 848.28,560.62 C848.28,560.62 849.93,573.89 849.48,577.47 C849.03,581.05 850.81,597.8 850.81,597.8 C850.81,597.8 852.76,621.95 852.76,623 C852.76,624.05 855.16,642.68 856.67,645.51 C858.18,648.34 855.16,656.99 854.26,657.88 C853.36,658.77 854.56,680.69 854.56,680.69 C854.56,680.69 852.31,697.98 851.86,701.56 C851.41,705.14 849.61,718.86 851.11,724.22 C852.61,729.58 852.01,730.33 852.01,730.33 C852.01,730.33 857.42,735.85 854.26,736.33 C851.935978,736.836558 849.943676,738.321533 848.794229,740.403949 C847.644781,742.486364 847.450052,744.963559 848.26,747.2 C850.129359,752.665264 852.336957,758.008921 854.87,763.2 C854.87,763.2 855.8,762.99 857.35,762.68 L857.35,764.45 L857.53,773.33 C857.53,773.33 858.53,781.83 857.98,783.77 C857.54,785.19 856.98,791.87 856.65,795.36 C856.54,796.63 856.48,797.48 856.48,797.48 C856.48,797.48 856.48,805.38 873.14,803 C889.8,800.62 892.8,794.06 892.8,794.06 C892.8,794.06 892.8,793.75 892.92,793.24 C893.17,791.73 893.71,788.53 894.15,786.75 C894.75,784.36 889.35,773.63 889.35,773.63 C889.35,773.63 888.45,766.33 886.94,764.69 C886.321257,763.744237 885.912093,762.677003 885.74,761.56 C885.6,760.96 885.48,760.33 885.38,759.72 C885.753177,759.767642 886.123663,759.834396 886.49,759.92 C886.49,759.92 885.59,754.7 889.05,753.06 C892.51,751.42 891.6,748 891.15,746.5 C890.7,745 892.5,736.66 892.5,736.66 C892.00821,734.973104 892.467275,733.152145 893.7,731.9 C895.81,729.8 897.45,715.2 897.45,715.2 L897.75,658.85 C897.75,658.85 898.81,648.85 897.61,644.85 C896.41,640.85 895.2,633.08 896.85,630.99 C898.5,628.9 897,619.22 897,619.22 C897,619.22 897,598.79 899.26,593.73 C901.52,588.67 900.76,556.61 900.76,556.61 L901.35,535.61 C901.35,535.61 906.26,530.97 905.1,506.78 C910.33,506.45 916.23,506.26 917.1,506.98 C918.75,508.33 929.41,515.18 935.71,510.86 C937.06,510.26 943.21,505.05 943.21,505.05 L940.57,460.35 C942.22,462.84 943.22,464.5 943.22,464.5 C943.22,458.24 960.93,437.96 960.93,437.96 C960.93,437.96 977.44,416.65 981.04,414.11 C984.64,411.57 991.7,398.16 991.7,398.16 C992.742936,395.602093 993.948741,393.113659 995.31,390.71 C997.02,387.96 991.61,380.8 992.21,379.16 Z M953.47,394.8 C948.97,395.25 939.47,405.54 939.36,407.8 C939.29,408.98 938.29,410.56 937.36,411.8 C937.29,410.9 937.21,409.98 937.14,409.05 C936.08,395.88 934.93,379.83 935.45,378.27 C936.36,375.59 936.05,363.52 936.05,363.52 L936.21,363.29 C939.21,372.64 948.64,383.67 948.64,383.67 C948.64,383.67 950.29,388.44 952.24,388.59 C954.19,388.74 953.47,394.8 953.47,394.8 Z" id="Shape" fill="url(#linearGradient-1)" fill-rule="nonzero"></path>
            <path d="M712.81,391.41 C712.81,391.41 718.28,362.71 735.89,362.56 L748.76,389.04 L740.18,394.96 C740.18,394.96 721.54,395.55 712.81,391.41 Z" id="Path" fill="#65617D"></path>
            <path d="M748.76,389.04 L740.18,394.96 C740.18,394.96 727.06,395.38 717.68,393.07 C716.00739,392.673423 714.37661,392.117552 712.81,391.41 C712.81,391.41 712.81,391.25 712.91,390.95 C712.91,390.95 712.91,390.88 712.91,390.84 C713.717588,387.238184 714.831645,383.71201 716.24,380.3 C716.79,379.01 717.4,377.68 718.06,376.35 C720.64,371.35 724.26,366.53 729.22,364.12 C731.053703,363.219999 733.05028,362.699597 735.09,362.59 L735.61,362.59 L735.87,362.59 L736.15,363.18 L740.5,372.12 L748.76,389.04 Z" id="Path" fill="#000000" opacity="0.1"></path>
            <path d="M894.92,508.28 C894.92,508.28 913.42,506.51 915.04,507.84 C916.66,509.17 927.17,515.97 933.39,511.68 C939.61,507.39 935.46,492.45 935.46,491.86 C935.46,491.27 934.87,470.11 934.87,470.11 L923.77,455.17 L909.87,428.99 L881.47,426.17 L882.21,467.75 L882.06,489.05 L894.92,508.28 Z" id="Path" fill="#65617D"></path>
            <path d="M894.92,508.28 C894.92,508.28 913.42,506.51 915.04,507.84 C916.66,509.17 927.17,515.97 933.39,511.68 C939.61,507.39 935.46,492.45 935.46,491.86 C935.46,491.27 934.87,470.11 934.87,470.11 L923.77,455.17 L909.87,428.99 L881.47,426.17 L882.21,467.75 L882.06,489.05 L894.92,508.28 Z" id="Path" fill="#000000" opacity="0.1"></path>
            <path d="M732.19,361.8 C732.19,361.8 730.71,379.85 719.47,380.14 C719.47,380.14 716.28,378.22 711.99,375.02 C702.11,367.63 686.44,353.42 690.77,340.2 C696.98,321.27 727.16,356.2 727.16,356.2 L729.47,358.8 L732.19,361.8 Z" id="Path" fill="#FBBEBE"></path>
            <path d="M732.19,361.8 C732.19,361.8 730.71,379.85 719.47,380.14 C719.47,380.14 716.28,378.22 711.99,375.02 L711.04,373.79 C712.94812,374.784876 715.050355,375.351388 717.2,375.45 C720.66148,375.587905 723.846999,373.569082 725.2,370.38 C726.382502,368.059362 727.42113,365.668179 728.31,363.22 C728.857287,361.793568 729.246285,360.311352 729.47,358.8 L732.19,361.8 Z" id="Path" fill="#000000" opacity="0.1"></path>
            <path d="M727.31,394.52 L724.78,391.26 L716.26,380.26 L711.92,374.65 C713.826095,375.650057 715.929502,376.216884 718.08,376.31 C720.91,376.38 724.08,375.31 726.08,371.25 C727.260378,368.924936 728.298944,366.530558 729.19,364.08 C730.59,360.08 730.57,358.08 730.07,357.35 C729.57,356.62 733.21,360.03 734.96,361.69 L735.02,361.75 L735.84,362.52 L736.14,363.12 L740.43,371.69 C740.43,371.69 740.43,371.81 740.43,372.05 C740.85,374.8 742.3,392.07 727.31,394.52 Z" id="Path" fill="#E7EFFD"></path>
            <path d="M815.93,775.31 C815.93,775.31 803.5,783.45 797.29,782.31 C791.08,781.17 784.71,784.39 784.71,784.39 C780.42777,789.065645 775.029398,792.578544 769.02,794.6 C759.02,798 744.92,796.66 736.93,794 C733.15,792.74 732.84,791.12 734.66,789.11 C736.66,786.87 741.32,784.18 746.66,780.98 C756.87,774.92 767.81,762.98 767.81,762.98 C767.81,762.98 767.96,759.98 769.74,758.7 C770.835607,757.756357 771.840031,756.711757 772.74,755.58 C774.33,753.7 775.82,751.74 775.82,751.74 L812.38,752.8 C812.38,752.8 813,755.43 813.49,758.12 C813.907206,759.864277 814.078862,761.658257 814,763.45 C813.810424,764.76526 814.17226,766.100436 815,767.14 L815.66,773.14 L815.93,775.31 Z" id="Path" fill="#65617D"></path>
            <path d="M892.41,785.52 C891.97,787.29 891.41,790.46 891.2,791.95 L891.07,792.77 C891.07,792.77 888.07,799.28 871.7,801.65 C855.33,804.02 855.28,796.17 855.28,796.17 C855.28,796.17 855.34,795.33 855.44,794.06 C855.73,790.6 856.32,783.97 856.76,782.56 C857.34,780.64 856.31,772.2 856.31,772.2 L856.14,763.39 L856.01,757.27 L883.24,754.45 C883.407732,756.486254 883.70163,758.510142 884.12,760.51 C884.286641,761.620644 884.692679,762.681802 885.31,763.62 C886.79,765.25 887.67,772.5 887.67,772.5 C887.67,772.5 893,783.15 892.41,785.52 Z" id="Path" fill="#65617D"></path>
            <path d="M812.38,752.8 C812.38,752.8 813,755.43 813.49,758.12 C809.54,758.85 792.28,761.84 787.97,759.75 C783.08,757.38 772.58,756.05 772.58,756.05 L772.75,755.45 C774.34,753.57 775.83,751.61 775.83,751.61 L812.38,752.8 Z" id="Path" fill="#000000" opacity="0.1"></path>
            <path d="M884.12,760.51 C877.22,759.34 862.12,762.17 856.12,763.39 L855.99,757.27 L883.22,754.45 C883.394333,756.486675 883.694911,758.510566 884.12,760.51 Z" id="Path" fill="#000000" opacity="0.1"></path>
            <path d="M899.47,536.24 L898.88,557.1 C898.88,557.1 899.62,588.91 897.4,593.94 C895.18,598.97 895.18,619.24 895.18,619.24 C895.18,619.24 896.66,628.85 895.03,630.92 C893.4,632.99 894.59,640.68 895.77,644.68 C896.95,648.68 895.92,658.59 895.92,658.59 L895.62,714.51 C895.62,714.51 894,729 891.92,731.08 C890.705282,732.330074 890.254794,734.135843 890.74,735.81 C890.74,735.81 888.97,744.09 889.41,745.58 C889.85,747.07 890.74,750.46 887.34,752.08 C883.94,753.7 884.82,758.89 884.82,758.89 C876.69,756.96 853.61,762.15 853.61,762.15 C851.116119,757.00899 848.941985,751.718929 847.1,746.31 C846.295716,744.095075 846.484428,741.641043 847.617904,739.575129 C848.751381,737.509216 850.71978,736.03162 853.02,735.52 C856.12,735.07 850.8,729.6 850.8,729.6 C850.8,729.6 851.39,728.86 849.91,723.54 C848.43,718.22 850.2,704.54 850.65,701.04 C851.1,697.54 853.31,680.33 853.31,680.33 C853.31,680.33 852.13,658.59 853.02,657.7 C853.91,656.81 856.86,648.23 855.39,645.42 C853.92,642.61 851.53,624.12 851.53,623.08 C851.53,622.04 849.62,598.08 849.62,598.08 C849.62,598.08 847.84,581.36 848.29,577.81 C848.74,574.26 847.1,561.1 847.1,561.1 C847.1,550.1 840.74,538.31 840.74,538.31 L840.58,538.74 L826.87,574.86 C826.87,574.86 824.65,585.8 822.73,592.01 C821.515829,596.233036 820.550833,600.523762 819.84,604.86 L819.71,605.65 C819.71,605.98 819.61,606.26 819.58,606.48 L819.49,607.08 C819.49,607.08 820.49,614.92 818.89,617.44 C817.29,619.96 815.49,627.5 815.49,629.57 C815.49,631.64 815.64,639.63 815.64,639.63 C815.64,639.63 816.23,655.46 814.64,657.24 C813.05,659.02 813.89,660.49 813.89,660.49 C813.89,660.49 816.55,672.49 815.37,675.58 C814.19,678.67 815.08,685.93 815.08,685.93 C815.08,685.93 812.71,708.87 812.42,710.05 C812.13,711.23 810.49,720.41 812.27,721.15 C814.05,721.89 817.44,726.32 817.44,726.32 C817.44,726.32 818.19,745.71 815.52,747.18 C812.85,748.65 814.33,756.18 814.33,756.18 C814.33,756.18 792.89,760.32 788.01,757.95 C783.13,755.58 772.62,754.25 772.62,754.25 L774.09,749.39 C774,749.56 773.02,751.14 772.32,745.08 C771.59,738.72 777.8,741.82 777.8,741.82 C777.8,741.82 782.68,743.01 774.8,735.32 C766.92,727.63 770.8,719.78 771.25,719.78 C771.7,719.78 772.74,708.4 772.74,708.4 C772.74,708.4 774.07,701.59 773.03,696.26 C771.99,690.93 771.11,674.36 771.11,674.36 C771.11,674.36 771.85,661.79 770.52,657.21 C769.19,652.63 771.4,644.33 771.85,642.41 C772.3,640.49 770.47,622.93 770.47,622.93 C770.47,622.93 771.95,614.65 771.06,608.59 C770.17,602.53 771.95,580.18 771.95,580.18 L774.61,554.44 C774.61,554.44 776.53,546.44 776.24,543.19 C775.95,539.94 778.47,528.55 778.47,528.55 C778.319014,526.124431 778.722556,523.696337 779.65,521.45 C781.13,518.45 781.72,508.73 781.72,508.73 L795.93,476.18 L802.93,447.48 L896.86,446.59 C896.86,446.59 897.21,449.08 897.78,453.59 C898.35,458.1 899.15,464.8 900.04,473.07 C900.86,480.58 901.76,489.41 902.63,499.24 C905.47,530.62 899.47,536.24 899.47,536.24 Z" id="Path" fill="#3F3D56"></path>
            <path d="M890.78,277.2 L868.88,300.58 C868.88,300.58 840.78,289.33 843.74,285.49 C844.88,284 844.74,279.3 844.04,274.12 C843.04,265.92 840.78,256.49 840.78,256.49 C840.78,256.49 889.89,248.49 885.78,256.78 C884.27,259.78 884.53,263.34 885.47,266.61 C886.659724,270.402287 888.452701,273.978111 890.78,277.2 Z" id="Path" fill="#FBBEBE"></path>
            <path d="M885.75,256.8 C884.24,259.8 883.52,260.12 884.46,263.39 C878.04,270.26 869.87,277.8 859.71,277.8 C854.272752,277.808302 848.908089,276.551868 844.04,274.13 C843.04,265.93 840.78,256.5 840.78,256.5 C840.78,256.5 889.89,248.5 885.75,256.8 Z" id="Path" fill="#000000" opacity="0.1"></path>
            <path d="M894.93,241.69 C894.606149,260.907378 878.935106,276.316557 859.715,276.316557 C840.494894,276.316557 824.823851,260.907378 824.5,241.69 C824.5,241.52 824.5,241.35 824.5,241.19 C824.638071,221.744054 840.514054,206.091929 859.96,206.23 C879.405946,206.368071 895.058071,222.244054 894.92,241.69 L894.93,241.69 Z" id="Path" fill="#FBBEBE"></path>
            <path d="M900.02,473.98 C895.36,473.98 879.83,474.15 862.47,474.42 L862.26,474.42 L856.53,474.52 L856.35,474.52 C835.77,474.85 815.48,470.83 807.35,471.59 C790.05,473.21 813.57,455.59 813.57,455.59 C826.467837,458.724476 839.735448,460.070417 853,459.59 L858,459.33 C873.72,458.44 889.53,456.96 897.79,454.48 C898.34,459.06 899.13,465.71 900.02,473.98 Z" id="Path" fill="#000000" opacity="0.1"></path>
            <path d="M900.02,473.09 C895.36,473.09 879.83,473.26 862.47,473.53 L862.26,473.53 L856.53,473.63 L856.35,473.63 C835.77,473.96 815.48,469.94 807.35,470.7 C790.05,472.33 813.57,454.7 813.57,454.7 C826.467837,457.834476 839.735448,459.180417 853,458.7 L858,458.44 C873.72,457.55 889.53,456.07 897.79,453.6 C898.34,458.18 899.13,464.8 900.02,473.09 Z" id="Path" fill="#5F5D7E"></path>
            <path d="M850.25,286.96 L823.03,299.69 L802.03,462.12 C802.03,462.12 814.45,456.5 821.56,460.05 C828.67,463.6 850.56,460.35 850.56,460.35 C850.56,460.35 866.56,459.46 868.91,461.24 C871.26,463.02 899.07,453.8 899.07,453.8 C899.07,453.8 904.07,442.56 900.25,440.8 C896.43,439.04 901.47,421.59 901.47,421.59 L899.07,304.42 L894.33,289.33 L881.61,281.64 L868.61,291.99 L862.4,292.88 L850.25,286.96 Z" id="Path" fill="#000000" opacity="0.1"></path>
            <path d="M850.25,285.19 L823.03,297.91 L802.03,460.35 C802.03,460.35 814.45,454.73 821.56,458.28 C828.67,461.83 850.56,458.57 850.56,458.57 C850.56,458.57 866.56,457.69 868.91,459.46 C871.26,461.23 899.09,452.06 899.09,452.06 C899.09,452.06 904.09,440.82 900.27,439.06 C896.45,437.3 901.47,419.8 901.47,419.8 L899.07,302.64 L894.33,287.56 L881.61,279.86 L868.61,290.22 L862.4,291.11 L850.25,285.19 Z" id="Path" fill="#E7EFFD"></path>
            <path d="M849.8,292.73 C849.8,292.73 857.64,302.05 857.5,303.98 C857.36,305.91 857.05,310.49 857.05,310.49 L851.13,322.49 C851.13,322.49 847.88,337.43 847.88,340.54 C847.88,343.65 842.7,370.54 842.7,370.54 L836.47,411.97 L828.63,466.27 L836.63,480.02 L846.09,472.02 L858.67,375.26 L861.33,356.18 C861.33,356.18 864.14,321.86 864.14,318.31 C864.14,314.76 862.52,305.44 862.52,305.44 C862.52,305.44 864.44,296.56 872.43,294.44 C880.42,292.32 871.84,293.99 871.84,293.99 L867.25,290.3 L863.25,291.92 C863.25,291.92 852.17,288.59 849.8,292.73 Z" id="Path" fill="#000000" opacity="0.1"></path>
            <path d="M848.91,291.85 C848.91,291.85 856.76,301.17 856.61,303.09 C856.46,305.01 856.16,309.6 856.16,309.6 L850.25,321.6 C850.25,321.6 846.99,336.54 846.99,339.65 C846.99,342.76 841.81,369.65 841.81,369.65 L835.6,411.07 L827.76,465.37 L835.76,479.13 L845.23,471.13 L857.8,374.38 L860.47,355.31 C860.47,355.31 863.28,320.99 863.28,317.44 C863.28,313.89 861.66,304.57 861.66,304.57 C861.66,304.57 863.58,295.69 871.57,293.62 C879.56,291.55 870.98,293.18 870.98,293.18 L866.39,289.48 L862.39,291.11 C862.39,291.11 851.28,287.7 848.91,291.85 Z" id="Path" fill="#912329"></path>
            <path d="M843.74,276.31 C843.74,276.31 842.55,277.2 842.26,283.12 C841.97,289.04 837.82,302.35 837.82,302.35 C837.82,302.35 853.21,291.7 860.9,292.88 L843.74,276.31 Z" id="Path" fill="#000000" opacity="0.1"></path>
            <path d="M843.74,274.54 C843.74,274.54 842.55,275.42 842.26,281.34 C841.97,287.26 837.82,300.57 837.82,300.57 C837.82,300.57 853.21,289.92 860.9,291.11 L843.74,274.54 Z" id="Path" fill="#E7EFFD"></path>
            <path d="M885.75,271.58 L861.47,292.88 C861.47,292.88 881.89,305.01 884.55,307.97 C887.21,310.93 889.87,278.97 889.87,278.97 L885.75,271.58 Z" id="Path" fill="#000000" opacity="0.1"></path>
            <path d="M886.64,269.8 L862.38,291.11 C862.38,291.11 882.79,303.24 885.47,306.2 C888.15,309.16 890.79,277.2 890.79,277.2 L886.64,269.8 Z" id="Path" fill="#E7EFFD"></path>
            <path d="M844.62,276.31 C844.62,276.31 841.96,274.98 839.45,278.83 C837.601468,281.339612 835.091217,283.285489 832.2,284.45 C832.2,284.45 805.27,288.74 804.2,292.29 L791.62,293.03 C791.62,293.03 787.18,293.62 786.74,302.94 C786.3,312.26 783.93,313.15 783.93,313.15 C783.93,313.15 778.75,322.32 779.2,327.05 C779.65,331.78 775.2,334.16 775.2,334.16 L793.69,382.24 C793.69,382.24 794.29,402.06 790.88,409.31 C787.47,416.56 781.12,448.66 781.12,448.66 C781.12,448.66 783.78,448.07 783.63,449.84 C783.48,451.61 780.47,471 780.47,471 C780.47,471 779.58,478.69 778.1,481.36 C776.62,484.03 776.47,497.92 776.47,497.92 L774.11,507.98 C774.11,507.98 779.73,520.56 788.31,518.78 C796.89,517 812.42,483.43 812.42,483.43 L822.34,447.18 L830.03,411.38 L832.25,387.12 L835.8,333.42 L840.98,297.91 C840.98,297.91 846.7,278.8 844.62,276.31 Z" id="Path" fill="#000000" opacity="0.1"></path>
            <path d="M843.74,274.54 C843.74,274.54 841.07,273.21 838.56,277.05 C836.714914,279.562971 834.203611,281.509664 831.31,282.67 C831.31,282.67 804.39,286.96 803.31,290.51 L790.73,291.25 C790.73,291.25 786.3,291.85 785.85,301.17 C785.4,310.49 783.04,311.37 783.04,311.37 C783.04,311.37 777.86,320.55 778.31,325.28 C778.76,330.01 774.31,332.38 774.31,332.38 L792.81,380.46 C792.81,380.46 793.4,400.28 790,407.53 C786.6,414.78 780.23,446.89 780.23,446.89 C780.23,446.89 782.89,446.29 782.75,448.07 C782.61,449.85 779.49,469.22 779.49,469.22 C779.49,469.22 778.6,476.92 777.12,479.58 C775.64,482.24 775.5,496.15 775.5,496.15 L773.13,506.21 C773.13,506.21 778.75,518.78 787.33,517.01 C795.91,515.24 811.47,481.65 811.47,481.65 L821.38,445.41 L829.07,409.61 L831.29,385.34 L834.84,331.64 L840.02,296.14 C840.02,296.14 845.81,277.05 843.74,274.54 Z" id="Path" fill="#65617D"></path>
            <path d="M748.76,389.04 L740.18,394.96 C740.18,394.96 727.06,395.38 717.68,393.07 L712.91,390.95 L711.91,390.53 L712.91,390.84 C717.86,392.31 721.73,392.28 724.76,391.26 C736.9,387.17 735.56,367.12 735.09,362.59 C735.09,362.13 735.01,361.84 734.99,361.73 C734.987851,361.710058 734.987851,361.689942 734.99,361.67 L735.06,361.79 C735.22754,362.063213 735.414699,362.323898 735.62,362.57 C735.79,362.76 735.97,362.96 736.16,363.15 L740.45,371.72 C740.45,371.72 740.45,371.84 740.45,372.08 L748.76,389.04 Z" id="Path" fill="#000000" opacity="0.1"></path>
            <path d="M778.47,331.2 L774.32,332.38 L773.73,340.81 C773.73,340.81 768.85,340.07 767.52,345.81 C766.19,351.55 763.82,354.25 763.82,354.25 C763.82,354.25 755.68,361.05 755.24,366.82 L750.24,369.93 C750.24,369.93 738.55,367.26 735.89,362.53 C735.89,362.53 741.22,400.7 712.81,391.38 C712.81,391.38 744.62,405.28 746.1,407.21 C747.58,409.14 757.34,414.75 766.22,410.02 C775.1,405.29 777.02,398.02 777.02,398.02 C777.02,398.02 785.6,386.02 785.89,384.26 C786.18,382.5 792.89,380.41 792.89,380.41 L805.61,349.64 L778.47,331.2 Z" id="Path" fill="#65617D"></path>
            <path d="M882.35,289.33 L886.64,269.8 C886.64,269.8 888.56,276.16 890.49,277.64 L896.85,282.53 C896.85,282.53 903.21,285.48 905.43,285.48 C907.65,285.48 919.63,288.59 921.11,290.22 C922.59,291.85 928.51,290.66 928.51,290.66 C928.51,290.66 933.39,292.29 937.68,293.32 C941.97,294.35 944.04,301.46 943.15,304.32 C942.416059,307.165204 943.198169,310.187852 945.22,312.32 C947,314.1 947.89,319.87 947.89,319.87 C950.056765,320.58543 951.853607,322.127121 952.89,324.16 C954.37,327.41 953.89,334.51 953.89,334.51 L931.89,365.58 C931.89,365.58 932.18,377.58 931.3,380.23 C930.42,382.88 934.4,428.16 934.4,428.16 L938.99,505.97 C938.99,505.97 932.92,511.15 931.59,511.74 C930.26,512.33 928.93,484.23 928.93,483.19 C928.93,482.15 894.76,432 894.76,432 C894.76,432 890.17,424.61 890.17,423 C890.17,421.39 885.88,406.43 885.88,406.43 L879.37,377.58 L882.35,289.33 Z" id="Path" fill="#000000" opacity="0.1"></path>
            <path d="M955.78,332.8 C955.78,333.8 955.78,334.5 955.78,334.5 L933.78,365.5 C933.78,365.5 934.08,377.5 933.2,380.14 C932.68,381.69 933.81,397.61 934.86,410.69 C935.6,420.12 936.3,428.07 936.3,428.07 L938.25,461.07 L940.88,505.87 C940.88,505.87 934.82,511.05 933.49,511.64 C932.16,512.23 930.83,484.13 930.83,483.09 C930.83,482.05 896.65,431.91 896.65,431.91 C896.65,431.91 892.06,424.5 892.06,422.91 C892.06,421.32 887.77,406.34 887.77,406.34 L881.27,377.49 L884.22,289.32 L886.64,269.8 C886.64,269.8 890.34,276.17 892.26,277.64 L898.62,282.52 C898.62,282.52 904.98,285.52 907.2,285.52 C909.42,285.52 921.41,288.62 922.89,290.25 C924.37,291.88 930.28,290.69 930.28,290.69 C930.28,290.69 935.16,292.32 939.45,293.35 C943.74,294.38 945.82,301.49 944.93,304.35 C944.192107,307.195204 944.974714,310.219769 947,312.35 C948.77,314.12 949.66,319.89 949.66,319.89 C951.826377,320.611642 953.622204,322.156054 954.66,324.19 C955.72,326.34 955.82,330.45 955.78,332.8 Z" id="Path" fill="#65617D"></path>
            <path d="M774.95,726.94 C775.68,726.94 806.75,728.12 806.16,733.15 C805.57,738.18 774.95,726.94 774.95,726.94 Z" id="Path" fill="#000000" opacity="0.1"></path>
            <path d="M781.9,735.37 C781.9,735.37 802.76,738.77 797.28,741.88 C791.8,744.99 781.9,735.37 781.9,735.37 Z" id="Path" fill="#000000" opacity="0.1"></path>
            <path d="M859.47,723.68 C859.47,723.68 894.09,726.68 888.91,730.49 C883.73,734.3 871.45,734.92 870.91,735.07 C870.37,735.22 859.47,723.68 859.47,723.68 Z" id="Path" fill="#000000" opacity="0.1"></path>
            <path d="M855.28,738.92 C855.28,738.92 874.51,742.17 875.1,745.92 C875.69,749.67 855.28,738.92 855.28,738.92 Z" id="Path" fill="#000000" opacity="0.1"></path>
            <path d="M865.93,649.86 C865.93,649.86 883.53,654 884.57,656.86 L865.93,649.86 Z" id="Path" fill="#000000" opacity="0.1"></path>
            <path d="M798.02,662.58 C798.02,662.58 788.85,665.24 797.73,670.58 C806.61,675.92 798.02,662.58 798.02,662.58 Z" id="Path" fill="#000000" opacity="0.1"></path>
            <path d="M838.71,520.41 C839.71,520.41 855.87,515.09 861.49,517.41 C865.51209,518.921079 869.764002,519.729517 874.06,519.8 L838.71,520.41 Z" id="Path" fill="#000000" opacity="0.1"></path>
            <path d="M840.78,537.27 L840.62,538.74 L826.87,574.86 C826.87,574.86 824.65,585.8 822.73,592.01 C821.515829,596.233036 820.550833,600.523762 819.84,604.86 L832.05,529.14 L840.78,537.27 Z" id="Path" fill="#000000" opacity="0.1"></path>
            <polygon id="Path" fill="#3F3D56" points="862.26 473.53 856.53 473.63 856.35 473.63 852.99 458.72 857.99 458.45"></polygon>
            <path d="M932.06,455.47 L928.37,458.47 L916.08,468.6 C916.08,468.6 882.79,486.36 873.62,469.49 C865.54,454.63 903.28,444.02 912.37,441.71 C913.6,441.4 914.3,441.24 914.3,441.24 L932.06,455.47 Z" id="Path" fill="#FBBEBE"></path>
            <path d="M789.89,310.04 C789.89,310.04 796.4,313.04 797.89,317.14 C799.38,321.24 789.89,310.04 789.89,310.04 Z" id="Path" fill="#000000" opacity="0.1"></path>
            <path d="M769.77,354.42 C769.77,354.42 760.3,365.96 764.15,370.42 C768,374.88 769.77,354.42 769.77,354.42 Z" id="Path" fill="#000000" opacity="0.1"></path>
            <path d="M939.01,316.55 C939.01,316.55 930.13,317.44 929.84,325.13 L939.01,316.55 Z" id="Path" fill="#000000" opacity="0.1"></path>
            <path d="M856.76,437.86 C857.64,436.97 878.06,406.79 882.76,409.46 L856.76,437.86 Z" id="Path" fill="#000000" opacity="0.1"></path>
            <path d="M894.93,241.69 C894.938543,247.489937 893.505601,253.201085 890.76,258.31 L890.5,258.26 C888.27,257.79 887.11,255.19 885.4,253.57 C883.249129,251.520362 880.031044,251.06983 877.4,252.45 C874.762334,254.034363 873.245109,256.97205 873.48,260.04 C872.35,255.3 872.71,250.27 871.61,245.52 C870.51,240.77 867.2,235.97 862.66,235.89 C860.66,235.89 858.43,236.6 857.01,235.14 C856.16,234.26 856.01,232.87 855.35,231.79 C852.11,226.55 842.24,229.2 838.21,231.89 C834.18,234.58 829.51,238.89 824.5,241.19 C824.638071,221.744054 840.514054,206.091929 859.96,206.23 C879.405946,206.368071 895.058071,222.244054 894.92,241.69 L894.93,241.69 Z" id="Path" fill="#000000" opacity="0.1"></path>
            <path d="M855.36,230.91 C856,231.98 856.17,233.37 857.02,234.25 C858.43,235.72 860.72,234.96 862.67,235 C867.21,235.08 870.52,239.88 871.62,244.63 C872.72,249.38 872.36,254.41 873.49,259.15 C873.25235,256.078973 874.774939,253.138398 877.42,251.56 C880.051044,250.17983 883.269129,250.630362 885.42,252.68 C887.13,254.3 888.29,256.9 890.52,257.37 C892.75,257.84 894.9,255.7 895.71,253.37 C896.52,251.04 896.46,248.44 896.99,246 C897.99,241.39 900.99,237.6 902.67,233.21 C904.651571,227.871966 904.598174,221.991172 902.52,216.69 C901.41,213.91 899.76,211.41 898.63,208.64 C896.93,204.42 896.49,199.64 894.41,195.64 C890.93,188.91 882.73,185.55 875.98,188.08 C872.77,189.28 869.98,191.62 866.71,192.67 C862.34,194.08 857.66,193.02 853.14,192.39 C848.62,191.76 843.61,191.7 839.97,194.67 C835.78,198.1 834.64,204.54 830.7,208.3 C829.05,209.88 827,210.89 825.26,212.3 C823.52,213.71 822.01,215.93 822.26,218.3 C822.52,221.36 825.52,224.14 824.41,226.98 C824.010478,227.803607 823.453294,228.540857 822.77,229.15 C819.475588,232.603217 817.024992,236.771968 815.61,241.33 C823.52,243.81 832.09,235.08 838.29,230.95 C842.26,228.32 852.12,225.66 855.36,230.91 Z" id="Path" fill="#7C5C5C"></path>
            <path d="M932.06,455.47 L928.37,458.47 C925.12,453.07 911.79,442.27 911.79,442.27 L912.37,441.71 C913.6,441.4 914.3,441.24 914.3,441.24 L932.06,455.47 Z" id="Path" fill="#000000" opacity="0.1"></path>
            <path d="M935.61,449.99 C935.61,449.99 934.28,453.29 932.92,456.13 C931.56,458.97 930.06,461.57 929.99,459.46 C929.84,455.32 912.68,441.41 912.68,441.41 L915.01,439.15 L917.7,436.53 L935.61,449.99 Z" id="Path" fill="#E7EFFD"></path>
            <path d="M936.2,428.09 L938.15,461.09 C933.55,453.94 920.93,435.62 912.82,436.21 L932.47,413.6 C933.288439,412.689401 934.04354,411.723808 934.73,410.71 C935.47,420.14 936.2,428.09 936.2,428.09 Z" id="Path" fill="#000000" opacity="0.1"></path>
            <path d="M935.61,449.99 C935.61,449.99 934.28,453.29 932.92,456.13 C927.76,449.06 920.67,440.71 915.01,439.13 L917.7,436.51 L935.61,449.99 Z" id="Path" fill="#000000" opacity="0.1"></path>
            <path d="M950.4,330.31 L955.73,334.45 C955.73,334.45 964.6,334.6 965.49,342 C966.38,349.4 974.49,352.8 974.49,352.8 C974.49,352.8 980.55,358.86 980.55,361.67 C980.55,364.48 985.14,369.51 985.14,369.96 C985.14,370.41 989.58,379.43 988.98,381.05 C988.38,382.67 993.72,389.78 992.09,392.44 C990.753438,394.830187 989.567787,397.301685 988.54,399.84 C988.54,399.84 981.59,413.16 978.04,415.67 C974.49,418.18 958.21,439.34 958.21,439.34 C958.21,439.34 940.76,459.46 940.76,465.67 C940.76,465.67 923.76,437.27 913.68,438.01 L933.36,415.37 C933.36,415.37 936.76,411.68 936.91,409.46 C937.06,407.24 946.38,397.03 950.82,396.59 C950.82,396.59 951.55,390.52 949.63,390.37 C947.71,390.22 946.08,385.49 946.08,385.49 C946.08,385.49 933.08,370.11 932.91,360.34 C932.74,350.57 950.4,330.31 950.4,330.31 Z" id="Path" fill="#65617D"></path>
            <path d="M958.24,344.36 C958.24,344.36 945.82,353.54 948.48,356.49 C951.14,359.44 958.24,344.36 958.24,344.36 Z" id="Path" fill="#000000" opacity="0.1"></path>
            <path d="M958.83,382.24 C958.83,382.24 981.91,374.84 984.28,382.24 L958.83,382.24 Z" id="Path" fill="#000000" opacity="0.1"></path>
            <path d="M815.93,775.31 C815.93,775.31 803.5,783.45 797.29,782.31 C791.08,781.17 784.71,784.39 784.71,784.39 C780.42777,789.065645 775.029398,792.578544 769.02,794.6 C759.02,798 744.92,796.66 736.93,794 C733.15,792.74 732.84,791.12 734.66,789.11 C743.35,790.84 762.76,794.29 767.99,791.78 C774.79,788.52 784.56,781.42 784.56,781.42 C784.56,781.42 797.29,779.65 799.06,779.65 C800.32,779.65 810.15,775.59 815.7,773.27 L815.93,775.31 Z" id="Path" fill="#000000" opacity="0.1"></path>
            <path d="M891.2,791.95 L891.07,792.77 C891.07,792.77 888.07,799.28 871.7,801.65 C855.33,804.02 855.28,796.17 855.28,796.17 C855.28,796.17 855.34,795.33 855.44,794.06 C860.64,796.03 871.98,798.23 891.2,791.95 Z" id="Path" fill="#000000" opacity="0.1"></path>
            <path d="M796.03,342.59 C796.03,342.59 796.03,376.32 793.14,379.65 C790.25,382.98 796.03,342.59 796.03,342.59 Z" id="Path" fill="#000000" opacity="0.1"></path>
            <path d="M929.39,353.46 L933.68,365.52 C933.68,365.52 935.39,353.68 929.39,353.46 Z" id="Path" fill="#000000" opacity="0.1"></path>
            <g id="Group" opacity="0.1" transform="translate(815.000000, 215.000000)" fill="#000000">
                <path d="M9.79,9.15 C10.87,6.37 8.03,3.65 7.66,0.67 C7.28379218,1.51062061 7.12228975,2.43152809 7.19,3.35 C7.38,5.59 9.03,7.68 9.47,9.76 C9.5940088,9.56624657 9.70107236,9.36215666 9.79,9.15 Z" id="Path"></path>
                <path d="M58.89,41.01 C57.83,36.35 58.14,31.41 57.06,26.74 C55.98,22.07 52.65,17.19 48.12,17.11 C46.12,17.11 43.88,17.83 42.47,16.37 C41.61,15.49 41.47,14.09 40.8,13.02 C37.56,7.77 27.7,10.43 23.66,13.12 C17.66,17.12 9.3,25.55 1.54,23.65 C1.17,24.54 0.83,25.45 0.54,26.38 C8.45,28.86 17.02,20.13 23.22,16 C27.22,13.32 37.12,10.66 40.36,15.91 C41,16.98 41.17,18.37 42.02,19.25 C43.43,20.72 45.72,19.96 47.67,20 C52.21,20.08 55.52,24.88 56.62,29.63 C57.72,34.38 57.36,39.41 58.49,44.15 C58.417101,43.0872579 58.5529906,42.0205245 58.89,41.01 Z" id="Path"></path>
                <path d="M81.13,35.47 C80.33,37.81 78.22,39.97 75.94,39.47 C73.66,38.97 72.55,36.4 70.85,34.77 C68.6871867,32.7437833 65.482766,32.29917 62.85,33.66 C60.338186,35.1570786 58.8342123,37.8971427 58.92,40.82 C59.5191428,39.0136424 60.7611933,37.49044 62.41,36.54 C65.0410443,35.1598302 68.2591288,35.610362 70.41,37.66 C72.12,39.28 73.28,41.88 75.51,42.35 C77.74,42.82 79.89,40.68 80.7,38.35 C81.121297,36.9663982 81.3928527,35.5415692 81.51,34.1 C81.4127392,34.5643177 81.2858123,35.0219228 81.13,35.47 Z" id="Path"></path>
                <path d="M88.09,15.31 C86.43,19.7 83.41,23.48 82.41,28.1 C82.21,29.03 82.09,29.98 81.98,30.94 C82.98,26.34 85.98,22.57 87.65,18.19 C88.3871657,16.219621 88.8482025,14.1567337 89.02,12.06 C88.7923406,13.1652209 88.4814548,14.2516498 88.09,15.31 Z" id="Path"></path>
            </g>
            <circle id="Oval" fill="#E6E8EC" cx="689.3" cy="337.07" r="1"></circle>
            <ellipse id="Oval" fill="#6C63FF" opacity="0.1" cx="817.04" cy="793.28" rx="86.34" ry="8.81"></ellipse>
            <path d="M499.55,215.39 L238.04,385.05 L408.7,692.85 C410.31215,695.759883 413.06783,697.862902 416.3,698.65 L570.93,736.37 C576.389896,737.690632 582.030839,735.020141 584.47,729.96 L661.17,570.61 L745.23,458.24 L545.75,222.24 C534.265816,208.659899 514.480496,205.726361 499.55,215.39 Z" id="Path" fill="#DCDFED"></path>
            <path d="M747.89,459.57 L747.15,460.57 L697.91,526.4 L697.02,527.59 L663.83,571.96 L598.23,708.27 L596.39,712.08 L587.13,731.31 C584.689104,736.378984 579.03632,739.051133 573.57,737.72 L418.94,699.98 C415.706751,699.195163 412.950254,697.091521 411.34,694.18 L396.47,667.41 L393.8,662.59 L286.47,468.93 L285.55,467.28 L240.69,386.38 L246.11,382.86 L287.2,356.21 L288.15,355.59 L374.68,299.45 L380.14,295.91 L502.19,216.72 C517.121296,207.037424 536.923081,209.967848 548.41,223.56 L639.41,331.26 L643.41,336.06 L709.46,414.2 L709.82,414.63 L743.03,453.91 L747.21,458.86 L747.89,459.57 Z" id="Path" fill="#000000" opacity="0.1"></path>
            <path d="M707.26,413.3 L699.2,469.3 L696.77,486.2 L695.38,522.2 L695.27,525.01 L688.04,713.11 C687.899057,716.642773 686.198393,719.931053 683.396795,722.087762 C680.595197,724.244471 676.981291,725.047421 673.53,724.28 L595.59,706.88 L594.75,706.69 L394.86,662.08 L391.19,661.26 L281.3,636.72 L283.82,467.6 L283.9,461.95 L284.66,410.76 L285.5,354.26 L372.03,298.12 L377.49,294.58 C457.75,302.81 564.49,318.64 636.8,329.93 L640.8,334.73 L706.8,412.87 L707.26,413.3 Z" id="Path" fill="#000000" opacity="0.1"></path>
            <path d="M716.39,346.9 L706.9,412.9 L698.2,473.34 L695.77,490.2 L694.38,526.2 L687.04,717.11 C686.899057,720.642773 685.198393,723.931053 682.396795,726.087762 C679.595197,728.244471 675.981291,729.047421 672.53,728.28 L593.75,710.69 L393.86,666.08 L280.3,640.72 L282.9,465.95 L283.66,414.76 L284.55,354.88 L285.46,293.29 C304.24,292.4 335.14,294.41 372.03,298.12 C454.63,306.41 567.23,323.18 640.85,334.73 C685.93,341.8 716.39,346.9 716.39,346.9 Z" id="Path" fill="#912329"></path>
            <path d="M740.47,452.58 L698.2,473.31 L482.47,579.11 L283.66,414.8 L243.47,381.53 L238.05,385.05 L282.91,465.95 L280.31,640.72 L393.87,666.08 L408.71,692.85 C410.320254,695.761521 413.076751,697.865163 416.31,698.65 L570.94,736.37 C576.396681,737.68539 582.031712,735.015726 584.47,729.96 L593.73,710.73 L672.51,728.32 C675.961291,729.087421 679.575197,728.284471 682.376795,726.127762 C685.178393,723.971053 686.879057,720.682773 687.02,717.15 L694.36,526.24 L744.49,459.24 L744.63,457.55 L740.47,452.58 Z" id="Path" fill="#000000" opacity="0.1"></path>
            <path d="M238.04,385.05 L220.21,690.38 C219.86922,696.217124 223.812601,701.439668 229.52,702.71 L703.04,807.86 C706.399007,808.595569 709.912031,807.844734 712.676875,805.80032 C715.44172,803.755906 717.189004,800.617103 717.47,797.19 L745.22,458.24 L482.47,587.11 L238.04,385.05 Z" id="Path" fill="#DCDFED"></path>
            <path d="M223.47,697.37 L469.47,545.6 C476.990469,541.03938 486.70274,542.559561 492.47,549.2 L712.65,805.99 C713.45,806.91 713.84,806.25 712.65,805.99 L223.47,697.37 C222.07,697.06 222.25,698.1 223.47,697.37 Z" id="Path" fill="#000000" opacity="0.1"></path>
            <path d="M225.23,697.12 L468.69,550.05 C476.635681,545.250904 486.881795,546.862937 492.97,553.87 L711.16,804.8 C711.900772,805.656455 712.010184,806.890913 711.431594,807.864304 C710.853005,808.837696 709.716323,809.331469 708.61,809.09 L226.02,701.93 C224.968414,701.702618 224.162728,700.855468 223.988359,699.793804 C223.81399,698.732139 224.306386,697.671791 225.23,697.12 Z" id="Path" fill="#E3E5F1"></path>
        </g>
    </g>
</svg>