<?xml version="1.0" encoding="UTF-8"?>
<svg width="83px" height="74px" viewBox="0 0 83 74" version="1.1" xmlns="http://www.w3.org/2000/svg" xmlns:xlink="http://www.w3.org/1999/xlink">
    <!-- Generator: Sketch 52.3 (67297) - http://www.bohemiancoding.com/sketch -->
    <title>Group 2</title>
    <desc>Created with Sketch.</desc>
    <defs>
        <linearGradient x1="69.7073699%" y1="53.6989471%" x2="0%" y2="50%" id="linearGradient-1">
            <stop stop-color="#FAD9B7" offset="0%"></stop>
            <stop stop-color="#FFE5C6" offset="30.2926301%"></stop>
            <stop stop-color="#FAD3AE" offset="100%"></stop>
        </linearGradient>
    </defs>
    <g id="AccentTranslations" stroke="none" stroke-width="1" fill="none" fill-rule="evenodd">
        <g id="AccentTranslations---Home-2" transform="translate(-729.000000, -1047.000000)" fill-rule="nonzero">
            <g id="Are-you" transform="translate(0.000000, 532.000000)">
                <g id="lawyer" transform="translate(510.000000, 444.000000)">
                    <g id="Group-2" transform="translate(219.000000, 71.000000)">
                        <path d="M59.5294118,14.7252585 L64.1764706,15.2394301 L64.1764706,68.7688419 L21.2941176,64.0241441 L21.2941176,10.4947323 L28.9411765,11.3408375 L28.9411765,7.51730813 C28.9411765,3.29230813 32.3632353,0.248881405 36.5882353,0.71635455 L51.8823529,2.40856503 C56.1073529,2.87603817 59.5294118,6.67672909 59.5294118,10.9017291 L59.5294118,14.7252585 Z M71,15.9944164 L74.8235294,16.417469 C79.0485294,16.8849421 82.4705882,20.685633 82.4705882,24.910633 L82.4705882,63.1459272 C82.4705882,67.3709272 79.0485294,70.4143539 74.8235294,69.9468807 L71,69.5238281 L71,15.9944164 Z M14.5,63.2724121 C10.275,62.804939 6,58.9098748 6,54.6848748 L6,16.4495807 C6,12.2436983 10.2941176,9.27764246 14.5,9.74300034 L14.5,63.2724121 Z M36.5882353,8.36341337 L36.5882353,12.1869428 L51.8823529,13.8791533 L51.8823529,10.0556239 L36.5882353,8.36341337 Z" id="Shape" fill="#D9B795"></path>
                        <path d="M53.5294118,18.3933249 L61.1764706,19.2394301 L61.1764706,72.7688419 L15.2941176,67.6922105 L15.2941176,14.1627987 L22.9411765,15.008904 L22.9411765,11.1853745 C22.9411765,6.96037454 26.3632353,3.91694781 30.5882353,4.38442096 L45.8823529,6.07663143 C50.1073529,6.54410458 53.5294118,10.3447955 53.5294118,14.5697955 L53.5294118,18.3933249 Z M65,19.6624828 L68.8235294,20.0855354 C73.0485294,20.5530085 76.4705882,24.3536994 76.4705882,28.5786994 L76.4705882,66.8139936 C76.4705882,71.0389936 73.0485294,74.0824203 68.8235294,73.6149472 L65,73.1918945 L65,19.6624828 Z M11.4705882,13.7397461 L11.4705882,67.2691579 L7.64705882,66.8461052 C3.42205882,66.3786321 0,62.5779412 0,58.3529412 L0,20.1176471 C0,15.9117647 3.44117647,12.8513356 7.64705882,13.3166935 L11.4705882,13.7397461 Z M30.5882353,12.0314798 L30.5882353,15.8550092 L45.8823529,17.5472197 L45.8823529,13.7236903 L30.5882353,12.0314798 Z" id="Shape" fill="url(#linearGradient-1)"></path>
                    </g>
                </g>
            </g>
        </g>
    </g>
</svg>