<?xml version="1.0" encoding="UTF-8"?>
<svg width="60px" height="60px" viewBox="0 0 60 60" version="1.1" xmlns="http://www.w3.org/2000/svg" xmlns:xlink="http://www.w3.org/1999/xlink">
    <!-- Generator: Sketch 52.6 (67491) - http://www.bohemiancoding.com/sketch -->
    <title>competitiveness</title>
    <desc>Created with Sketch.</desc>
    <g id="competitiveness" stroke="none" stroke-width="1" fill="none" fill-rule="evenodd">
        <path d="M44,23 C40.1340068,23 37,19.8659932 37,16 C37,12.1340068 40.1340068,9 44,9 C47.8659932,9 51,12.1340068 51,16 C51,19.8659932 47.8659932,23 44,23 Z M44,22 C47.3137085,22 50,19.3137085 50,16 C50,12.6862915 47.3137085,10 44,10 C40.6862915,10 38,12.6862915 38,16 C38,19.3137085 40.6862915,22 44,22 Z M44,17.814729 L42.1408112,19 L42.6338508,16.7776958 L41,15.2814097 L43.1548322,15.0889217 L44,13 L44.8451678,15.0889217 L47,15.2814097 L45.3661492,16.7776958 L45.8591888,19 L44,17.814729 Z M23.1170094,21.9895924 L20.2745651,24.8320366 L14.5784271,30.5281746 C14.383165,30.7234367 14.0665825,30.7234367 13.8713203,30.5281746 C13.6760582,30.3329124 13.6760582,30.01633 13.8713203,29.8210678 L22.3890873,21.3033009 L20.8994949,21.3033009 C20.6568542,21.3033009 20.4601551,21.1066017 20.4601551,20.863961 C20.4601551,20.6213203 20.6568542,20.4246212 20.8994949,20.4246212 L23.3847763,20.4246212 C23.5246395,20.4246212 23.649238,20.4899766 23.7296986,20.5918141 C23.743907,20.6032133 23.7576374,20.6155018 23.7708153,20.6286797 C23.7876989,20.6455633 23.8031227,20.663354 23.8170866,20.6818949 C23.9254263,20.7619067 23.995689,20.8905149 23.995689,21.0355339 L23.995689,23.5208153 C23.995689,23.763456 23.7989899,23.9601551 23.5563492,23.9601551 C23.3137085,23.9601551 23.1170094,23.763456 23.1170094,23.5208153 L23.1170094,21.9895924 Z M25.1170094,12.9895924 L19.2497194,18.8568823 L8.80025253,29.3063492 C8.60499039,29.5016113 8.2884079,29.5016113 8.09314575,29.3063492 C7.8978836,29.111087 7.8978836,28.7945046 8.09314575,28.5992424 L24.3890873,12.3033009 L22.8994949,12.3033009 C22.6568542,12.3033009 22.4601551,12.1066017 22.4601551,11.863961 C22.4601551,11.6213203 22.6568542,11.4246212 22.8994949,11.4246212 L25.3847763,11.4246212 C25.5246395,11.4246212 25.649238,11.4899766 25.7296986,11.5918141 C25.743907,11.6032133 25.7576374,11.6155018 25.7708153,11.6286797 C25.7876989,11.6455633 25.8031227,11.663354 25.8170866,11.6818949 C25.9254263,11.7619067 25.995689,11.8905149 25.995689,12.0355339 L25.995689,14.5208153 C25.995689,14.763456 25.7989899,14.9601551 25.5563492,14.9601551 C25.3137085,14.9601551 25.1170094,14.763456 25.1170094,14.5208153 L25.1170094,12.9895924 Z M35.1170094,21.9895924 L27.8747896,29.2318122 L15.2647186,41.8418831 C15.0694565,42.0371452 14.752874,42.0371452 14.5576118,41.8418831 C14.3623497,41.6466209 14.3623497,41.3300385 14.5576118,41.1347763 L34.3890873,21.3033009 L32.8994949,21.3033009 C32.6568542,21.3033009 32.4601551,21.1066017 32.4601551,20.863961 C32.4601551,20.6213203 32.6568542,20.4246212 32.8994949,20.4246212 L35.3847763,20.4246212 C35.5246395,20.4246212 35.649238,20.4899766 35.7296986,20.5918141 C35.743907,20.6032133 35.7576374,20.6155018 35.7708153,20.6286797 C35.7876989,20.6455633 35.8031227,20.663354 35.8170866,20.6818949 C35.9254263,20.7619067 35.995689,20.8905149 35.995689,21.0355339 L35.995689,23.5208153 C35.995689,23.763456 35.7989899,23.9601551 35.5563492,23.9601551 C35.3137085,23.9601551 35.1170094,23.763456 35.1170094,23.5208153 L35.1170094,21.9895924 Z M28.1170094,23.9895924 L26.374509,25.7320928 L22.4068542,29.6997475 C22.2115921,29.8950096 21.8950096,29.8950096 21.6997475,29.6997475 C21.5044853,29.5044853 21.5044853,29.1879028 21.6997475,28.9926407 L27.3890873,23.3033009 L25.8994949,23.3033009 C25.6568542,23.3033009 25.4601551,23.1066017 25.4601551,22.863961 C25.4601551,22.6213203 25.6568542,22.4246212 25.8994949,22.4246212 L28.3847763,22.4246212 C28.5246395,22.4246212 28.649238,22.4899766 28.7296986,22.5918141 C28.743907,22.6032133 28.7576374,22.6155018 28.7708153,22.6286797 C28.7876989,22.6455633 28.8031227,22.663354 28.8170866,22.6818949 C28.9254263,22.7619067 28.995689,22.8905149 28.995689,23.0355339 L28.995689,25.5208153 C28.995689,25.763456 28.7989899,25.9601551 28.5563492,25.9601551 C28.3137085,25.9601551 28.1170094,25.763456 28.1170094,25.5208153 L28.1170094,23.9895924 Z M35.1170094,33.9895924 L30.6246493,38.4819525 L22.3357864,46.7708153 C22.1405243,46.9660774 21.8239418,46.9660774 21.6286797,46.7708153 C21.4334175,46.5755531 21.4334175,46.2589706 21.6286797,46.0637085 L34.3890873,33.3033009 L32.8994949,33.3033009 C32.6568542,33.3033009 32.4601551,33.1066017 32.4601551,32.863961 C32.4601551,32.6213203 32.6568542,32.4246212 32.8994949,32.4246212 L35.3847763,32.4246212 C35.5246395,32.4246212 35.649238,32.4899766 35.7296986,32.5918141 C35.743907,32.6032133 35.7576374,32.6155018 35.7708153,32.6286797 C35.7876989,32.6455633 35.8031227,32.663354 35.8170866,32.6818949 C35.9254263,32.7619067 35.995689,32.8905149 35.995689,33.0355339 L35.995689,35.5208153 C35.995689,35.763456 35.7989899,35.9601551 35.5563492,35.9601551 C35.3137085,35.9601551 35.1170094,35.763456 35.1170094,35.5208153 L35.1170094,33.9895924 Z M27.1170094,35.9895924 L25.374509,37.7320928 L21.4068542,41.6997475 C21.2115921,41.8950096 20.8950096,41.8950096 20.6997475,41.6997475 C20.5044853,41.5044853 20.5044853,41.1879028 20.6997475,40.9926407 L26.3890873,35.3033009 L24.8994949,35.3033009 C24.6568542,35.3033009 24.4601551,35.1066017 24.4601551,34.863961 C24.4601551,34.6213203 24.6568542,34.4246212 24.8994949,34.4246212 L27.3847763,34.4246212 C27.5246395,34.4246212 27.649238,34.4899766 27.7296986,34.5918141 C27.743907,34.6032133 27.7576374,34.6155018 27.7708153,34.6286797 C27.7876989,34.6455633 27.8031227,34.663354 27.8170866,34.6818949 C27.9254263,34.7619067 27.995689,34.8905149 27.995689,35.0355339 L27.995689,37.5208153 C27.995689,37.763456 27.7989899,37.9601551 27.5563492,37.9601551 C27.3137085,37.9601551 27.1170094,37.763456 27.1170094,37.5208153 L27.1170094,35.9895924 Z M51.1170094,36.9895924 L46.6246493,41.4819525 L38.3357864,49.7708153 C38.1405243,49.9660774 37.8239418,49.9660774 37.6286797,49.7708153 C37.4334175,49.5755531 37.4334175,49.2589706 37.6286797,49.0637085 L50.3890873,36.3033009 L48.8994949,36.3033009 C48.6568542,36.3033009 48.4601551,36.1066017 48.4601551,35.863961 C48.4601551,35.6213203 48.6568542,35.4246212 48.8994949,35.4246212 L51.3847763,35.4246212 C51.5246395,35.4246212 51.649238,35.4899766 51.7296986,35.5918141 C51.743907,35.6032133 51.7576374,35.6155018 51.7708153,35.6286797 C51.7876989,35.6455633 51.8031227,35.663354 51.8170866,35.6818949 C51.9254263,35.7619067 51.995689,35.8905149 51.995689,36.0355339 L51.995689,38.5208153 C51.995689,38.763456 51.7989899,38.9601551 51.5563492,38.9601551 C51.3137085,38.9601551 51.1170094,38.763456 51.1170094,38.5208153 L51.1170094,36.9895924 Z M49.631728,30.9895924 L48.4391995,32.1821208 L45.3357864,35.2855339 C45.1405243,35.4807961 44.8239418,35.4807961 44.6286797,35.2855339 C44.4334175,35.0902718 44.4334175,34.7736893 44.6286797,34.5784271 L48.9038059,30.3033009 L47.4142136,30.3033009 C47.1715729,30.3033009 46.9748737,30.1066017 46.9748737,29.863961 C46.9748737,29.6213203 47.1715729,29.4246212 47.4142136,29.4246212 L49.8994949,29.4246212 C50.0393581,29.4246212 50.1639566,29.4899766 50.2444172,29.5918141 C50.2586256,29.6032133 50.272356,29.6155018 50.2855339,29.6286797 C50.3024176,29.6455633 50.3178413,29.663354 50.3318052,29.6818949 C50.440145,29.7619067 50.5104076,29.8905149 50.5104076,30.0355339 L50.5104076,32.5208153 C50.5104076,32.763456 50.3137085,32.9601551 50.0710678,32.9601551 C49.8284271,32.9601551 49.631728,32.763456 49.631728,32.5208153 L49.631728,30.9895924 Z M42.1170094,31.9895924 L39.5495511,34.5570507 L34.2855339,39.8210678 C34.0902718,40.01633 33.7736893,40.01633 33.5784271,39.8210678 C33.383165,39.6258057 33.383165,39.3092232 33.5784271,39.113961 L41.3890873,31.3033009 L39.8994949,31.3033009 C39.6568542,31.3033009 39.4601551,31.1066017 39.4601551,30.863961 C39.4601551,30.6213203 39.6568542,30.4246212 39.8994949,30.4246212 L42.3847763,30.4246212 C42.5246395,30.4246212 42.649238,30.4899766 42.7296986,30.5918141 C42.743907,30.6032133 42.7576374,30.6155018 42.7708153,30.6286797 C42.7876989,30.6455633 42.8031227,30.663354 42.8170866,30.6818949 C42.9254263,30.7619067 42.995689,30.8905149 42.995689,31.0355339 L42.995689,33.5208153 C42.995689,33.763456 42.7989899,33.9601551 42.5563492,33.9601551 C42.3137085,33.9601551 42.1170094,33.763456 42.1170094,33.5208153 L42.1170094,31.9895924 Z" id="Combined-Shape" fill="#912329"></path>
    </g>
</svg>