<?xml version="1.0" encoding="UTF-8"?>
<svg width="60px" height="60px" viewBox="0 0 60 60" version="1.1" xmlns="http://www.w3.org/2000/svg" xmlns:xlink="http://www.w3.org/1999/xlink">
    <!-- Generator: Sketch 52.6 (67491) - http://www.bohemiancoding.com/sketch -->
    <title>confidential</title>
    <desc>Created with Sketch.</desc>
    <g id="confidential" stroke="none" stroke-width="1" fill="none" fill-rule="evenodd">
        <path d="M21,26 L21,13 C21,11.8954305 21.8954305,11 23,11 L37,11 C38.1045695,11 39,11.8954305 39,13 L39,26 L43,26 C44.1045695,26 45,26.8954305 45,28 L45,47 C45,48.1045695 44.1045695,49 43,49 L17,49 C15.8954305,49 15,48.1045695 15,47 L15,28 C15,26.8954305 15.8954305,26 17,26 L21,26 Z M23.1623012,26 L36.8376988,26 C37.0078689,25.7058266 37.1052632,25.3642871 37.1052632,25 L37.1052632,15 C37.1052632,13.8954305 36.2098327,13 35.1052632,13 L24.8947368,13 C23.7901673,13 22.8947368,13.8954305 22.8947368,15 L22.8947368,25 C22.8947368,25.3642871 22.9921311,25.7058266 23.1623012,26 Z M27.7878222,39.4852444 L27,45 L33,45 L32.2121778,39.4852444 C33.8639724,38.6690034 35,36.9671684 35,35 C35,32.2385763 32.7614237,30 30,30 C27.2385763,30 25,32.2385763 25,35 C25,36.9671684 26.1360276,38.6690034 27.7878222,39.4852444 Z" id="Combined-Shape" fill="#912329"></path>
    </g>
</svg>