<?xml version="1.0" encoding="UTF-8"?>
<svg width="60px" height="60px" viewBox="0 0 60 60" version="1.1" xmlns="http://www.w3.org/2000/svg" xmlns:xlink="http://www.w3.org/1999/xlink">
    <!-- Generator: Sketch 52.6 (67491) - http://www.bohemiancoding.com/sketch -->
    <title>exp</title>
    <desc>Created with Sketch.</desc>
    <defs>
        <path d="M30,50 C18.954305,50 10,41.045695 10,30 C10,18.954305 18.954305,10 30,10 C41.045695,10 50,18.954305 50,30 C50,41.045695 41.045695,50 30,50 Z M30,47 C39.3888407,47 47,39.3888407 47,30 C47,20.6111593 39.3888407,13 30,13 C20.6111593,13 13,20.6111593 13,30 C13,39.3888407 20.6111593,47 30,47 Z M26.9525926,36 L24.5,32 L21.9333333,36 L19,36 L22.9274074,29.8043478 L19.162963,24 L22.1777778,24 L24.5,28 L27.0177778,24 L29.8859259,24 L26,29.8043478 L30,36 L26.9525926,36 Z M32,24 L35.514377,24 C37.0159819,24 38.2513264,24.2961927 39.2204473,24.888587 C40.1895682,25.4809812 40.895099,26.2472779 41.3370607,27.1875 C41.7790224,28.1277221 42,29.1358642 42,30.2119565 C42,31.3641362 41.733762,32.3804304 41.201278,33.2608696 C40.6687939,34.1413088 39.9526137,34.8179324 39.0527157,35.2907609 C38.1528177,35.7635893 37.1650746,36 36.0894569,36 L32,36 L32,24 Z M35.5589124,34 C36.9244781,34 38.0060383,33.6615643 38.8036254,32.9846827 C39.6012124,32.3078011 40,31.3333397 40,30.0612691 C40,29.0342764 39.7794584,28.2173626 39.3383686,27.6105033 C38.8972788,27.0036439 38.3836887,26.5835168 37.7975831,26.3501094 C37.2114774,26.116702 36.6586129,26 36.1389728,26 L34,26 L34,34 L35.5589124,34 Z" id="path-1"></path>
    </defs>
    <g id="exp" stroke="none" stroke-width="1" fill="none" fill-rule="evenodd">
        <mask id="mask-2" fill="white">
            <use xlink:href="#path-1"></use>
        </mask>
        <use id="Combined-Shape" fill="#912329" xlink:href="#path-1"></use>
    </g>
</svg>