<?xml version="1.0" encoding="UTF-8"?>
<svg width="431px" height="331px" viewBox="0 0 431 331" version="1.1" xmlns="http://www.w3.org/2000/svg" xmlns:xlink="http://www.w3.org/1999/xlink">
    <!-- Generator: Sketch 52.3 (67297) - http://www.bohemiancoding.com/sketch -->
    <title>illustrations/header/header-img</title>
    <desc>Created with Sketch.</desc>
    <defs>
        <path d="M20.1515152,13.5135183 L143.075758,29.6848413 C148.269466,30.3681006 152.479798,35.1236271 152.479798,40.3066071 L152.479798,210.570343 C152.479798,215.753323 148.269466,219.401068 143.075758,218.717808 L10.7474747,201.309335 L10.7474747,21.6609833 C10.7474747,16.4780033 14.957807,12.830259 20.1515152,13.5135183 Z" id="path-1"></path>
        <filter x="-15.5%" y="-10.7%" width="136.7%" height="125.3%" filterUnits="objectBoundingBox" id="filter-2">
            <feOffset dx="4" dy="4" in="SourceAlpha" result="shadowOffsetOuter1"></feOffset>
            <feGaussianBlur stdDeviation="8" in="shadowOffsetOuter1" result="shadowBlurOuter1"></feGaussianBlur>
            <feColorMatrix values="0 0 0 0 0.568627451   0 0 0 0 0.137254902   0 0 0 0 0.160784314  0 0 0 0.15 0" type="matrix" in="shadowBlurOuter1"></feColorMatrix>
        </filter>
        <path d="M16.1212121,9.21074341 L139.045455,25.3820664 C144.239163,26.0653257 148.449495,30.8208523 148.449495,36.0038322 L148.449495,206.267568 C148.449495,211.450548 144.239163,215.098293 139.045455,214.415033 L6.71717172,197.00656 L6.71717172,17.3582084 C6.71717172,12.1752284 10.927504,8.52748411 16.1212121,9.21074341 Z" id="path-3"></path>
        <filter x="-15.5%" y="-10.7%" width="136.7%" height="125.3%" filterUnits="objectBoundingBox" id="filter-4">
            <feOffset dx="4" dy="4" in="SourceAlpha" result="shadowOffsetOuter1"></feOffset>
            <feGaussianBlur stdDeviation="8" in="shadowOffsetOuter1" result="shadowBlurOuter1"></feGaussianBlur>
            <feColorMatrix values="0 0 0 0 0.568627451   0 0 0 0 0.137254902   0 0 0 0 0.160784314  0 0 0 0.15 0" type="matrix" in="shadowBlurOuter1"></feColorMatrix>
        </filter>
        <path d="M12.7626263,4.83732945 L135.686869,21.0086525 C140.880577,21.6919118 145.090909,26.4474383 145.090909,31.6304183 L145.090909,201.894155 C145.090909,207.077134 140.880577,210.724879 135.686869,210.04162 L3.35858586,192.633146 L3.35858586,12.9847944 C3.35858586,7.80181448 7.56891816,4.15407015 12.7626263,4.83732945 Z" id="path-5"></path>
        <filter x="-15.5%" y="-10.7%" width="136.7%" height="125.3%" filterUnits="objectBoundingBox" id="filter-6">
            <feOffset dx="4" dy="4" in="SourceAlpha" result="shadowOffsetOuter1"></feOffset>
            <feGaussianBlur stdDeviation="8" in="shadowOffsetOuter1" result="shadowBlurOuter1"></feGaussianBlur>
            <feColorMatrix values="0 0 0 0 0.568627451   0 0 0 0 0.137254902   0 0 0 0 0.160784314  0 0 0 0.15 0" type="matrix" in="shadowBlurOuter1"></feColorMatrix>
        </filter>
        <path d="M9.4040404,0.463915483 L132.328283,16.6352385 C137.521991,17.3184978 141.732323,22.0740243 141.732323,27.2570043 L141.732323,197.520741 C141.732323,202.703721 137.521991,206.351465 132.328283,205.668206 L0,188.259732 L1.19320939e-15,8.61138047 C0,3.42840051 4.2103323,-0.219343814 9.4040404,0.463915483 Z" id="path-7"></path>
        <filter x="-15.5%" y="-10.7%" width="136.7%" height="125.3%" filterUnits="objectBoundingBox" id="filter-8">
            <feOffset dx="4" dy="4" in="SourceAlpha" result="shadowOffsetOuter1"></feOffset>
            <feGaussianBlur stdDeviation="8" in="shadowOffsetOuter1" result="shadowBlurOuter1"></feGaussianBlur>
            <feColorMatrix values="0 0 0 0 0.568627451   0 0 0 0 0.137254902   0 0 0 0 0.160784314  0 0 0 0.15 0" type="matrix" in="shadowBlurOuter1"></feColorMatrix>
        </filter>
        <linearGradient x1="100%" y1="50%" x2="0%" y2="100%" id="linearGradient-9">
            <stop stop-color="#F1AF6E" offset="0%"></stop>
            <stop stop-color="#E98B30" offset="100%"></stop>
        </linearGradient>
        <linearGradient x1="74.3834085%" y1="0%" x2="0%" y2="100%" id="linearGradient-10">
            <stop stop-color="#E68730" offset="0%"></stop>
            <stop stop-color="#912329" offset="100%"></stop>
        </linearGradient>
        <linearGradient x1="78.9264937%" y1="4.14195855%" x2="15.6104143%" y2="104.329694%" id="linearGradient-11">
            <stop stop-color="#912329" offset="0%"></stop>
            <stop stop-color="#EB8D30" offset="100%"></stop>
        </linearGradient>
        <linearGradient x1="79.0238237%" y1="95.8428009%" x2="15.7077444%" y2="-4.3449346%" id="linearGradient-12">
            <stop stop-color="#912329" offset="0%"></stop>
            <stop stop-color="#EB8D30" offset="100%"></stop>
        </linearGradient>
        <path d="M18.8080808,9.8119278 L167.257576,32.1685996 C172.451284,32.9507783 176.661616,37.7864948 176.661616,42.9694747 L176.661616,256.13431 L18.8080808,232.361378 C13.6143727,231.5792 9.4040404,226.743483 9.4040404,221.560503 L9.4040404,17.7802834 C9.4040404,12.5973035 13.6143727,9.02974914 18.8080808,9.8119278 Z" id="path-13"></path>
        <filter x="-13.2%" y="-8.9%" width="131.1%" height="121.1%" filterUnits="objectBoundingBox" id="filter-14">
            <feOffset dx="4" dy="4" in="SourceAlpha" result="shadowOffsetOuter1"></feOffset>
            <feGaussianBlur stdDeviation="8" in="shadowOffsetOuter1" result="shadowBlurOuter1"></feGaussianBlur>
            <feColorMatrix values="0 0 0 0 0.568627451   0 0 0 0 0.137254902   0 0 0 0 0.160784314  0 0 0 0.15 0" type="matrix" in="shadowBlurOuter1"></feColorMatrix>
        </filter>
        <path d="M14.1060606,4.96063646 L162.555556,27.3173083 C167.749264,28.0994869 171.959596,32.9352034 171.959596,38.1181834 L171.959596,251.283019 L14.1060606,227.510087 C8.9123525,226.727908 4.7020202,221.892192 4.7020202,216.709212 L4.7020202,12.9289921 C4.7020202,7.74601213 8.9123525,4.1784578 14.1060606,4.96063646 Z" id="path-15"></path>
        <filter x="-13.2%" y="-8.9%" width="131.1%" height="121.1%" filterUnits="objectBoundingBox" id="filter-16">
            <feOffset dx="4" dy="4" in="SourceAlpha" result="shadowOffsetOuter1"></feOffset>
            <feGaussianBlur stdDeviation="8" in="shadowOffsetOuter1" result="shadowBlurOuter1"></feGaussianBlur>
            <feColorMatrix values="0 0 0 0 0.568627451   0 0 0 0 0.137254902   0 0 0 0 0.160784314  0 0 0 0.15 0" type="matrix" in="shadowBlurOuter1"></feColorMatrix>
        </filter>
        <path d="M9.4040404,0.109345119 L157.853535,22.4660169 C163.047243,23.2481956 167.257576,28.0839121 167.257576,33.266892 L167.257576,246.431727 L9.4040404,222.658796 C4.2103323,221.876617 1.19320939e-15,217.0409 0,211.857921 L0,8.07770075 C-5.96604696e-16,2.89472079 4.2103323,-0.672833543 9.4040404,0.109345119 Z" id="path-17"></path>
        <filter x="-13.2%" y="-8.9%" width="131.1%" height="121.1%" filterUnits="objectBoundingBox" id="filter-18">
            <feOffset dx="4" dy="4" in="SourceAlpha" result="shadowOffsetOuter1"></feOffset>
            <feGaussianBlur stdDeviation="8" in="shadowOffsetOuter1" result="shadowBlurOuter1"></feGaussianBlur>
            <feColorMatrix values="0 0 0 0 0.568627451   0 0 0 0 0.137254902   0 0 0 0 0.160784314  0 0 0 0.15 0" type="matrix" in="shadowBlurOuter1"></feColorMatrix>
        </filter>
    </defs>
    <g id="AccentTranslations" stroke="none" stroke-width="1" fill="none" fill-rule="evenodd">
        <g id="AccentTranslations---Home-2" transform="translate(-869.000000, -252.000000)">
            <g id="Welcome">
                <g id="illustrations/header/2/colored" transform="translate(881.000000, 259.000000)">
                    <g id="Paper-1" opacity="0.699999988" stroke-width="1" fill-rule="evenodd" transform="translate(246.520202, 4.021978)">
                        <g id="Rectangle">
                            <use fill="black" fill-opacity="1" filter="url(#filter-2)" xlink:href="#path-1"></use>
                            <use fill="#FFFFFF" fill-rule="evenodd" xlink:href="#path-1"></use>
                        </g>
                        <g id="Rectangle">
                            <use fill="black" fill-opacity="1" filter="url(#filter-4)" xlink:href="#path-3"></use>
                            <use fill="#FFFFFF" fill-rule="evenodd" xlink:href="#path-3"></use>
                        </g>
                        <g id="Rectangle">
                            <use fill="black" fill-opacity="1" filter="url(#filter-6)" xlink:href="#path-5"></use>
                            <use fill="#FFFFFF" fill-rule="evenodd" xlink:href="#path-5"></use>
                        </g>
                        <g id="Rectangle">
                            <use fill="black" fill-opacity="1" filter="url(#filter-8)" xlink:href="#path-7"></use>
                            <use fill="#FFFFFF" fill-rule="evenodd" xlink:href="#path-7"></use>
                        </g>
                        <path d="M15.7853535,26.7759379 L64.1489899,33.1384256 C65.0764378,33.2604362 65.8282828,34.1096374 65.8282828,35.0351695 C65.8282828,35.9607016 65.0764378,36.6120846 64.1489899,36.490074 L15.7853535,30.1275862 C14.8579057,30.0055756 14.1060606,29.1563745 14.1060606,28.2308423 C14.1060606,27.3053102 14.8579057,26.6539273 15.7853535,26.7759379 Z" id="Rectangle" fill="#EB8C30"></path>
                        <path d="M73.5530303,35.0459057 L107.138889,39.4643 C108.066337,39.5863105 108.818182,40.4355117 108.818182,41.3610438 C108.818182,42.286576 108.066337,42.9379589 107.138889,42.8159483 L73.5530303,38.397554 C72.6255824,38.2755434 71.8737374,37.4263423 71.8737374,36.5008101 C71.8737374,35.575278 72.6255824,34.9238951 73.5530303,35.0459057 Z" id="Rectangle" fill="#EB8C30"></path>
                        <path d="M115.871212,39.9427528 L125.94697,41.2682711 C126.874418,41.3902817 127.626263,42.2394828 127.626263,43.165015 C127.626263,44.0905471 126.874418,44.74193 125.94697,44.6199194 L115.871212,43.2944011 C114.943764,43.1723906 114.191919,42.3231894 114.191919,41.3976573 C114.191919,40.4721251 114.943764,39.8207422 115.871212,39.9427528 Z" id="Rectangle" fill="#EB8C30"></path>
                        <path d="M15.7853535,84.4242895 L58.7752525,90.0798342 C59.7027004,90.2018448 60.4545455,91.0510459 60.4545455,91.9765781 C60.4545455,92.9021102 59.7027004,93.5534931 58.7752525,93.4314825 L15.7853535,87.7759379 C14.8579057,87.6539273 14.1060606,86.8047261 14.1060606,85.879194 C14.1060606,84.9536618 14.8579057,84.3022789 15.7853535,84.4242895 Z" id="Rectangle" fill="#EB8C30"></path>
                        <path d="M67.5075758,91.2286167 L95.719697,94.9400679 C96.6471448,95.0620785 97.3989899,95.9112796 97.3989899,96.8368118 C97.3989899,97.7623439 96.6471448,98.4137268 95.719697,98.2917162 L67.5075758,94.580265 C66.5801279,94.4582545 65.8282828,93.6090533 65.8282828,92.6835212 C65.8282828,91.757989 66.5801279,91.1066061 67.5075758,91.2286167 Z" id="Rectangle" fill="#EB8C30"></path>
                        <path d="M105.123737,96.1772183 L125.94697,98.9166227 C126.874418,99.0386333 127.626263,99.8878345 127.626263,100.813367 C127.626263,101.738899 126.874418,102.390282 125.94697,102.268271 L105.123737,99.5288666 C104.196289,99.406856 103.444444,98.5576549 103.444444,97.6321227 C103.444444,96.7065906 104.196289,96.0552077 105.123737,96.1772183 Z" id="Rectangle" fill="#EB8C30"></path>
                        <path d="M15.7853535,95.1495642 L29.8914141,97.0052898 C30.818862,97.1273004 31.5707071,97.9765016 31.5707071,98.9020337 C31.5707071,99.8275659 30.818862,100.478949 29.8914141,100.356938 L15.7853535,98.5012126 C14.8579057,98.379202 14.1060606,97.5300008 14.1060606,96.6044687 C14.1060606,95.6789366 14.8579057,95.0275537 15.7853535,95.1495642 Z" id="Rectangle" fill="#EB8C30"></path>
                        <path d="M39.2954545,98.9127699 L107.138889,107.837926 C108.066337,107.959937 108.818182,108.809138 108.818182,109.73467 C108.818182,110.660202 108.066337,111.311585 107.138889,111.189575 L39.2954545,102.264418 C38.3680067,102.142408 37.6161616,101.293206 37.6161616,100.367674 C37.6161616,99.4421422 38.3680067,98.7907593 39.2954545,98.9127699 Z" id="Rectangle" fill="#EB8C30"></path>
                        <path d="M115.871212,108.986709 L125.94697,110.312227 C126.874418,110.434238 127.626263,111.283439 127.626263,112.208971 C127.626263,113.134503 126.874418,113.785886 125.94697,113.663875 L115.871212,112.338357 C114.943764,112.216347 114.191919,111.367145 114.191919,110.441613 C114.191919,109.516081 114.943764,108.864698 115.871212,108.986709 Z" id="Rectangle" fill="#EB8C30"></path>
                        <path d="M15.7853535,107.215498 L41.3106061,110.573478 C42.2380539,110.695489 42.989899,111.54469 42.989899,112.470222 C42.989899,113.395754 42.2380539,114.047137 41.3106061,113.925126 L15.7853535,110.567147 C14.8579057,110.445136 14.1060606,109.595935 14.1060606,108.670403 C14.1060606,107.744871 14.8579057,107.093488 15.7853535,107.215498 Z" id="Rectangle" fill="#EB8C30"></path>
                        <path d="M50.7146465,111.810628 L90.3459596,117.024334 C91.2734075,117.146344 92.0252525,117.995545 92.0252525,118.921077 C92.0252525,119.84661 91.2734075,120.497993 90.3459596,120.375982 L50.7146465,115.162277 C49.7871986,115.040266 49.0353535,114.191065 49.0353535,113.265533 C49.0353535,112.340001 49.7871986,111.688618 50.7146465,111.810628 Z" id="Rectangle" fill="#EB8C30"></path>
                        <path d="M99.0782828,118.173116 L125.94697,121.707832 C126.874418,121.829842 127.626263,122.679043 127.626263,123.604575 C127.626263,124.530108 126.874418,125.18149 125.94697,125.05948 L99.0782828,121.524764 C98.150835,121.402754 97.3989899,120.553553 97.3989899,119.628021 C97.3989899,118.702488 98.150835,118.051106 99.0782828,118.173116 Z" id="Rectangle" fill="#EB8C30"></path>
                        <path d="M15.7853535,135.369344 L41.3106061,138.727324 C42.2380539,138.849335 42.989899,139.698536 42.989899,140.624068 C42.989899,141.5496 42.2380539,142.200983 41.3106061,142.078972 L15.7853535,138.720993 C14.8579057,138.598982 14.1060606,137.749781 14.1060606,136.824249 C14.1060606,135.898717 14.8579057,135.247334 15.7853535,135.369344 Z" id="Rectangle" fill="#EB8C30"></path>
                        <path d="M16.1212121,122.006935 L63.8131313,128.281055 C64.9260688,128.427468 65.8282828,129.446509 65.8282828,130.557148 L65.8282828,131.897807 C65.8282828,133.008445 64.9260688,133.790105 63.8131313,133.643692 L16.1212121,127.369572 C15.0082747,127.22316 14.1060606,126.204118 14.1060606,125.09348 L14.1060606,123.75282 C14.1060606,122.642182 15.0082747,121.860522 16.1212121,122.006935 Z" id="Rectangle" fill="#EB8C30"></path>
                        <path d="M16.1212121,14.0838581 L86.6515152,23.362486 C87.7644526,23.5088987 88.6666667,24.5279401 88.6666667,25.6385787 L88.6666667,26.979238 C88.6666667,28.0898766 87.7644526,28.8715361 86.6515152,28.7251234 L16.1212121,19.4464954 C15.0082747,19.3000827 14.1060606,18.2810413 14.1060606,17.1704028 L14.1060606,15.8297434 C14.1060606,14.7191049 15.0082747,13.9374454 16.1212121,14.0838581 Z" id="Rectangle" fill="#EB8C30"></path>
                        <path d="M50.7146465,139.964475 L101.765152,146.680434 C102.692599,146.802444 103.444444,147.651646 103.444444,148.577178 C103.444444,149.50271 102.692599,150.154093 101.765152,150.032082 L50.7146465,143.316123 C49.7871986,143.194112 49.0353535,142.344911 49.0353535,141.419379 C49.0353535,140.493847 49.7871986,139.842464 50.7146465,139.964475 Z" id="Rectangle" fill="#EB8C30"></path>
                        <path d="M110.497475,147.158887 L125.94697,149.191348 C126.874418,149.313359 127.626263,150.16256 127.626263,151.088092 C127.626263,152.013624 126.874418,152.665007 125.94697,152.542996 L110.497475,150.510535 C109.570027,150.388524 108.818182,149.539323 108.818182,148.613791 C108.818182,147.688259 109.570027,147.036876 110.497475,147.158887 Z" id="Rectangle" fill="#EB8C30"></path>
                        <path d="M15.7853535,146.764949 L58.7752525,152.420494 C59.7027004,152.542504 60.4545455,153.391705 60.4545455,154.317237 C60.4545455,155.24277 59.7027004,155.894152 58.7752525,155.772142 L15.7853535,150.116597 C14.8579057,149.994587 14.1060606,149.145385 14.1060606,148.219853 C14.1060606,147.294321 14.8579057,146.642938 15.7853535,146.764949 Z" id="Rectangle" fill="#EB8C30"></path>
                        <path d="M67.5075758,153.569276 L89.6742424,156.485416 C90.6016903,156.607427 91.3535354,157.456628 91.3535354,158.38216 C91.3535354,159.307692 90.6016903,159.959075 89.6742424,159.837065 L67.5075758,156.920924 C66.5801279,156.798914 65.8282828,155.949713 65.8282828,155.02418 C65.8282828,154.098648 66.5801279,153.447265 67.5075758,153.569276 Z" id="Rectangle" fill="#EB8C30"></path>
                        <path d="M99.0782828,157.722567 L125.94697,161.257282 C126.874418,161.379293 127.626263,162.228494 127.626263,163.154026 C127.626263,164.079558 126.874418,164.730941 125.94697,164.60893 L99.0782828,161.074215 C98.150835,160.952204 97.3989899,160.103003 97.3989899,159.177471 C97.3989899,158.251939 98.150835,157.600556 99.0782828,157.722567 Z" id="Rectangle" fill="#EB8C30"></path>
                        <path d="M15.7853535,38.1715423 L52.729798,43.031776 C53.6572459,43.1537865 54.4090909,44.0029877 54.4090909,44.9285198 C54.4090909,45.854052 53.6572459,46.5054349 52.729798,46.3834243 L15.7853535,41.5231906 C14.8579057,41.40118 14.1060606,40.5519789 14.1060606,39.6264467 C14.1060606,38.7009146 14.8579057,38.0495317 15.7853535,38.1715423 Z" id="Rectangle" fill="#EB8C30"></path>
                        <path d="M15.7853535,158.160553 L52.729798,163.020787 C53.6572459,163.142798 54.4090909,163.991999 54.4090909,164.917531 C54.4090909,165.843063 53.6572459,166.494446 52.729798,166.372435 L15.7853535,161.512202 C14.8579057,161.390191 14.1060606,160.54099 14.1060606,159.615458 C14.1060606,158.689926 14.8579057,158.038543 15.7853535,158.160553 Z" id="Rectangle" fill="#EB8C30"></path>
                        <path d="M15.7853535,169.556158 L24.5176768,170.70494 C25.4451246,170.826951 26.1969697,171.676152 26.1969697,172.601684 C26.1969697,173.527216 25.4451246,174.178599 24.5176768,174.056589 L15.7853535,172.907806 C14.8579057,172.785795 14.1060606,171.936594 14.1060606,171.011062 C14.1060606,170.08553 14.8579057,169.434147 15.7853535,169.556158 Z" id="Rectangle" fill="#EB8C30"></path>
                        <path d="M62.1338384,44.939256 L95.719697,49.3576503 C96.6471448,49.4796609 97.3989899,50.328862 97.3989899,51.2543942 C97.3989899,52.1799263 96.6471448,52.8313092 95.719697,52.7092986 L62.1338384,48.2909044 C61.2063905,48.1688938 60.4545455,47.3196926 60.4545455,46.3941605 C60.4545455,45.4686284 61.2063905,44.8172454 62.1338384,44.939256 Z" id="Rectangle" fill="#EB8C30"></path>
                        <path d="M62.1338384,164.257937 L95.719697,168.676332 C96.6471448,168.798342 97.3989899,169.647543 97.3989899,170.573076 C97.3989899,171.498608 96.6471448,172.149991 95.719697,172.02798 L62.1338384,167.609586 C61.2063905,167.487575 60.4545455,166.638374 60.4545455,165.712842 C60.4545455,164.78731 61.2063905,164.135927 62.1338384,164.257937 Z" id="Rectangle" fill="#EB8C30"></path>
                        <path d="M33.25,171.853723 L66.8358586,176.272117 C67.7633065,176.394128 68.5151515,177.243329 68.5151515,178.168861 C68.5151515,179.094393 67.7633065,179.745776 66.8358586,179.623765 L33.25,175.205371 C32.3225521,175.08336 31.5707071,174.234159 31.5707071,173.308627 C31.5707071,172.383095 32.3225521,171.731712 33.25,171.853723 Z" id="Rectangle" fill="#EB8C30"></path>
                        <path d="M105.123737,50.5948007 L125.94697,53.3342051 C126.874418,53.4562157 127.626263,54.3054169 127.626263,55.230949 C127.626263,56.1564812 126.874418,56.8078641 125.94697,56.6858535 L105.123737,53.946449 C104.196289,53.8244385 103.444444,52.9752373 103.444444,52.0497052 C103.444444,51.124173 104.196289,50.4727901 105.123737,50.5948007 Z" id="Rectangle" fill="#EB8C30"></path>
                        <path d="M105.123737,169.913482 L125.94697,172.652886 C126.874418,172.774897 127.626263,173.624098 127.626263,174.54963 C127.626263,175.475162 126.874418,176.126545 125.94697,176.004535 L105.123737,173.26513 C104.196289,173.14312 103.444444,172.293919 103.444444,171.368386 C103.444444,170.442854 104.196289,169.791471 105.123737,169.913482 Z" id="Rectangle" fill="#EB8C30"></path>
                        <path d="M121.916667,192.232569 L125.94697,192.762777 C126.874418,192.884787 127.626263,193.733988 127.626263,194.65952 C127.626263,195.585053 126.874418,196.236436 125.94697,196.114425 L121.916667,195.584218 C120.989219,195.462207 120.237374,194.613006 120.237374,193.687474 C120.237374,192.761942 120.989219,192.110559 121.916667,192.232569 Z" id="Rectangle" fill="#EB8C30"></path>
                        <path d="M76.239899,177.509267 L125.94697,184.048491 C126.874418,184.170501 127.626263,185.019703 127.626263,185.945235 C127.626263,186.870767 126.874418,187.52215 125.94697,187.400139 L76.239899,180.860916 C75.3124511,180.738905 74.5606061,179.889704 74.5606061,178.964172 C74.5606061,178.03864 75.3124511,177.387257 76.239899,177.509267 Z" id="Rectangle" fill="#EB8C30"></path>
                        <path d="M15.7853535,73.0286851 L52.729798,77.8889188 C53.6572459,78.0109294 54.4090909,78.8601306 54.4090909,79.7856627 C54.4090909,80.7111948 53.6572459,81.3625778 52.729798,81.2405672 L15.7853535,76.3803335 C14.8579057,76.2583229 14.1060606,75.4091217 14.1060606,74.4835896 C14.1060606,73.5580574 14.8579057,72.9066745 15.7853535,73.0286851 Z" id="Rectangle" fill="#EB8C30"></path>
                        <path d="M62.1338384,79.1260692 L95.719697,83.5444635 C96.6471448,83.6664741 97.3989899,84.5156752 97.3989899,85.4412074 C97.3989899,86.3667395 96.6471448,87.0181224 95.719697,86.8961118 L62.1338384,82.4777176 C61.2063905,82.355707 60.4545455,81.5065058 60.4545455,80.5809737 C60.4545455,79.6554415 61.2063905,79.0040586 62.1338384,79.1260692 Z" id="Rectangle" fill="#EB8C30"></path>
                        <path d="M105.123737,84.7816139 L125.94697,87.5210183 C126.874418,87.6430289 127.626263,88.4922301 127.626263,89.4177622 C127.626263,90.3432943 126.874418,90.9946773 125.94697,90.8726667 L105.123737,88.1332622 C104.196289,88.0112516 103.444444,87.1620505 103.444444,86.2365183 C103.444444,85.3109862 104.196289,84.6596033 105.123737,84.7816139 Z" id="Rectangle" fill="#EB8C30"></path>
                        <path d="M15.7853535,50.2374763 L70.1944444,57.395275 C71.1218923,57.5172856 71.8737374,58.3664868 71.8737374,59.2920189 C71.8737374,60.2175511 71.1218923,60.868934 70.1944444,60.7469234 L15.7853535,53.5891247 C14.8579057,53.4671141 14.1060606,52.6179129 14.1060606,51.6923808 C14.1060606,50.7668487 14.8579057,50.1154657 15.7853535,50.2374763 Z" id="Rectangle" fill="#EB8C30"></path>
                        <path d="M78.9267677,58.5440576 L89.6742424,59.9579437 C90.6016903,60.0799543 91.3535354,60.9291555 91.3535354,61.8546876 C91.3535354,62.7802197 90.6016903,63.4316027 89.6742424,63.3095921 L78.9267677,61.8957059 C77.9993198,61.7736953 77.2474747,60.9244942 77.2474747,59.998962 C77.2474747,59.0734299 77.9993198,58.422047 78.9267677,58.5440576 Z" id="Rectangle" fill="#EB8C30"></path>
                        <path d="M99.0782828,61.1950941 L125.94697,64.7298095 C126.874418,64.8518201 127.626263,65.7010213 127.626263,66.6265534 C127.626263,67.5520856 126.874418,68.2034685 125.94697,68.0814579 L99.0782828,64.5467425 C98.150835,64.4247319 97.3989899,63.5755307 97.3989899,62.6499986 C97.3989899,61.7244664 98.150835,61.0730835 99.0782828,61.1950941 Z" id="Rectangle" fill="#EB8C30"></path>
                        <path d="M15.7853535,61.6330807 L35.9368687,64.2841173 C36.8643166,64.4061279 37.6161616,65.255329 37.6161616,66.1808612 C37.6161616,67.1063933 36.8643166,67.7577762 35.9368687,67.6357656 L15.7853535,64.9847291 C14.8579057,64.8627185 14.1060606,64.0135173 14.1060606,63.0879852 C14.1060606,62.1624531 14.8579057,61.5110701 15.7853535,61.6330807 Z" id="Rectangle" fill="#EB8C30"></path>
                        <path d="M44.6691919,65.4328998 L78.2550505,69.8512941 C79.1824984,69.9733047 79.9343434,70.8225058 79.9343434,71.748038 C79.9343434,72.6735701 79.1824984,73.324953 78.2550505,73.2029424 L44.6691919,68.7845481 C43.741744,68.6625376 42.989899,67.8133364 42.989899,66.8878043 C42.989899,65.9622721 43.741744,65.3108892 44.6691919,65.4328998 Z" id="Rectangle" fill="#EB8C30"></path>
                        <path d="M87.6590909,71.0884445 L125.94697,76.1254139 C126.874418,76.2474245 127.626263,77.0966257 127.626263,78.0221578 C127.626263,78.94769 126.874418,79.5990729 125.94697,79.4770623 L87.6590909,74.4400928 C86.731643,74.3180822 85.979798,73.4688811 85.979798,72.5433489 C85.979798,71.6178168 86.731643,70.9664339 87.6590909,71.0884445 Z" id="Rectangle" fill="#EB8C30"></path>
                    </g>
                    <path d="M316.71897,28.2095817 C310.649026,22.7561705 289.530168,-14.1678221 247.222482,5.94468645 C204.914796,26.057195 233.087691,70.19408 223.229584,97.1409433" id="Path-2" stroke="url(#linearGradient-9)" stroke-width="3" stroke-linecap="round" stroke-linejoin="round" stroke-dasharray="2,17"></path>
                    <path d="M209.399957,160.208791 C197.324383,176.967033 235.003926,215.846154 219.593789,237.967033 C204.183653,260.087912 170.120245,254.725275 170.120245,254.725275" id="Path-2" stroke="url(#linearGradient-10)" stroke-width="3" stroke-linecap="round" stroke-linejoin="round" stroke-dasharray="2,17"></path>
                    <g id="brand/logo/icon-colored" transform="translate(186.737374, 106.582418)" fill-rule="evenodd" stroke-width="1">
                        <g id="Group">
                            <polyline id="Fill-142" fill="url(#linearGradient-11)" points="17.5746387 0 29.2945205 0 11.7237699 47 0 47 17.5746387 0"></polyline>
                            <polyline id="Fill-145" fill="url(#linearGradient-12)" points="17.5445205 0 29.3318479 0 46.9978539 47 35.2137842 47 17.5445205 0"></polyline>
                        </g>
                    </g>
                    <g id="Paper-2" stroke-width="1" fill-rule="evenodd" transform="translate(0.000000, 48.263736)">
                        <g id="Rectangle">
                            <use fill="black" fill-opacity="1" filter="url(#filter-14)" xlink:href="#path-13"></use>
                            <use fill="#FFFFFF" fill-rule="evenodd" xlink:href="#path-13"></use>
                        </g>
                        <g id="Rectangle">
                            <use fill="black" fill-opacity="1" filter="url(#filter-16)" xlink:href="#path-15"></use>
                            <use fill="#FFFFFF" fill-rule="evenodd" xlink:href="#path-15"></use>
                        </g>
                        <g id="Rectangle">
                            <use fill="black" fill-opacity="1" filter="url(#filter-18)" xlink:href="#path-17"></use>
                            <use fill="#FFFFFF" fill-rule="evenodd" xlink:href="#path-17"></use>
                        </g>
                        <path d="M91.3535354,42.6158724 L148.449495,51.2145923 C149.562432,51.382202 150.464646,52.418427 150.464646,53.5290656 C150.464646,54.6397041 149.562432,55.4041801 148.449495,55.2365703 L91.3535354,46.6378504 C90.2405979,46.4702407 89.3383838,45.4340157 89.3383838,44.3233772 C89.3383838,43.2127386 90.2405979,42.4482627 91.3535354,42.6158724 Z" id="Rectangle" fill="#912329"></path>
                        <path d="M40.9747475,35.0287666 L80.6060606,40.9972898 C81.7189981,41.1648995 82.6212121,42.2011245 82.6212121,43.3117631 C82.6212121,44.4224016 81.7189981,45.1868776 80.6060606,45.0192679 L40.9747475,39.0507446 C39.86181,38.8831349 38.959596,37.8469099 38.959596,36.7362714 C38.959596,35.6256328 39.86181,34.8611569 40.9747475,35.0287666 Z" id="Rectangle" fill="#912329"></path>
                        <path d="M18.8080808,31.69044 L30.2272727,33.410184 C31.3402102,33.5777937 32.2424242,34.6140187 32.2424242,35.7246573 C32.2424242,36.8352958 31.3402102,37.5997718 30.2272727,37.432162 L18.8080808,35.7124181 C17.6951434,35.5448083 16.7929293,34.5085834 16.7929293,33.3979448 C16.7929293,32.2873063 17.6951434,31.5228303 18.8080808,31.69044 Z" id="Rectangle" fill="#912329"></path>
                        <path d="M98.0707071,110.660454 L148.449495,118.247559 C149.562432,118.415169 150.464646,119.451394 150.464646,120.562033 C150.464646,121.672671 149.562432,122.437147 148.449495,122.269537 L98.0707071,114.682432 C96.9577696,114.514822 96.0555556,113.478597 96.0555556,112.367958 C96.0555556,111.25732 96.9577696,110.492844 98.0707071,110.660454 Z" id="Rectangle" fill="#912329"></path>
                        <path d="M54.4090909,104.084962 L87.3232323,109.041871 C88.4361698,109.209481 89.3383838,110.245706 89.3383838,111.356344 C89.3383838,112.466983 88.4361698,113.231459 87.3232323,113.063849 L54.4090909,108.10694 C53.2961535,107.93933 52.3939394,106.903105 52.3939394,105.792467 C52.3939394,104.681828 53.2961535,103.917352 54.4090909,104.084962 Z" id="Rectangle" fill="#912329"></path>
                        <path d="M18.8080808,98.7234071 L43.6616162,102.466379 C44.7745536,102.633989 45.6767677,103.670214 45.6767677,104.780853 C45.6767677,105.891491 44.7745536,106.655967 43.6616162,106.488357 L18.8080808,102.745385 C17.6951434,102.577775 16.7929293,101.54155 16.7929293,100.430912 C16.7929293,99.3202733 17.6951434,98.5557974 18.8080808,98.7234071 Z" id="Rectangle" fill="#912329"></path>
                        <path d="M40.9747475,115.468327 L57.7676768,117.997362 C58.8806142,118.164972 59.7828283,119.201197 59.7828283,120.311836 C59.7828283,121.422474 58.8806142,122.18695 57.7676768,122.01934 L40.9747475,119.490305 C39.86181,119.322695 38.959596,118.28647 38.959596,117.175832 C38.959596,116.065193 39.86181,115.300717 40.9747475,115.468327 Z" id="Rectangle" fill="#912329"></path>
                        <path d="M68.5151515,119.615945 L148.449495,131.654153 C149.562432,131.821762 150.464646,132.857987 150.464646,133.968626 C150.464646,135.079265 149.562432,135.84374 148.449495,135.676131 L68.5151515,123.637923 C67.4022141,123.470313 66.5,122.434088 66.5,121.32345 C66.5,120.212811 67.4022141,119.448335 68.5151515,119.615945 Z" id="Rectangle" fill="#912329"></path>
                        <path d="M18.8080808,112.13 L30.2272727,113.849744 C31.3402102,114.017354 32.2424242,115.053579 32.2424242,116.164218 C32.2424242,117.274856 31.3402102,118.039332 30.2272727,117.871722 L18.8080808,116.151978 C17.6951434,115.984369 16.7929293,114.948144 16.7929293,113.837505 C16.7929293,112.726867 17.6951434,111.962391 18.8080808,112.13 Z" id="Rectangle" fill="#912329"></path>
                        <path d="M118.222222,140.508483 L148.449495,145.060746 C149.562432,145.228356 150.464646,146.264581 150.464646,147.375219 C150.464646,148.485858 149.562432,149.250334 148.449495,149.082724 L118.222222,144.530461 C117.109285,144.362851 116.207071,143.326626 116.207071,142.215987 C116.207071,141.105349 117.109285,140.340873 118.222222,140.508483 Z" id="Rectangle" fill="#912329"></path>
                        <path d="M40.9747475,128.87492 L107.474747,138.8899 C108.587685,139.05751 109.489899,140.093735 109.489899,141.204373 C109.489899,142.315012 108.587685,143.079488 107.474747,142.911878 L40.9747475,132.896898 C39.86181,132.729289 38.959596,131.693064 38.959596,130.582425 C38.959596,129.471787 39.86181,128.707311 40.9747475,128.87492 Z" id="Rectangle" fill="#912329"></path>
                        <path d="M18.8080808,125.536594 L30.2272727,127.256338 C31.3402102,127.423948 32.2424242,128.460173 32.2424242,129.570811 C32.2424242,130.68145 31.3402102,131.445926 30.2272727,131.278316 L18.8080808,129.558572 C17.6951434,129.390962 16.7929293,128.354737 16.7929293,127.244099 C16.7929293,126.13346 17.6951434,125.368984 18.8080808,125.536594 Z" id="Rectangle" fill="#912329"></path>
                        <path d="M118.222222,173.354637 L148.449495,177.9069 C149.562432,178.07451 150.464646,179.110735 150.464646,180.221373 C150.464646,181.332012 149.562432,182.096488 148.449495,181.928878 L118.222222,177.376615 C117.109285,177.209005 116.207071,176.17278 116.207071,175.062141 C116.207071,173.951503 117.109285,173.187027 118.222222,173.354637 Z" id="Rectangle" fill="#912329"></path>
                        <path d="M18.8080808,142.294836 L75.9040404,150.893556 C77.0169779,151.061165 77.9191919,152.09739 77.9191919,153.208029 L77.9191919,155.889347 C77.9191919,156.999986 77.0169779,157.764462 75.9040404,157.596852 L18.8080808,148.998132 C17.6951434,148.830523 16.7929293,147.794298 16.7929293,146.683659 L16.7929293,144.00234 C16.7929293,142.891702 17.6951434,142.127226 18.8080808,142.294836 Z" id="Rectangle" fill="#912329"></path>
                        <path d="M18.8080808,15.6025279 L102.772727,28.2477043 C103.885665,28.415314 104.787879,29.451539 104.787879,30.5621775 L104.787879,33.2434962 C104.787879,34.3541348 103.885665,35.1186107 102.772727,34.951001 L18.8080808,22.3058247 C17.6951434,22.1382149 16.7929293,21.10199 16.7929293,19.9913514 L16.7929293,17.3100327 C16.7929293,16.1993942 17.6951434,15.4349182 18.8080808,15.6025279 Z" id="Rectangle" fill="#912329"></path>
                        <path d="M47.6919192,162.732688 L107.474747,171.736054 C108.587685,171.903664 109.489899,172.939889 109.489899,174.050527 C109.489899,175.161166 108.587685,175.925642 107.474747,175.758032 L47.6919192,166.754666 C46.5789817,166.587057 45.6767677,165.550832 45.6767677,164.440193 C45.6767677,163.329555 46.5789817,162.565079 47.6919192,162.732688 Z" id="Rectangle" fill="#912329"></path>
                        <path d="M18.8080808,158.382748 L36.9444444,161.114106 C38.0573819,161.281716 38.959596,162.317941 38.959596,163.428579 C38.959596,164.539218 38.0573819,165.303694 36.9444444,165.136084 L18.8080808,162.404726 C17.6951434,162.237116 16.7929293,161.200891 16.7929293,160.090253 C16.7929293,158.979614 17.6951434,158.215138 18.8080808,158.382748 Z" id="Rectangle" fill="#912329"></path>
                        <path d="M98.0707071,183.726388 L148.449495,191.313493 C149.562432,191.481103 150.464646,192.517328 150.464646,193.627967 C150.464646,194.738605 149.562432,195.503081 148.449495,195.335471 L98.0707071,187.748366 C96.9577696,187.580756 96.0555556,186.544531 96.0555556,185.433892 C96.0555556,184.323254 96.9577696,183.558778 98.0707071,183.726388 Z" id="Rectangle" fill="#912329"></path>
                        <path d="M61.1262626,178.16251 L87.3232323,182.107805 C88.4361698,182.275415 89.3383838,183.31164 89.3383838,184.422278 C89.3383838,185.532917 88.4361698,186.297393 87.3232323,186.129783 L61.1262626,182.184488 C60.0133252,182.016878 59.1111111,180.980653 59.1111111,179.870015 C59.1111111,178.759376 60.0133252,177.9949 61.1262626,178.16251 Z" id="Rectangle" fill="#912329"></path>
                        <path d="M18.8080808,171.789341 L50.3787879,176.543927 C51.4917253,176.711537 52.3939394,177.747762 52.3939394,178.858401 C52.3939394,179.969039 51.4917253,180.733515 50.3787879,180.565905 L18.8080808,175.811319 C17.6951434,175.643709 16.7929293,174.607484 16.7929293,173.496846 C16.7929293,172.386207 17.6951434,171.621731 18.8080808,171.789341 Z" id="Rectangle" fill="#912329"></path>
                        <path d="M104.787879,58.045694 L148.449495,64.6211857 C149.562432,64.7887954 150.464646,65.8250204 150.464646,66.935659 C150.464646,68.0462975 149.562432,68.8107735 148.449495,68.6431638 L104.787879,62.067672 C103.674941,61.9000623 102.772727,60.8638374 102.772727,59.7531988 C102.772727,58.6425602 103.674941,57.8780843 104.787879,58.045694 Z" id="Rectangle" fill="#912329"></path>
                        <path d="M104.787879,198.144595 L148.449495,204.720087 C149.562432,204.887697 150.464646,205.923922 150.464646,207.03456 C150.464646,208.145199 149.562432,208.909675 148.449495,208.742065 L104.787879,202.166573 C103.674941,201.998963 102.772727,200.962738 102.772727,199.8521 C102.772727,198.741461 103.674941,197.976985 104.787879,198.144595 Z" id="Rectangle" fill="#912329"></path>
                        <path d="M88.6666667,209.123315 L98.7424242,210.640736 C99.8553617,210.808346 100.757576,211.844571 100.757576,212.955209 C100.757576,214.065848 99.8553617,214.830324 98.7424242,214.662714 L88.6666667,213.145293 C87.5537292,212.977683 86.6515152,211.941458 86.6515152,210.830819 C86.6515152,209.720181 87.5537292,208.955705 88.6666667,209.123315 Z" id="Rectangle" fill="#912329"></path>
                        <path d="M54.4090909,50.4585882 L94.040404,56.4271115 C95.1533415,56.5947212 96.0555556,57.6309461 96.0555556,58.7415847 C96.0555556,59.8522233 95.1533415,60.6166992 94.040404,60.4490895 L54.4090909,54.4805662 C53.2961535,54.3129565 52.3939394,53.2767316 52.3939394,52.166093 C52.3939394,51.0554544 53.2961535,50.2909785 54.4090909,50.4585882 Z" id="Rectangle" fill="#912329"></path>
                        <path d="M54.4090909,190.557489 L94.040404,196.526013 C95.1533415,196.693622 96.0555556,197.729847 96.0555556,198.840486 C96.0555556,199.951124 95.1533415,200.7156 94.040404,200.547991 L54.4090909,194.579467 C53.2961535,194.411858 52.3939394,193.375633 52.3939394,192.264994 C52.3939394,191.154356 53.2961535,190.38988 54.4090909,190.557489 Z" id="Rectangle" fill="#912329"></path>
                        <path d="M108.818182,212.158157 L148.449495,218.12668 C149.562432,218.29429 150.464646,219.330515 150.464646,220.441153 C150.464646,221.551792 149.562432,222.316268 148.449495,222.148658 L108.818182,216.180135 C107.705244,216.012525 106.80303,214.9763 106.80303,213.865662 C106.80303,212.755023 107.705244,211.990547 108.818182,212.158157 Z" id="Rectangle" fill="#912329"></path>
                        <path d="M18.8080808,45.0970334 L43.6616162,48.8400056 C44.7745536,49.0076154 45.6767677,50.0438403 45.6767677,51.1544789 C45.6767677,52.2651174 44.7745536,53.0295934 43.6616162,52.8619837 L18.8080808,49.1190115 C17.6951434,48.9514018 16.7929293,47.9151768 16.7929293,46.8045382 C16.7929293,45.6938997 17.6951434,44.9294237 18.8080808,45.0970334 Z" id="Rectangle" fill="#912329"></path>
                        <path d="M18.8080808,185.195935 L43.6616162,188.938907 C44.7745536,189.106516 45.6767677,190.142741 45.6767677,191.25338 C45.6767677,192.364019 44.7745536,193.128494 43.6616162,192.960885 L18.8080808,189.217913 C17.6951434,189.050303 16.7929293,188.014078 16.7929293,186.903439 C16.7929293,185.792801 17.6951434,185.028325 18.8080808,185.195935 Z" id="Rectangle" fill="#912329"></path>
                        <path d="M143.747475,228.814155 L148.449495,229.522285 C149.562432,229.689894 150.464646,230.726119 150.464646,231.836758 C150.464646,232.947396 149.562432,233.711872 148.449495,233.544263 L143.747475,232.836133 C142.634537,232.668523 141.732323,231.632298 141.732323,230.52166 C141.732323,229.411021 142.634537,228.646545 143.747475,228.814155 Z" id="Rectangle" fill="#912329"></path>
                        <path d="M18.8080808,198.602528 L77.2474747,207.403571 C78.3604122,207.57118 79.2626263,208.607405 79.2626263,209.718044 C79.2626263,210.828682 78.3604122,211.593158 77.2474747,211.425549 L18.8080808,202.624506 C17.6951434,202.456896 16.7929293,201.420671 16.7929293,200.310033 C16.7929293,199.199394 17.6951434,198.434918 18.8080808,198.602528 Z" id="Rectangle" fill="#912329"></path>
                        <path d="M104.787879,98.2654742 L148.449495,104.840966 C149.562432,105.008576 150.464646,106.044801 150.464646,107.155439 C150.464646,108.266078 149.562432,109.030554 148.449495,108.862944 L104.787879,102.287452 C103.674941,102.119843 102.772727,101.083618 102.772727,99.972979 C102.772727,98.8623405 103.674941,98.0978645 104.787879,98.2654742 Z" id="Rectangle" fill="#912329"></path>
                        <path d="M54.4090909,90.6783684 L94.040404,96.6468917 C95.1533415,96.8145014 96.0555556,97.8507264 96.0555556,98.9613649 C96.0555556,100.072003 95.1533415,100.836479 94.040404,100.66887 L54.4090909,94.7003465 C53.2961535,94.5327367 52.3939394,93.4965118 52.3939394,92.3858732 C52.3939394,91.2752347 53.2961535,90.5107587 54.4090909,90.6783684 Z" id="Rectangle" fill="#912329"></path>
                        <path d="M18.8080808,85.3168137 L43.6616162,89.0597859 C44.7745536,89.2273956 45.6767677,90.2636205 45.6767677,91.3742591 C45.6767677,92.4848977 44.7745536,93.2493736 43.6616162,93.0817639 L18.8080808,89.3387917 C17.6951434,89.171182 16.7929293,88.134957 16.7929293,87.0243184 C16.7929293,85.9136799 17.6951434,85.1492039 18.8080808,85.3168137 Z" id="Rectangle" fill="#912329"></path>
                        <path d="M84.6363636,68.4174451 L148.449495,78.0277791 C149.562432,78.1953889 150.464646,79.2316138 150.464646,80.3422524 C150.464646,81.4528909 149.562432,82.2173669 148.449495,82.0497572 L84.6363636,72.4394231 C83.5234262,72.2718134 82.6212121,71.2355885 82.6212121,70.1249499 C82.6212121,69.0143113 83.5234262,68.2498354 84.6363636,68.4174451 Z" id="Rectangle" fill="#912329"></path>
                        <path d="M61.1262626,64.8767957 L73.8888889,66.7988625 C75.0018263,66.9664722 75.9040404,68.0026972 75.9040404,69.1133358 C75.9040404,70.2239743 75.0018263,70.9884503 73.8888889,70.8208406 L61.1262626,68.8987738 C60.0133252,68.731164 59.1111111,67.6949391 59.1111111,66.5843005 C59.1111111,65.4736619 60.0133252,64.709186 61.1262626,64.8767957 Z" id="Rectangle" fill="#912329"></path>
                        <path d="M18.8080808,58.5036268 L50.3787879,63.2582132 C51.4917253,63.4258229 52.3939394,64.4620478 52.3939394,65.5726864 C52.3939394,66.683325 51.4917253,67.4478009 50.3787879,67.2801912 L18.8080808,62.5256049 C17.6951434,62.3579952 16.7929293,61.3217702 16.7929293,60.2111316 C16.7929293,59.1004931 17.6951434,58.3360171 18.8080808,58.5036268 Z" id="Rectangle" fill="#912329"></path>
                        <path d="M124.939394,87.8937232 L148.449495,91.4343725 C149.562432,91.6019823 150.464646,92.6382072 150.464646,93.7488458 C150.464646,94.8594843 149.562432,95.6239603 148.449495,95.4563506 L124.939394,91.9157012 C123.826456,91.7480915 122.924242,90.7118665 122.924242,89.6012279 C122.924242,88.4905894 123.826456,87.7261135 124.939394,87.8937232 Z" id="Rectangle" fill="#912329"></path>
                        <path d="M74.5606061,80.3066174 L114.191919,86.2751406 C115.304857,86.4427503 116.207071,87.4789753 116.207071,88.5896138 C116.207071,89.7002524 115.304857,90.4647283 114.191919,90.2971186 L74.5606061,84.3285954 C73.4476686,84.1609857 72.5454545,83.1247607 72.5454545,82.0141221 C72.5454545,80.9034836 73.4476686,80.1390076 74.5606061,80.3066174 Z" id="Rectangle" fill="#912329"></path>
                        <path d="M18.8080808,71.9102203 L63.8131313,78.6880348 C64.9260688,78.8556445 65.8282828,79.8918695 65.8282828,81.002508 C65.8282828,82.1131466 64.9260688,82.8776225 63.8131313,82.7100128 L18.8080808,75.9321983 C17.6951434,75.7645886 16.7929293,74.7283636 16.7929293,73.617725 C16.7929293,72.5070865 17.6951434,71.7426105 18.8080808,71.9102203 Z" id="Rectangle" fill="#912329"></path>
                    </g>
                </g>
            </g>
        </g>
    </g>
</svg>