<?xml version="1.0" encoding="UTF-8"?>
<svg width="95px" height="113px" viewBox="0 0 95 113" version="1.1" xmlns="http://www.w3.org/2000/svg" xmlns:xlink="http://www.w3.org/1999/xlink">
    <!-- Generator: Sketch 52.3 (67297) - http://www.bohemiancoding.com/sketch -->
    <title>paper-search</title>
    <desc>Created with Sketch.</desc>
    <defs>
        <path d="M6.06844106,3.17208795 L53.9657795,10.3997531 C55.6415332,10.6526229 57,12.2159566 57,13.8915568 L57,82.805395 L6.06844106,75.1198686 C4.39268734,74.8669989 3.03422053,73.3036651 3.03422053,71.6280649 L3.03422053,5.74816936 C3.03422053,4.07256915 4.39268734,2.91921822 6.06844106,3.17208795 Z" id="path-1"></path>
        <filter x="-40.8%" y="-27.6%" width="196.4%" height="165.3%" filterUnits="objectBoundingBox" id="filter-2">
            <feOffset dx="4" dy="4" in="SourceAlpha" result="shadowOffsetOuter1"></feOffset>
            <feGaussianBlur stdDeviation="8" in="shadowOffsetOuter1" result="shadowBlurOuter1"></feGaussianBlur>
            <feColorMatrix values="0 0 0 0 0.568627451   0 0 0 0 0.137254902   0 0 0 0 0.160784314  0 0 0 0.1 0" type="matrix" in="shadowBlurOuter1"></feColorMatrix>
        </filter>
        <path d="M4.5513308,1.60371901 L52.4486692,8.83138421 C54.1244229,9.08425393 55.4828897,10.6475877 55.4828897,12.3231879 L55.4828897,81.237026 L4.5513308,73.5514997 C2.87557707,73.29863 1.51711027,71.7352962 1.51711027,70.059696 L1.51711027,4.17980042 C1.51711027,2.50420022 2.87557707,1.35084928 4.5513308,1.60371901 Z" id="path-3"></path>
        <filter x="-40.8%" y="-27.6%" width="196.4%" height="165.3%" filterUnits="objectBoundingBox" id="filter-4">
            <feOffset dx="4" dy="4" in="SourceAlpha" result="shadowOffsetOuter1"></feOffset>
            <feGaussianBlur stdDeviation="8" in="shadowOffsetOuter1" result="shadowBlurOuter1"></feGaussianBlur>
            <feColorMatrix values="0 0 0 0 0.568627451   0 0 0 0 0.137254902   0 0 0 0 0.160784314  0 0 0 0.1 0" type="matrix" in="shadowBlurOuter1"></feColorMatrix>
        </filter>
        <path d="M3.03422053,0.0353500701 L50.9315589,7.26301527 C52.6073127,7.515885 53.9657795,9.07921876 53.9657795,10.754819 L53.9657795,79.6686571 L3.03422053,71.9831307 C1.3584668,71.730261 3.84989885e-16,70.1669273 0,68.491327 L0,2.61143148 C-1.92494943e-16,0.935831278 1.3584668,-0.217519657 3.03422053,0.0353500701 Z" id="path-5"></path>
        <filter x="-40.8%" y="-27.6%" width="196.4%" height="165.3%" filterUnits="objectBoundingBox" id="filter-6">
            <feOffset dx="4" dy="4" in="SourceAlpha" result="shadowOffsetOuter1"></feOffset>
            <feGaussianBlur stdDeviation="8" in="shadowOffsetOuter1" result="shadowBlurOuter1"></feGaussianBlur>
            <feColorMatrix values="0 0 0 0 0.568627451   0 0 0 0 0.137254902   0 0 0 0 0.160784314  0 0 0 0.1 0" type="matrix" in="shadowBlurOuter1"></feColorMatrix>
        </filter>
        <path d="M27.5,55 C12.3121694,55 0,42.6878306 0,27.5 C0,12.3121694 12.3121694,0 27.5,0 C42.6878306,0 55,12.3121694 55,27.5 C55,42.6878306 42.6878306,55 27.5,55 Z M27.5,47.1428571 C38.3484504,47.1428571 47.1428571,38.3484504 47.1428571,27.5 C47.1428571,16.6515496 38.3484504,7.85714286 27.5,7.85714286 C16.6515496,7.85714286 7.85714286,16.6515496 7.85714286,27.5 C7.85714286,38.3484504 16.6515496,47.1428571 27.5,47.1428571 Z" id="path-7"></path>
        <filter x="-10.9%" y="-10.9%" width="121.8%" height="121.8%" filterUnits="objectBoundingBox" id="filter-8">
            <feOffset dx="0" dy="0" in="SourceAlpha" result="shadowOffsetOuter1"></feOffset>
            <feGaussianBlur stdDeviation="2" in="shadowOffsetOuter1" result="shadowBlurOuter1"></feGaussianBlur>
            <feColorMatrix values="0 0 0 0 0   0 0 0 0 0   0 0 0 0 0  0 0 0 0.2 0" type="matrix" in="shadowBlurOuter1"></feColorMatrix>
        </filter>
    </defs>
    <g id="AccentTranslations" stroke="none" stroke-width="1" fill="none" fill-rule="evenodd">
        <g id="AccentTranslations---Home-2" transform="translate(-1112.000000, -2612.000000)">
            <g id="paper-search" transform="translate(1124.000000, 2623.000000)">
                <g id="ui/icon/paper" transform="translate(-0.000000, 0.000000)">
                    <g id="Rectangle">
                        <use fill="black" fill-opacity="1" filter="url(#filter-2)" xlink:href="#path-1"></use>
                        <use fill="#FFFFFF" fill-rule="evenodd" xlink:href="#path-1"></use>
                    </g>
                    <g id="Rectangle">
                        <use fill="black" fill-opacity="1" filter="url(#filter-4)" xlink:href="#path-3"></use>
                        <use fill="#FFFFFF" fill-rule="evenodd" xlink:href="#path-3"></use>
                    </g>
                    <g id="Rectangle">
                        <use fill="black" fill-opacity="1" filter="url(#filter-6)" xlink:href="#path-5"></use>
                        <use fill="#FFFFFF" fill-rule="evenodd" xlink:href="#path-5"></use>
                    </g>
                    <path d="M29.4752852,13.7772411 L47.8973384,16.5571123 C48.2564285,16.6112987 48.5475285,16.9462988 48.5475285,17.305356 C48.5475285,17.6644132 48.2564285,17.9115598 47.8973384,17.8573734 L29.4752852,15.0775022 C29.1161951,15.0233158 28.8250951,14.6883158 28.8250951,14.3292586 C28.8250951,13.9702014 29.1161951,13.7230547 29.4752852,13.7772411 Z" id="Rectangle" fill="#912329" fill-rule="evenodd"></path>
                    <path d="M13.2205323,11.3244136 L26.0076046,13.2539712 C26.3666946,13.3081576 26.6577947,13.6431577 26.6577947,14.0022149 C26.6577947,14.3612721 26.3666946,14.6084187 26.0076046,14.5542323 L13.2205323,12.6246747 C12.8614422,12.5704883 12.5703422,12.2354882 12.5703422,11.876431 C12.5703422,11.5173738 12.8614422,11.2702272 13.2205323,11.3244136 Z" id="Rectangle" fill="#912329" fill-rule="evenodd"></path>
                    <path d="M6.06844106,10.2451694 L9.75285171,10.8011437 C10.1119418,10.8553301 10.4030418,11.1903301 10.4030418,11.5493873 C10.4030418,11.9084445 10.1119418,12.1555912 9.75285171,12.1014048 L6.06844106,11.5454305 C5.70935098,11.4912442 5.41825095,11.1562441 5.41825095,10.7971869 C5.41825095,10.4381297 5.70935098,10.1909831 6.06844106,10.2451694 Z" id="Rectangle" fill="#912329" fill-rule="evenodd"></path>
                    <path d="M31.6425856,35.7753031 L47.8973384,38.2281306 C48.2564285,38.282317 48.5475285,38.6173171 48.5475285,38.9763743 C48.5475285,39.3354315 48.2564285,39.5825781 47.8973384,39.5283917 L31.6425856,37.0755642 C31.2834955,37.0213778 30.9923954,36.6863777 30.9923954,36.3273205 C30.9923954,35.9682633 31.2834955,35.7211167 31.6425856,35.7753031 Z" id="Rectangle" fill="#912329" fill-rule="evenodd"></path>
                    <path d="M17.5551331,33.6495192 L28.1749049,35.2520332 C28.533995,35.3062196 28.8250951,35.6412197 28.8250951,36.0002768 C28.8250951,36.359334 28.533995,36.6064807 28.1749049,36.5522943 L17.5551331,34.9497803 C17.196043,34.8955939 16.904943,34.5605938 16.904943,34.2015366 C16.904943,33.8424794 17.196043,33.5953328 17.5551331,33.6495192 Z" id="Rectangle" fill="#912329" fill-rule="evenodd"></path>
                    <path d="M6.06844106,31.9161877 L14.0874525,33.1262493 C14.4465426,33.1804357 14.7376426,33.5154358 14.7376426,33.874493 C14.7376426,34.2335501 14.4465426,34.4806968 14.0874525,34.4265104 L6.06844106,33.2164488 C5.70935098,33.1622624 5.41825095,32.8272623 5.41825095,32.4682052 C5.41825095,32.109148 5.70935098,31.8620013 6.06844106,31.9161877 Z" id="Rectangle" fill="#912329" fill-rule="evenodd"></path>
                    <path d="M13.2205323,37.3296355 L18.6387833,38.1472447 C18.9978734,38.2014311 19.2889734,38.5364311 19.2889734,38.8954883 C19.2889734,39.2545455 18.9978734,39.5016921 18.6387833,39.4475058 L13.2205323,38.6298966 C12.8614422,38.5757102 12.5703422,38.2407101 12.5703422,37.8816529 C12.5703422,37.5225958 12.8614422,37.2754491 13.2205323,37.3296355 Z" id="Rectangle" fill="#912329" fill-rule="evenodd"></path>
                    <path d="M22.1064639,38.6705146 L47.8973384,42.5623343 C48.2564285,42.6165207 48.5475285,42.9515207 48.5475285,43.3105779 C48.5475285,43.6696351 48.2564285,43.9167817 47.8973384,43.8625954 L22.1064639,39.9707757 C21.7473738,39.9165893 21.4562738,39.5815892 21.4562738,39.222532 C21.4562738,38.8634748 21.7473738,38.6163282 22.1064639,38.6705146 Z" id="Rectangle" fill="#912329" fill-rule="evenodd"></path>
                    <path d="M6.06844106,36.2503914 L9.75285171,36.8063656 C10.1119418,36.860552 10.4030418,37.1955521 10.4030418,37.5546093 C10.4030418,37.9136665 10.1119418,38.1608131 9.75285171,38.1066267 L6.06844106,37.5506525 C5.70935098,37.4964661 5.41825095,37.161466 5.41825095,36.8024088 C5.41825095,36.4433516 5.70935098,36.196205 6.06844106,36.2503914 Z" id="Rectangle" fill="#912329" fill-rule="evenodd"></path>
                    <path d="M38.1444867,45.4248414 L47.8973384,46.8965379 C48.2564285,46.9507243 48.5475285,47.2857244 48.5475285,47.6447816 C48.5475285,48.0038388 48.2564285,48.2509854 47.8973384,48.196799 L38.1444867,46.7251025 C37.7853966,46.6709161 37.4942966,46.335916 37.4942966,45.9768588 C37.4942966,45.6178017 37.7853966,45.370655 38.1444867,45.4248414 Z" id="Rectangle" fill="#912329" fill-rule="evenodd"></path>
                    <path d="M13.2205323,41.6638392 L34.6768061,44.9015715 C35.0358962,44.9557579 35.3269962,45.290758 35.3269962,45.6498152 C35.3269962,46.0088724 35.0358962,46.256019 34.6768061,46.2018326 L13.2205323,42.9641002 C12.8614422,42.9099139 12.5703422,42.5749138 12.5703422,42.2158566 C12.5703422,41.8567994 12.8614422,41.6096528 13.2205323,41.6638392 Z" id="Rectangle" fill="#912329" fill-rule="evenodd"></path>
                    <path d="M6.06844106,40.584595 L9.75285171,41.1405693 C10.1119418,41.1947556 10.4030418,41.5297557 10.4030418,41.8888129 C10.4030418,42.2478701 10.1119418,42.4950167 9.75285171,42.4408304 L6.06844106,41.8848561 C5.70935098,41.8306698 5.41825095,41.4956697 5.41825095,41.1366125 C5.41825095,40.7775553 5.70935098,40.5304087 6.06844106,40.584595 Z" id="Rectangle" fill="#912329" fill-rule="evenodd"></path>
                    <path d="M38.1444867,56.0436404 L47.8973384,57.5153369 C48.2564285,57.5695233 48.5475285,57.9045234 48.5475285,58.2635805 C48.5475285,58.6226377 48.2564285,58.8697844 47.8973384,58.815598 L38.1444867,57.3439015 C37.7853966,57.2897151 37.4942966,56.954715 37.4942966,56.5956578 C37.4942966,56.2366006 37.7853966,55.989454 38.1444867,56.0436404 Z" id="Rectangle" fill="#912329" fill-rule="evenodd"></path>
                    <path d="M6.06844106,46.0023496 L24.4904943,48.7822208 C24.8495844,48.8364072 25.1406844,49.1714073 25.1406844,49.5304645 L25.1406844,50.3973052 C25.1406844,50.7563624 24.8495844,51.003509 24.4904943,50.9493227 L6.06844106,48.1694514 C5.70935098,48.1152651 5.41825095,47.780265 5.41825095,47.4212078 L5.41825095,46.554367 C5.41825095,46.1953099 5.70935098,45.9481632 6.06844106,46.0023496 Z" id="Rectangle" fill="#912329" fill-rule="evenodd"></path>
                    <path d="M6.06844106,5.04412505 L33.1596958,9.13217098 C33.5187859,9.18635735 33.8098859,9.52135744 33.8098859,9.88041463 L33.8098859,10.7472554 C33.8098859,11.1063125 33.5187859,11.3534592 33.1596958,11.2992728 L6.06844106,7.21122688 C5.70935098,7.15704051 5.41825095,6.82204042 5.41825095,6.46298323 L5.41825095,5.5961425 C5.41825095,5.23708531 5.70935098,4.98993868 6.06844106,5.04412505 Z" id="Rectangle" fill="#912329" fill-rule="evenodd"></path>
                    <path d="M15.3878327,52.6096818 L34.6768061,55.5203705 C35.0358962,55.5745569 35.3269962,55.9095569 35.3269962,56.2686141 C35.3269962,56.6276713 35.0358962,56.8748179 34.6768061,56.8206316 L15.3878327,53.9099429 C15.0287426,53.8557565 14.7376426,53.5207564 14.7376426,53.1616992 C14.7376426,52.802642 15.0287426,52.5554954 15.3878327,52.6096818 Z" id="Rectangle" fill="#912329" fill-rule="evenodd"></path>
                    <path d="M6.06844106,51.203394 L11.9201521,52.0864119 C12.2792422,52.1405983 12.5703422,52.4755984 12.5703422,52.8346556 C12.5703422,53.1937127 12.2792422,53.4408594 11.9201521,53.386673 L6.06844106,52.5036551 C5.70935098,52.4494687 5.41825095,52.1144686 5.41825095,51.7554114 C5.41825095,51.3963542 5.70935098,51.1492076 6.06844106,51.203394 Z" id="Rectangle" fill="#912329" fill-rule="evenodd"></path>
                    <path d="M31.6425856,59.396713 L47.8973384,61.8495405 C48.2564285,61.9037269 48.5475285,62.238727 48.5475285,62.5977842 C48.5475285,62.9568414 48.2564285,63.203988 47.8973384,63.1498016 L31.6425856,60.6969741 C31.2834955,60.6427877 30.9923954,60.3077876 30.9923954,59.9487304 C30.9923954,59.5896733 31.2834955,59.3425266 31.6425856,59.396713 Z" id="Rectangle" fill="#912329" fill-rule="evenodd"></path>
                    <path d="M19.7224335,57.5979728 L28.1749049,58.8734431 C28.533995,58.9276295 28.8250951,59.2626296 28.8250951,59.6216868 C28.8250951,59.980744 28.533995,60.2278906 28.1749049,60.1737042 L19.7224335,58.8982339 C19.3633434,58.8440475 19.0722433,58.5090474 19.0722433,58.1499902 C19.0722433,57.790933 19.3633434,57.5437864 19.7224335,57.5979728 Z" id="Rectangle" fill="#912329" fill-rule="evenodd"></path>
                    <path d="M6.06844106,55.5375976 L16.2547529,57.0747029 C16.6138429,57.1288893 16.904943,57.4638894 16.904943,57.8229466 C16.904943,58.1820037 16.6138429,58.4291504 16.2547529,58.374964 L6.06844106,56.8378587 C5.70935098,56.7836724 5.41825095,56.4486723 5.41825095,56.0896151 C5.41825095,55.7305579 5.70935098,55.4834113 6.06844106,55.5375976 Z" id="Rectangle" fill="#912329" fill-rule="evenodd"></path>
                    <path d="M33.8098859,18.7655321 L47.8973384,20.891316 C48.2564285,20.9455024 48.5475285,21.2805025 48.5475285,21.6395597 C48.5475285,21.9986168 48.2564285,22.2457635 47.8973384,22.1915771 L33.8098859,20.0657932 C33.4507958,20.0116068 33.1596958,19.6766068 33.1596958,19.3175496 C33.1596958,18.9584924 33.4507958,18.7113458 33.8098859,18.7655321 Z" id="Rectangle" fill="#912329" fill-rule="evenodd"></path>
                    <path d="M33.8098859,64.0579603 L47.8973384,66.1837442 C48.2564285,66.2379306 48.5475285,66.5729307 48.5475285,66.9319879 C48.5475285,67.291045 48.2564285,67.5381917 47.8973384,67.4840053 L33.8098859,65.3582214 C33.4507958,65.304035 33.1596958,64.969035 33.1596958,64.6099778 C33.1596958,64.2509206 33.4507958,64.003774 33.8098859,64.0579603 Z" id="Rectangle" fill="#912329" fill-rule="evenodd"></path>
                    <path d="M28.608365,67.6072592 L31.8593156,68.0978247 C32.2184057,68.152011 32.5095057,68.4870111 32.5095057,68.8460683 C32.5095057,69.2051255 32.2184057,69.4522721 31.8593156,69.3980858 L28.608365,68.9075203 C28.2492749,68.8533339 27.9581749,68.5183338 27.9581749,68.1592766 C27.9581749,67.8002194 28.2492749,67.5530728 28.608365,67.6072592 Z" id="Rectangle" fill="#912329" fill-rule="evenodd"></path>
                    <path d="M17.5551331,16.3127046 L30.3422053,18.2422622 C30.7012954,18.2964486 30.9923954,18.6314487 30.9923954,18.9905059 C30.9923954,19.3495631 30.7012954,19.5967097 30.3422053,19.5425233 L17.5551331,17.6129657 C17.196043,17.5587793 16.904943,17.2237792 16.904943,16.864722 C16.904943,16.5056648 17.196043,16.2585182 17.5551331,16.3127046 Z" id="Rectangle" fill="#912329" fill-rule="evenodd"></path>
                    <path d="M17.5551331,61.6051328 L30.3422053,63.5346904 C30.7012954,63.5888768 30.9923954,63.9238769 30.9923954,64.2829341 C30.9923954,64.6419913 30.7012954,64.8891379 30.3422053,64.8349515 L17.5551331,62.9053939 C17.196043,62.8512075 16.904943,62.5162074 16.904943,62.1571502 C16.904943,61.798093 17.196043,61.5509464 17.5551331,61.6051328 Z" id="Rectangle" fill="#912329" fill-rule="evenodd"></path>
                    <path d="M35.1102662,68.5883902 L47.8973384,70.5179479 C48.2564285,70.5721342 48.5475285,70.9071343 48.5475285,71.2661915 C48.5475285,71.6252487 48.2564285,71.8723953 47.8973384,71.818209 L35.1102662,69.8886513 C34.7511761,69.8344649 34.460076,69.4994648 34.460076,69.1404076 C34.460076,68.7813504 34.7511761,68.5342038 35.1102662,68.5883902 Z" id="Rectangle" fill="#912329" fill-rule="evenodd"></path>
                    <path d="M6.06844106,14.5793731 L14.0874525,15.7894347 C14.4465426,15.8436211 14.7376426,16.1786212 14.7376426,16.5376783 C14.7376426,16.8967355 14.4465426,17.1438822 14.0874525,17.0896958 L6.06844106,15.8796342 C5.70935098,15.8254478 5.41825095,15.4904477 5.41825095,15.1313905 C5.41825095,14.7723334 5.70935098,14.5251867 6.06844106,14.5793731 Z" id="Rectangle" fill="#912329" fill-rule="evenodd"></path>
                    <path d="M6.06844106,59.8718013 L14.0874525,61.0818629 C14.4465426,61.1360493 14.7376426,61.4710493 14.7376426,61.8301065 C14.7376426,62.1891637 14.4465426,62.4363104 14.0874525,62.382124 L6.06844106,61.1720624 C5.70935098,61.117876 5.41825095,60.7828759 5.41825095,60.4238187 C5.41825095,60.0647616 5.70935098,59.8176149 6.06844106,59.8718013 Z" id="Rectangle" fill="#912329" fill-rule="evenodd"></path>
                    <path d="M46.3802281,73.9730904 L47.8973384,74.202021 C48.2564285,74.2562073 48.5475285,74.5912074 48.5475285,74.9502646 C48.5475285,75.3093218 48.2564285,75.5564684 47.8973384,75.5022821 L46.3802281,75.2733515 C46.0211381,75.2191651 45.730038,74.884165 45.730038,74.5251078 C45.730038,74.1660507 46.0211381,73.918904 46.3802281,73.9730904 Z" id="Rectangle" fill="#912329" fill-rule="evenodd"></path>
                    <path d="M6.06844106,64.2060049 L24.9239544,67.0512849 C25.2830445,67.1054713 25.5741445,67.4404714 25.5741445,67.7995286 C25.5741445,68.1585858 25.2830445,68.4057324 24.9239544,68.351546 L6.06844106,65.506266 C5.70935098,65.4520797 5.41825095,65.1170796 5.41825095,64.7580224 C5.41825095,64.3989652 5.70935098,64.1518186 6.06844106,64.2060049 Z" id="Rectangle" fill="#912329" fill-rule="evenodd"></path>
                    <path d="M33.8098859,31.7681431 L47.8973384,33.893927 C48.2564285,33.9481133 48.5475285,34.2831134 48.5475285,34.6421706 C48.5475285,35.0012278 48.2564285,35.2483744 47.8973384,35.1941881 L33.8098859,33.0684042 C33.4507958,33.0142178 33.1596958,32.6792177 33.1596958,32.3201605 C33.1596958,31.9611033 33.4507958,31.7139567 33.8098859,31.7681431 Z" id="Rectangle" fill="#912329" fill-rule="evenodd"></path>
                    <path d="M17.5551331,29.3153155 L30.3422053,31.2448732 C30.7012954,31.2990596 30.9923954,31.6340597 30.9923954,31.9931169 C30.9923954,32.352174 30.7012954,32.5993207 30.3422053,32.5451343 L17.5551331,30.6155766 C17.196043,30.5613903 16.904943,30.2263902 16.904943,29.867333 C16.904943,29.5082758 17.196043,29.2611292 17.5551331,29.3153155 Z" id="Rectangle" fill="#912329" fill-rule="evenodd"></path>
                    <path d="M6.06844106,27.5819841 L14.0874525,28.7920457 C14.4465426,28.846232 14.7376426,29.1812321 14.7376426,29.5402893 C14.7376426,29.8993465 14.4465426,30.1464931 14.0874525,30.0923068 L6.06844106,28.8822452 C5.70935098,28.8280588 5.41825095,28.4930587 5.41825095,28.1340015 C5.41825095,27.7749443 5.70935098,27.5277977 6.06844106,27.5819841 Z" id="Rectangle" fill="#912329" fill-rule="evenodd"></path>
                    <path d="M27.3079848,22.1186048 L47.8973384,25.2255197 C48.2564285,25.279706 48.5475285,25.6147061 48.5475285,25.9737633 C48.5475285,26.3328205 48.2564285,26.5799671 47.8973384,26.5257808 L27.3079848,23.4188659 C26.9488947,23.3646795 26.6577947,23.0296794 26.6577947,22.6706222 C26.6577947,22.311565 26.9488947,22.0644184 27.3079848,22.1186048 Z" id="Rectangle" fill="#912329" fill-rule="evenodd"></path>
                    <path d="M19.7224335,20.9739519 L23.8403042,21.5953349 C24.1993943,21.6495212 24.4904943,21.9845213 24.4904943,22.3435785 C24.4904943,22.7026357 24.1993943,22.9497823 23.8403042,22.895596 L19.7224335,22.274213 C19.3633434,22.2200266 19.0722433,21.8850265 19.0722433,21.5259693 C19.0722433,21.1669122 19.3633434,20.9197655 19.7224335,20.9739519 Z" id="Rectangle" fill="#912329" fill-rule="evenodd"></path>
                    <path d="M6.06844106,18.9135767 L16.2547529,20.450682 C16.6138429,20.5048684 16.904943,20.8398685 16.904943,21.1989257 C16.904943,21.5579829 16.6138429,21.8051295 16.2547529,21.7509431 L6.06844106,20.2138378 C5.70935098,20.1596515 5.41825095,19.8246514 5.41825095,19.4655942 C5.41825095,19.106537 5.70935098,18.8593904 6.06844106,18.9135767 Z" id="Rectangle" fill="#912329" fill-rule="evenodd"></path>
                    <path d="M40.3117871,28.4150705 L47.8973384,29.5597233 C48.2564285,29.6139097 48.5475285,29.9489098 48.5475285,30.307967 C48.5475285,30.6670242 48.2564285,30.9141708 47.8973384,30.8599844 L40.3117871,29.7153316 C39.952697,29.6611452 39.661597,29.3261451 39.661597,28.9670879 C39.661597,28.6080307 39.952697,28.3608841 40.3117871,28.4150705 Z" id="Rectangle" fill="#912329" fill-rule="evenodd"></path>
                    <path d="M24.0570342,25.9622429 L36.8441065,27.8918006 C37.2031965,27.9459869 37.4942966,28.280987 37.4942966,28.6400442 C37.4942966,28.9991014 37.2031965,29.246248 36.8441065,29.1920617 L24.0570342,27.262504 C23.6979441,27.2083176 23.4068441,26.8733175 23.4068441,26.5142603 C23.4068441,26.1552032 23.6979441,25.9080565 24.0570342,25.9622429 Z" id="Rectangle" fill="#912329" fill-rule="evenodd"></path>
                    <path d="M6.06844106,23.2477804 L20.5893536,25.438973 C20.9484437,25.4931594 21.2395437,25.8281595 21.2395437,26.1872167 C21.2395437,26.5462739 20.9484437,26.7934205 20.5893536,26.7392341 L6.06844106,24.5480415 C5.70935098,24.4938551 5.41825095,24.158855 5.41825095,23.7997979 C5.41825095,23.4407407 5.70935098,23.193594 6.06844106,23.2477804 Z" id="Rectangle" fill="#912329" fill-rule="evenodd"></path>
                </g>
                <g id="Group-4" transform="translate(13.000000, 18.000000)">
                    <path d="M41.7976774,50.5580116 L69.2219925,50.6134275 C71.421584,50.6178722 73.2048749,52.3974727 73.2138763,54.5970503 L73.2218846,56.5539778 C73.230925,58.7630983 71.4474076,60.561273 69.2382871,60.5703134 C69.2301366,60.5703468 69.221986,60.5703552 69.2138354,60.5703387 L41.7895203,60.5149228 C39.5899288,60.5104781 37.8066378,58.7308776 37.7976365,56.5313 L37.7896282,54.5743724 C37.7805878,52.3652519 39.5641051,50.5670773 41.7732256,50.5580369 C41.7813762,50.5580035 41.7895268,50.5579951 41.7976774,50.5580116 Z" id="Rectangle" fill="#C5C3C3" transform="translate(55.505756, 55.564175) rotate(45.000000) translate(-55.505756, -55.564175) "></path>
                    <path d="M41.7976774,48.1895905 L69.2219925,48.2450064 C71.421584,48.2494511 73.2048749,50.0290516 73.2138763,52.2286292 L73.2218846,54.1855568 C73.230925,56.3946773 71.4474076,58.192852 69.2382871,58.2018923 C69.2301366,58.2019257 69.221986,58.2019341 69.2138354,58.2019177 L41.7895203,58.1465018 C39.5899288,58.1420571 37.8066378,56.3624566 37.7976365,54.162879 L37.7896282,52.2059514 C37.7805878,49.9968309 39.5641051,48.1986562 41.7732256,48.1896158 C41.7813762,48.1895825 41.7895268,48.189574 41.7976774,48.1895905 Z" id="Rectangle" fill="#FFFEFE" transform="translate(55.505756, 53.195754) rotate(45.000000) translate(-55.505756, -53.195754) "></path>
                    <path d="M9,47.7483906 C14.0287899,53.4231361 21.3719834,57 29.5505983,57 C44.7104842,57 57,44.7104842 57,29.5505983 C57,21.3719834 53.4231361,14.0287899 47.7483906,9 C52.0409691,13.8439666 54.6471941,20.2165212 54.6471941,27.1977924 C54.6471941,42.3576784 42.3576784,54.6471941 27.1977924,54.6471941 C20.2165212,54.6471941 13.8439666,52.0409691 9,47.7483906 Z" id="Oval-2" fill="#CAC7C7"></path>
                    <circle id="Oval" fill="#EDEDED" opacity="0.5" cx="27.5" cy="27.5" r="27.5"></circle>
                    <g id="Combined-Shape">
                        <use fill="black" fill-opacity="1" filter="url(#filter-8)" xlink:href="#path-7"></use>
                        <use fill="#F2F2F2" fill-rule="evenodd" xlink:href="#path-7"></use>
                    </g>
                </g>
            </g>
        </g>
    </g>
</svg>