<?xml version="1.0" encoding="UTF-8"?>
<svg width="177px" height="114px" viewBox="0 0 177 114" version="1.1" xmlns="http://www.w3.org/2000/svg" xmlns:xlink="http://www.w3.org/1999/xlink">
    <!-- Generator: Sketch 52.3 (67297) - http://www.bohemiancoding.com/sketch -->
    <title>papers-white</title>
    <desc>Created with Sketch.</desc>
    <defs>
        <path d="M6.17490494,3.21030587 L54.9125475,10.5250514 C56.6177004,10.7809677 58,12.3631368 58,14.058925 L58,83.8030503 L6.17490494,76.0249273 C4.46975203,75.7690109 3.08745247,74.1868418 3.08745247,72.4910537 L3.08745247,5.81742441 C3.08745247,4.12163625 4.46975203,2.95438952 6.17490494,3.21030587 Z" id="path-1"></path>
        <filter x="-40.1%" y="-27.3%" width="194.7%" height="164.5%" filterUnits="objectBoundingBox" id="filter-2">
            <feOffset dx="4" dy="4" in="SourceAlpha" result="shadowOffsetOuter1"></feOffset>
            <feGaussianBlur stdDeviation="8" in="shadowOffsetOuter1" result="shadowBlurOuter1"></feGaussianBlur>
            <feColorMatrix values="0 0 0 0 0.568627451   0 0 0 0 0.137254902   0 0 0 0 0.160784314  0 0 0 0.1 0" type="matrix" in="shadowBlurOuter1"></feColorMatrix>
        </filter>
        <path d="M4.63117871,1.62304092 L53.3688213,8.93778643 C55.0739742,9.19370278 56.4562738,10.7758719 56.4562738,12.4716601 L56.4562738,82.2157854 L4.63117871,74.4376623 C2.92602579,74.181746 1.54372624,72.5995769 1.54372624,70.9037887 L1.54372624,4.23015946 C1.54372624,2.5343713 2.92602579,1.36712457 4.63117871,1.62304092 Z" id="path-3"></path>
        <filter x="-40.1%" y="-27.3%" width="194.7%" height="164.5%" filterUnits="objectBoundingBox" id="filter-4">
            <feOffset dx="4" dy="4" in="SourceAlpha" result="shadowOffsetOuter1"></feOffset>
            <feGaussianBlur stdDeviation="8" in="shadowOffsetOuter1" result="shadowBlurOuter1"></feGaussianBlur>
            <feColorMatrix values="0 0 0 0 0.568627451   0 0 0 0 0.137254902   0 0 0 0 0.160784314  0 0 0 0.1 0" type="matrix" in="shadowBlurOuter1"></feColorMatrix>
        </filter>
        <path d="M3.08745247,0.0357759745 L51.8250951,7.35052148 C53.530248,7.60643783 54.9125475,9.18860694 54.9125475,10.8843951 L54.9125475,80.6285204 L3.08745247,72.8503974 C1.38229956,72.594481 3.91744094e-16,71.0123119 0,69.3165238 L0,2.64289451 C-1.95872047e-16,0.947106354 1.38229956,-0.220140376 3.08745247,0.0357759745 Z" id="path-5"></path>
        <filter x="-40.1%" y="-27.3%" width="194.7%" height="164.5%" filterUnits="objectBoundingBox" id="filter-6">
            <feOffset dx="4" dy="4" in="SourceAlpha" result="shadowOffsetOuter1"></feOffset>
            <feGaussianBlur stdDeviation="8" in="shadowOffsetOuter1" result="shadowBlurOuter1"></feGaussianBlur>
            <feColorMatrix values="0 0 0 0 0.568627451   0 0 0 0 0.137254902   0 0 0 0 0.160784314  0 0 0 0.1 0" type="matrix" in="shadowBlurOuter1"></feColorMatrix>
        </filter>
        <path d="M6.34361233,4.31549162 L45.0396476,9.47974327 C46.6746051,9.69793958 48,11.2165992 48,12.8717645 L48,67.2448532 C48,68.9000185 46.6746051,70.0649121 45.0396476,69.8467158 L3.38325991,64.2873847 L3.38325991,6.91735416 C3.38325991,5.26218885 4.70865484,4.09729532 6.34361233,4.31549162 Z" id="path-7"></path>
        <filter x="-49.3%" y="-33.5%" width="216.5%" height="179.3%" filterUnits="objectBoundingBox" id="filter-8">
            <feOffset dx="4" dy="4" in="SourceAlpha" result="shadowOffsetOuter1"></feOffset>
            <feGaussianBlur stdDeviation="8" in="shadowOffsetOuter1" result="shadowBlurOuter1"></feGaussianBlur>
            <feColorMatrix values="0 0 0 0 0.568627451   0 0 0 0 0.137254902   0 0 0 0 0.160784314  0 0 0 0.1 0" type="matrix" in="shadowBlurOuter1"></feColorMatrix>
        </filter>
        <path d="M5.07488987,2.94141653 L43.7709251,8.10566818 C45.4058826,8.32386449 46.7312775,9.84252413 46.7312775,11.4976894 L46.7312775,65.8707781 C46.7312775,67.5259434 45.4058826,68.690837 43.7709251,68.4726407 L2.11453744,62.9133096 L2.11453744,5.54327906 C2.11453744,3.88811376 3.43993237,2.72322022 5.07488987,2.94141653 Z" id="path-9"></path>
        <filter x="-49.3%" y="-33.5%" width="216.5%" height="179.3%" filterUnits="objectBoundingBox" id="filter-10">
            <feOffset dx="4" dy="4" in="SourceAlpha" result="shadowOffsetOuter1"></feOffset>
            <feGaussianBlur stdDeviation="8" in="shadowOffsetOuter1" result="shadowBlurOuter1"></feGaussianBlur>
            <feColorMatrix values="0 0 0 0 0.568627451   0 0 0 0 0.137254902   0 0 0 0 0.160784314  0 0 0 0.1 0" type="matrix" in="shadowBlurOuter1"></feColorMatrix>
        </filter>
        <path d="M4.01762115,1.5447831 L42.7136564,6.70903475 C44.3486139,6.92723106 45.6740088,8.44589071 45.6740088,10.101056 L45.6740088,64.4741447 C45.6740088,66.12931 44.3486139,67.2942035 42.7136564,67.0760072 L1.05726872,61.5166762 L1.05726872,4.14664564 C1.05726872,2.49148033 2.38266365,1.3265868 4.01762115,1.5447831 Z" id="path-11"></path>
        <filter x="-49.3%" y="-33.5%" width="216.5%" height="179.3%" filterUnits="objectBoundingBox" id="filter-12">
            <feOffset dx="4" dy="4" in="SourceAlpha" result="shadowOffsetOuter1"></feOffset>
            <feGaussianBlur stdDeviation="8" in="shadowOffsetOuter1" result="shadowBlurOuter1"></feGaussianBlur>
            <feColorMatrix values="0 0 0 0 0.568627451   0 0 0 0 0.137254902   0 0 0 0 0.160784314  0 0 0 0.1 0" type="matrix" in="shadowBlurOuter1"></feColorMatrix>
        </filter>
        <path d="M2.96035242,0.148149678 L41.6563877,5.31240133 C43.2913452,5.53059764 44.6167401,7.04925728 44.6167401,8.70442259 L44.6167401,63.0775113 C44.6167401,64.7326766 43.2913452,65.8975701 41.6563877,65.6793738 L0,60.1200428 L3.75617305e-16,2.75001221 C0,1.09484691 1.32539493,-0.0700466282 2.96035242,0.148149678 Z" id="path-13"></path>
        <filter x="-49.3%" y="-33.5%" width="216.5%" height="179.3%" filterUnits="objectBoundingBox" id="filter-14">
            <feOffset dx="4" dy="4" in="SourceAlpha" result="shadowOffsetOuter1"></feOffset>
            <feGaussianBlur stdDeviation="8" in="shadowOffsetOuter1" result="shadowBlurOuter1"></feGaussianBlur>
            <feColorMatrix values="0 0 0 0 0.568627451   0 0 0 0 0.137254902   0 0 0 0 0.160784314  0 0 0 0.1 0" type="matrix" in="shadowBlurOuter1"></feColorMatrix>
        </filter>
        <path d="M9.79283442,2.5 L9.79283442,0 L15.0658991,3.75 L9.79283442,7.5 L9.79283442,5 L0,5 L0,2.5 L9.79283442,2.5 Z" id="path-15"></path>
        <filter x="-106.2%" y="-186.7%" width="312.4%" height="526.7%" filterUnits="objectBoundingBox" id="filter-16">
            <feOffset dx="0" dy="2" in="SourceAlpha" result="shadowOffsetOuter1"></feOffset>
            <feGaussianBlur stdDeviation="5" in="shadowOffsetOuter1" result="shadowBlurOuter1"></feGaussianBlur>
            <feColorMatrix values="0 0 0 0 0   0 0 0 0 0   0 0 0 0 0  0 0 0 0.1 0" type="matrix" in="shadowBlurOuter1"></feColorMatrix>
        </filter>
        <path d="M9.79283442,15 L9.79283442,12.5 L15.0658991,16.25 L9.79283442,20 L9.79283442,17.5 L0,17.5 L0,15 L9.79283442,15 Z" id="path-17"></path>
        <filter x="-106.2%" y="-186.7%" width="312.4%" height="526.7%" filterUnits="objectBoundingBox" id="filter-18">
            <feOffset dx="0" dy="2" in="SourceAlpha" result="shadowOffsetOuter1"></feOffset>
            <feGaussianBlur stdDeviation="5" in="shadowOffsetOuter1" result="shadowBlurOuter1"></feGaussianBlur>
            <feColorMatrix values="0 0 0 0 0   0 0 0 0 0   0 0 0 0 0  0 0 0 0.1 0" type="matrix" in="shadowBlurOuter1"></feColorMatrix>
        </filter>
        <path d="M9.79283442,27.5 L9.79283442,25 L15.0658991,28.75 L9.79283442,32.5 L9.79283442,30 L0,30 L0,27.5 L9.79283442,27.5 Z" id="path-19"></path>
        <filter x="-106.2%" y="-186.7%" width="312.4%" height="526.7%" filterUnits="objectBoundingBox" id="filter-20">
            <feOffset dx="0" dy="2" in="SourceAlpha" result="shadowOffsetOuter1"></feOffset>
            <feGaussianBlur stdDeviation="5" in="shadowOffsetOuter1" result="shadowBlurOuter1"></feGaussianBlur>
            <feColorMatrix values="0 0 0 0 0   0 0 0 0 0   0 0 0 0 0  0 0 0 0.1 0" type="matrix" in="shadowBlurOuter1"></feColorMatrix>
        </filter>
    </defs>
    <g id="AccentTranslations" stroke="none" stroke-width="1" fill="none" fill-rule="evenodd">
        <g id="AccentTranslations---Home-2" transform="translate(-324.000000, -2612.000000)">
            <g id="papers-white" transform="translate(336.000000, 2623.000000)">
                <g id="ui/icon/paper" transform="translate(87.000000, 0.000000)">
                    <g id="Rectangle">
                        <use fill="black" fill-opacity="1" filter="url(#filter-2)" xlink:href="#path-1"></use>
                        <use fill="#FFFFFF" fill-rule="evenodd" xlink:href="#path-1"></use>
                    </g>
                    <g id="Rectangle">
                        <use fill="black" fill-opacity="1" filter="url(#filter-4)" xlink:href="#path-3"></use>
                        <use fill="#FFFFFF" fill-rule="evenodd" xlink:href="#path-3"></use>
                    </g>
                    <g id="Rectangle">
                        <use fill="black" fill-opacity="1" filter="url(#filter-6)" xlink:href="#path-5"></use>
                        <use fill="#FFFFFF" fill-rule="evenodd" xlink:href="#path-5"></use>
                    </g>
                    <path d="M29.9923954,13.943232 L48.7376426,16.7565956 C49.1030325,16.8114348 49.3992395,17.1504711 49.3992395,17.5138543 C49.3992395,17.8772374 49.1030325,18.1273617 48.7376426,18.0725225 L29.9923954,15.2591589 C29.6270055,15.2043197 29.3307985,14.8652834 29.3307985,14.5019002 C29.3307985,14.1385171 29.6270055,13.8883928 29.9923954,13.943232 Z" id="Rectangle" fill="#912329" fill-rule="evenodd"></path>
                    <path d="M13.4524715,11.4608523 L26.4638783,13.4136576 C26.8292682,13.4684969 27.1254753,13.8075331 27.1254753,14.1709163 C27.1254753,14.5342995 26.8292682,14.7844238 26.4638783,14.7295845 L13.4524715,12.7767792 C13.0870816,12.72194 12.7908745,12.3829037 12.7908745,12.0195205 C12.7908745,11.6561374 13.0870816,11.4060131 13.4524715,11.4608523 Z" id="Rectangle" fill="#912329" fill-rule="evenodd"></path>
                    <path d="M6.17490494,10.3686052 L9.92395437,10.9312779 C10.2893443,10.9861172 10.5855513,11.3251534 10.5855513,11.6885366 C10.5855513,12.0519198 10.2893443,12.3020441 9.92395437,12.2472048 L6.17490494,11.6845321 C5.80951503,11.6296929 5.51330798,11.2906567 5.51330798,10.9272735 C5.51330798,10.5638903 5.80951503,10.313766 6.17490494,10.3686052 Z" id="Rectangle" fill="#912329" fill-rule="evenodd"></path>
                    <path d="M32.1977186,36.2063308 L48.7376426,38.6887105 C49.1030325,38.7435497 49.3992395,39.082586 49.3992395,39.4459691 C49.3992395,39.8093523 49.1030325,40.0594766 48.7376426,40.0046374 L32.1977186,37.5222577 C31.8323287,37.4674185 31.5361217,37.1283823 31.5361217,36.7649991 C31.5361217,36.4016159 31.8323287,36.1514916 32.1977186,36.2063308 Z" id="Rectangle" fill="#912329" fill-rule="evenodd"></path>
                    <path d="M17.8631179,34.0549351 L28.6692015,35.6767565 C29.0345914,35.7315957 29.3307985,36.0706319 29.3307985,36.4340151 C29.3307985,36.7973983 29.0345914,37.0475226 28.6692015,36.9926834 L17.8631179,35.370862 C17.497728,35.3160228 17.2015209,34.9769865 17.2015209,34.6136033 C17.2015209,34.2502202 17.497728,34.0000959 17.8631179,34.0549351 Z" id="Rectangle" fill="#912329" fill-rule="evenodd"></path>
                    <path d="M6.17490494,32.3007201 L14.3346008,33.5253607 C14.6999907,33.5802 14.9961977,33.9192362 14.9961977,34.2826194 C14.9961977,34.6460026 14.6999907,34.8961269 14.3346008,34.8412876 L6.17490494,33.616647 C5.80951503,33.5618078 5.51330798,33.2227715 5.51330798,32.8593884 C5.51330798,32.4960052 5.80951503,32.2458809 6.17490494,32.3007201 Z" id="Rectangle" fill="#912329" fill-rule="evenodd"></path>
                    <path d="M13.4524715,37.7793901 L18.9657795,38.60685 C19.3311694,38.6616893 19.6273764,39.0007255 19.6273764,39.3641087 C19.6273764,39.7274918 19.3311694,39.9776161 18.9657795,39.9227769 L13.4524715,39.095317 C13.0870816,39.0404778 12.7908745,38.7014416 12.7908745,38.3380584 C12.7908745,37.9746752 13.0870816,37.7245509 13.4524715,37.7793901 Z" id="Rectangle" fill="#912329" fill-rule="evenodd"></path>
                    <path d="M22.4942966,39.1364244 L48.7376426,43.0751335 C49.1030325,43.1299727 49.3992395,43.4690089 49.3992395,43.8323921 C49.3992395,44.1957753 49.1030325,44.4458996 48.7376426,44.3910604 L22.4942966,40.4523513 C22.1289067,40.397512 21.8326996,40.0584758 21.8326996,39.6950926 C21.8326996,39.3317095 22.1289067,39.0815852 22.4942966,39.1364244 Z" id="Rectangle" fill="#912329" fill-rule="evenodd"></path>
                    <path d="M6.17490494,36.6871431 L9.92395437,37.2498158 C10.2893443,37.304655 10.5855513,37.6436913 10.5855513,38.0070744 C10.5855513,38.3704576 10.2893443,38.6205819 9.92395437,38.5657427 L6.17490494,38.00307 C5.80951503,37.9482307 5.51330798,37.6091945 5.51330798,37.2458113 C5.51330798,36.8824282 5.80951503,36.6323039 6.17490494,36.6871431 Z" id="Rectangle" fill="#912329" fill-rule="evenodd"></path>
                    <path d="M38.8136882,45.9721286 L48.7376426,47.4615565 C49.1030325,47.5163957 49.3992395,47.8554319 49.3992395,48.2188151 C49.3992395,48.5821983 49.1030325,48.8323226 48.7376426,48.7774834 L38.8136882,47.2880555 C38.4482983,47.2332163 38.1520913,46.8941801 38.1520913,46.5307969 C38.1520913,46.1674137 38.4482983,45.9172894 38.8136882,45.9721286 Z" id="Rectangle" fill="#912329" fill-rule="evenodd"></path>
                    <path d="M13.4524715,42.1658131 L35.2851711,45.4425543 C35.650561,45.4973935 35.9467681,45.8364298 35.9467681,46.1998129 C35.9467681,46.5631961 35.650561,46.8133204 35.2851711,46.7584812 L13.4524715,43.48174 C13.0870816,43.4269008 12.7908745,43.0878646 12.7908745,42.7244814 C12.7908745,42.3610982 13.0870816,42.1109739 13.4524715,42.1658131 Z" id="Rectangle" fill="#912329" fill-rule="evenodd"></path>
                    <path d="M6.17490494,41.0735661 L9.92395437,41.6362388 C10.2893443,41.691078 10.5855513,42.0301142 10.5855513,42.3934974 C10.5855513,42.7568806 10.2893443,43.0070049 9.92395437,42.9521657 L6.17490494,42.3894929 C5.80951503,42.3346537 5.51330798,41.9956175 5.51330798,41.6322343 C5.51330798,41.2688511 5.80951503,41.0187268 6.17490494,41.0735661 Z" id="Rectangle" fill="#912329" fill-rule="evenodd"></path>
                    <path d="M38.8136882,56.7188649 L48.7376426,58.2082928 C49.1030325,58.263132 49.3992395,58.6021682 49.3992395,58.9655514 C49.3992395,59.3289346 49.1030325,59.5790589 48.7376426,59.5242197 L38.8136882,58.0347918 C38.4482983,57.9799526 38.1520913,57.6409164 38.1520913,57.2775332 C38.1520913,56.91415 38.4482983,56.6640257 38.8136882,56.7188649 Z" id="Rectangle" fill="#912329" fill-rule="evenodd"></path>
                    <path d="M6.17490494,46.5565948 L24.9201521,49.3699584 C25.285542,49.4247976 25.581749,49.7638339 25.581749,50.1272171 L25.581749,51.0045017 C25.581749,51.3678848 25.285542,51.6180091 24.9201521,51.5631699 L6.17490494,48.7498063 C5.80951503,48.694967 5.51330798,48.3559308 5.51330798,47.9925476 L5.51330798,47.115263 C5.51330798,46.7518799 5.80951503,46.5017556 6.17490494,46.5565948 Z" id="Rectangle" fill="#912329" fill-rule="evenodd"></path>
                    <path d="M6.17490494,5.10489764 L33.7414449,9.24219714 C34.1068348,9.29703635 34.4030418,9.63607259 34.4030418,9.99945577 L34.4030418,10.8767404 C34.4030418,11.2401235 34.1068348,11.4902478 33.7414449,11.4354086 L6.17490494,7.29810913 C5.80951503,7.24326991 5.51330798,6.90423367 5.51330798,6.5408505 L5.51330798,5.6635659 C5.51330798,5.30018272 5.80951503,5.05005843 6.17490494,5.10489764 Z" id="Rectangle" fill="#912329" fill-rule="evenodd"></path>
                    <path d="M15.6577947,53.2435334 L35.2851711,56.1892906 C35.650561,56.2441298 35.9467681,56.5831661 35.9467681,56.9465492 C35.9467681,57.3099324 35.650561,57.5600567 35.2851711,57.5052175 L15.6577947,54.5594603 C15.2924048,54.504621 14.9961977,54.1655848 14.9961977,53.8022016 C14.9961977,53.4388184 15.2924048,53.1886942 15.6577947,53.2435334 Z" id="Rectangle" fill="#912329" fill-rule="evenodd"></path>
                    <path d="M6.17490494,51.8203023 L12.1292776,52.713959 C12.4946675,52.7687983 12.7908745,53.1078345 12.7908745,53.4712177 C12.7908745,53.8346008 12.4946675,54.0847251 12.1292776,54.0298859 L6.17490494,53.1362292 C5.80951503,53.08139 5.51330798,52.7423538 5.51330798,52.3789706 C5.51330798,52.0155874 5.80951503,51.7654631 6.17490494,51.8203023 Z" id="Rectangle" fill="#912329" fill-rule="evenodd"></path>
                    <path d="M32.1977186,60.112336 L48.7376426,62.5947157 C49.1030325,62.649555 49.3992395,62.9885912 49.3992395,63.3519744 C49.3992395,63.7153575 49.1030325,63.9654818 48.7376426,63.9106426 L32.1977186,61.4282629 C31.8323287,61.3734237 31.5361217,61.0343875 31.5361217,60.6710043 C31.5361217,60.3076211 31.8323287,60.0574968 32.1977186,60.112336 Z" id="Rectangle" fill="#912329" fill-rule="evenodd"></path>
                    <path d="M20.0684411,58.2919243 L28.6692015,59.5827617 C29.0345914,59.6376009 29.3307985,59.9766372 29.3307985,60.3400203 C29.3307985,60.7034035 29.0345914,60.9535278 28.6692015,60.8986886 L20.0684411,59.6078512 C19.7030512,59.5530119 19.4068441,59.2139757 19.4068441,58.8505925 C19.4068441,58.4872093 19.7030512,58.237085 20.0684411,58.2919243 Z" id="Rectangle" fill="#912329" fill-rule="evenodd"></path>
                    <path d="M6.17490494,56.2067253 L16.539924,57.7623499 C16.9053139,57.8171891 17.2015209,58.1562254 17.2015209,58.5196086 C17.2015209,58.8829917 16.9053139,59.133116 16.539924,59.0782768 L6.17490494,57.5226522 C5.80951503,57.467813 5.51330798,57.1287768 5.51330798,56.7653936 C5.51330798,56.4020104 5.80951503,56.1518861 6.17490494,56.2067253 Z" id="Rectangle" fill="#912329" fill-rule="evenodd"></path>
                    <path d="M34.4030418,18.9916229 L48.7376426,21.1430186 C49.1030325,21.1978578 49.3992395,21.5368941 49.3992395,21.9002772 C49.3992395,22.2636604 49.1030325,22.5137847 48.7376426,22.4589455 L34.4030418,20.3075498 C34.0376519,20.2527105 33.7414449,19.9136743 33.7414449,19.5502911 C33.7414449,19.186908 34.0376519,18.9367837 34.4030418,18.9916229 Z" id="Rectangle" fill="#912329" fill-rule="evenodd"></path>
                    <path d="M34.4030418,64.829743 L48.7376426,66.9811387 C49.1030325,67.0359779 49.3992395,67.3750142 49.3992395,67.7383973 C49.3992395,68.1017805 49.1030325,68.3519048 48.7376426,68.2970656 L34.4030418,66.1456699 C34.0376519,66.0908307 33.7414449,65.7517944 33.7414449,65.3884112 C33.7414449,65.0250281 34.0376519,64.7749038 34.4030418,64.829743 Z" id="Rectangle" fill="#912329" fill-rule="evenodd"></path>
                    <path d="M29.1102662,68.4218044 L32.418251,68.9182804 C32.7836409,68.9731196 33.0798479,69.3121558 33.0798479,69.675539 C33.0798479,70.0389222 32.7836409,70.2890465 32.418251,70.2342073 L29.1102662,69.7377313 C28.7448762,69.6828921 28.4486692,69.3438559 28.4486692,68.9804727 C28.4486692,68.6170895 28.7448762,68.3669652 29.1102662,68.4218044 Z" id="Rectangle" fill="#912329" fill-rule="evenodd"></path>
                    <path d="M17.8631179,16.5092432 L30.8745247,18.4620485 C31.2399146,18.5168878 31.5361217,18.855924 31.5361217,19.2193072 C31.5361217,19.5826903 31.2399146,19.8328146 30.8745247,19.7779754 L17.8631179,17.8251701 C17.497728,17.7703309 17.2015209,17.4312946 17.2015209,17.0679114 C17.2015209,16.7045283 17.497728,16.454404 17.8631179,16.5092432 Z" id="Rectangle" fill="#912329" fill-rule="evenodd"></path>
                    <path d="M17.8631179,62.3473633 L30.8745247,64.3001686 C31.2399146,64.3550079 31.5361217,64.6940441 31.5361217,65.0574273 C31.5361217,65.4208105 31.2399146,65.6709348 30.8745247,65.6160955 L17.8631179,63.6632902 C17.497728,63.608451 17.2015209,63.2694147 17.2015209,62.9060315 C17.2015209,62.5426484 17.497728,62.2925241 17.8631179,62.3473633 Z" id="Rectangle" fill="#912329" fill-rule="evenodd"></path>
                    <path d="M35.7262357,69.4147563 L48.7376426,71.3675617 C49.1030325,71.4224009 49.3992395,71.7614371 49.3992395,72.1248203 C49.3992395,72.4882035 49.1030325,72.7383278 48.7376426,72.6834886 L35.7262357,70.7306832 C35.3608458,70.675844 35.0646388,70.3368078 35.0646388,69.9734246 C35.0646388,69.6100414 35.3608458,69.3599171 35.7262357,69.4147563 Z" id="Rectangle" fill="#912329" fill-rule="evenodd"></path>
                    <path d="M6.17490494,14.7550282 L14.3346008,15.9796688 C14.6999907,16.0345081 14.9961977,16.3735443 14.9961977,16.7369275 C14.9961977,17.1003107 14.6999907,17.350435 14.3346008,17.2955957 L6.17490494,16.0709551 C5.80951503,16.0161159 5.51330798,15.6770796 5.51330798,15.3136964 C5.51330798,14.9503133 5.80951503,14.700189 6.17490494,14.7550282 Z" id="Rectangle" fill="#912329" fill-rule="evenodd"></path>
                    <path d="M6.17490494,60.5931483 L14.3346008,61.8177889 C14.6999907,61.8726282 14.9961977,62.2116644 14.9961977,62.5750476 C14.9961977,62.9384308 14.6999907,63.1885551 14.3346008,63.1337158 L6.17490494,61.9090752 C5.80951503,61.854236 5.51330798,61.5151997 5.51330798,61.1518166 C5.51330798,60.7884334 5.80951503,60.5383091 6.17490494,60.5931483 Z" id="Rectangle" fill="#912329" fill-rule="evenodd"></path>
                    <path d="M47.1939163,74.8643324 L48.7376426,75.0960212 C49.1030325,75.1508604 49.3992395,75.4898967 49.3992395,75.8532799 C49.3992395,76.216663 49.1030325,76.4667873 48.7376426,76.4119481 L47.1939163,76.1802593 C46.8285264,76.1254201 46.5323194,75.7863839 46.5323194,75.4230007 C46.5323194,75.0596175 46.8285264,74.8094932 47.1939163,74.8643324 Z" id="Rectangle" fill="#912329" fill-rule="evenodd"></path>
                    <path d="M6.17490494,64.9795713 L25.3612167,67.8591317 C25.7266066,67.9139709 26.0228137,68.2530072 26.0228137,68.6163904 C26.0228137,68.9797735 25.7266066,69.2298978 25.3612167,69.1750586 L6.17490494,66.2954982 C5.80951503,66.2406589 5.51330798,65.9016227 5.51330798,65.5382395 C5.51330798,65.1748564 5.80951503,64.9247321 6.17490494,64.9795713 Z" id="Rectangle" fill="#912329" fill-rule="evenodd"></path>
                    <path d="M34.4030418,32.1508918 L48.7376426,34.3022875 C49.1030325,34.3571268 49.3992395,34.696163 49.3992395,35.0595462 C49.3992395,35.4229293 49.1030325,35.6730536 48.7376426,35.6182144 L34.4030418,33.4668187 C34.0376519,33.4119795 33.7414449,33.0729432 33.7414449,32.7095601 C33.7414449,32.3461769 34.0376519,32.0960526 34.4030418,32.1508918 Z" id="Rectangle" fill="#912329" fill-rule="evenodd"></path>
                    <path d="M17.8631179,29.6685121 L30.8745247,31.6213175 C31.2399146,31.6761567 31.5361217,32.0151929 31.5361217,32.3785761 C31.5361217,32.7419593 31.2399146,32.9920836 30.8745247,32.9372444 L17.8631179,30.984439 C17.497728,30.9295998 17.2015209,30.5905635 17.2015209,30.2271804 C17.2015209,29.8637972 17.497728,29.6136729 17.8631179,29.6685121 Z" id="Rectangle" fill="#912329" fill-rule="evenodd"></path>
                    <path d="M6.17490494,27.9142971 L14.3346008,29.1389378 C14.6999907,29.193777 14.9961977,29.5328132 14.9961977,29.8961964 C14.9961977,30.2595796 14.6999907,30.5097039 14.3346008,30.4548647 L6.17490494,29.230224 C5.80951503,29.1753848 5.51330798,28.8363486 5.51330798,28.4729654 C5.51330798,28.1095822 5.80951503,27.8594579 6.17490494,27.9142971 Z" id="Rectangle" fill="#912329" fill-rule="evenodd"></path>
                    <path d="M27.7870722,22.385094 L48.7376426,25.5294416 C49.1030325,25.5842808 49.3992395,25.923317 49.3992395,26.2867002 C49.3992395,26.6500834 49.1030325,26.9002077 48.7376426,26.8453685 L27.7870722,23.7010209 C27.4216823,23.6461816 27.1254753,23.3071454 27.1254753,22.9437622 C27.1254753,22.5803791 27.4216823,22.3302548 27.7870722,22.385094 Z" id="Rectangle" fill="#912329" fill-rule="evenodd"></path>
                    <path d="M20.0684411,21.2266501 L24.2585551,21.8555196 C24.623945,21.9103589 24.9201521,22.2493951 24.9201521,22.6127783 C24.9201521,22.9761614 24.623945,23.2262857 24.2585551,23.1714465 L20.0684411,22.542577 C19.7030512,22.4877378 19.4068441,22.1487015 19.4068441,21.7853184 C19.4068441,21.4219352 19.7030512,21.1718109 20.0684411,21.2266501 Z" id="Rectangle" fill="#912329" fill-rule="evenodd"></path>
                    <path d="M6.17490494,19.1414512 L16.539924,20.6970758 C16.9053139,20.751915 17.2015209,21.0909512 17.2015209,21.4543344 C17.2015209,21.8177176 16.9053139,22.0678419 16.539924,22.0130027 L6.17490494,20.4573781 C5.80951503,20.4025388 5.51330798,20.0635026 5.51330798,19.7001194 C5.51330798,19.3367362 5.80951503,19.0866119 6.17490494,19.1414512 Z" id="Rectangle" fill="#912329" fill-rule="evenodd"></path>
                    <path d="M41.0190114,28.7574207 L48.7376426,29.9158646 C49.1030325,29.9707038 49.3992395,30.30974 49.3992395,30.6731232 C49.3992395,31.0365064 49.1030325,31.2866307 48.7376426,31.2317915 L41.0190114,30.0733476 C40.6536215,30.0185084 40.3574144,29.6794721 40.3574144,29.316089 C40.3574144,28.9527058 40.6536215,28.7025815 41.0190114,28.7574207 Z" id="Rectangle" fill="#912329" fill-rule="evenodd"></path>
                    <path d="M24.4790875,26.275041 L37.4904943,28.2278464 C37.8558842,28.2826856 38.1520913,28.6217218 38.1520913,28.985105 C38.1520913,29.3484882 37.8558842,29.5986125 37.4904943,29.5437733 L24.4790875,27.5909679 C24.1136975,27.5361287 23.8174905,27.1970924 23.8174905,26.8337093 C23.8174905,26.4703261 24.1136975,26.2202018 24.4790875,26.275041 Z" id="Rectangle" fill="#912329" fill-rule="evenodd"></path>
                    <path d="M6.17490494,23.5278741 L20.9505703,25.7454667 C21.3159603,25.8003059 21.6121673,26.1393421 21.6121673,26.5027253 C21.6121673,26.8661085 21.3159603,27.1162328 20.9505703,27.0613936 L6.17490494,24.843801 C5.80951503,24.7889618 5.51330798,24.4499256 5.51330798,24.0865424 C5.51330798,23.7231592 5.80951503,23.4730349 6.17490494,23.5278741 Z" id="Rectangle" fill="#912329" fill-rule="evenodd"></path>
                </g>
                <g id="ui/icon/paper-2" transform="translate(0.000000, 4.000000)" opacity="0.699999988">
                    <g id="Paper-1">
                        <g id="Rectangle">
                            <use fill="black" fill-opacity="1" filter="url(#filter-8)" xlink:href="#path-7"></use>
                            <use fill="#FFFFFF" fill-rule="evenodd" xlink:href="#path-7"></use>
                        </g>
                        <g id="Rectangle">
                            <use fill="black" fill-opacity="1" filter="url(#filter-10)" xlink:href="#path-9"></use>
                            <use fill="#FFFFFF" fill-rule="evenodd" xlink:href="#path-9"></use>
                        </g>
                        <g id="Rectangle">
                            <use fill="black" fill-opacity="1" filter="url(#filter-12)" xlink:href="#path-11"></use>
                            <use fill="#FFFFFF" fill-rule="evenodd" xlink:href="#path-11"></use>
                        </g>
                        <g id="Rectangle">
                            <use fill="black" fill-opacity="1" filter="url(#filter-14)" xlink:href="#path-13"></use>
                            <use fill="#FFFFFF" fill-rule="evenodd" xlink:href="#path-13"></use>
                        </g>
                        <path d="M4.969163,8.55079582 L20.1938326,10.5826325 C20.4857893,10.6215962 20.722467,10.8927854 20.722467,11.1883506 C20.722467,11.4839158 20.4857893,11.6919326 20.1938326,11.6529689 L4.969163,9.62113221 C4.6772063,9.58216858 4.44052863,9.31097936 4.44052863,9.01541413 C4.44052863,8.7198489 4.6772063,8.51183219 4.969163,8.55079582 Z" id="Rectangle" fill="#EB8C30"></path>
                        <path d="M23.154185,11.1917792 L33.7268722,12.6027769 C34.0188289,12.6417405 34.2555066,12.9129297 34.2555066,13.208495 C34.2555066,13.5040602 34.0188289,13.7120769 33.7268722,13.6731133 L23.154185,12.2621156 C22.8622283,12.2231519 22.6255507,11.9519627 22.6255507,11.6563975 C22.6255507,11.3608323 22.8622283,11.1528155 23.154185,11.1917792 Z" id="Rectangle" fill="#EB8C30"></path>
                        <path d="M36.4757709,12.755569 L39.6475771,13.1788683 C39.9395338,13.217832 40.1762115,13.4890212 40.1762115,13.7845864 C40.1762115,14.0801517 39.9395338,14.2881684 39.6475771,14.2492047 L36.4757709,13.8259054 C36.1838142,13.7869418 35.9471366,13.5157526 35.9471366,13.2201873 C35.9471366,12.9246221 36.1838142,12.7166054 36.4757709,12.755569 Z" id="Rectangle" fill="#EB8C30"></path>
                        <path d="M4.969163,26.9605818 L18.5022026,28.7666588 C18.7941593,28.8056225 19.030837,29.0768117 19.030837,29.3723769 C19.030837,29.6679421 18.7941593,29.8759588 18.5022026,29.8369952 L4.969163,28.0309181 C4.6772063,27.9919545 4.44052863,27.7207653 4.44052863,27.4252001 C4.44052863,27.1296348 4.6772063,26.9216181 4.969163,26.9605818 Z" id="Rectangle" fill="#EB8C30"></path>
                        <path d="M21.2511013,29.1335182 L30.1321586,30.3187563 C30.4241153,30.3577199 30.660793,30.6289092 30.660793,30.9244744 C30.660793,31.2200396 30.4241153,31.4280563 30.1321586,31.3890927 L21.2511013,30.2038546 C20.9591446,30.164891 20.722467,29.8937018 20.722467,29.5981365 C20.722467,29.3025713 20.9591446,29.0945546 21.2511013,29.1335182 Z" id="Rectangle" fill="#EB8C30"></path>
                        <path d="M33.092511,30.7138357 L39.6475771,31.5886543 C39.9395338,31.6276179 40.1762115,31.8988071 40.1762115,32.1943724 C40.1762115,32.4899376 39.9395338,32.6979543 39.6475771,32.6589907 L33.092511,31.7841721 C32.8005543,31.7452084 32.5638767,31.4740192 32.5638767,31.178454 C32.5638767,30.8828888 32.8005543,30.6748721 33.092511,30.7138357 Z" id="Rectangle" fill="#EB8C30"></path>
                        <path d="M4.969163,30.3856582 L9.40969163,30.9782772 C9.70164833,31.0172409 9.93832599,31.2884301 9.93832599,31.5839953 C9.93832599,31.8795606 9.70164833,32.0875773 9.40969163,32.0486136 L4.969163,31.4559946 C4.6772063,31.417031 4.44052863,31.1458417 4.44052863,30.8502765 C4.44052863,30.5547113 4.6772063,30.3466946 4.969163,30.3856582 Z" id="Rectangle" fill="#EB8C30"></path>
                        <path d="M12.3700441,31.5874239 L33.7268722,34.4376393 C34.0188289,34.4766029 34.2555066,34.7477921 34.2555066,35.0433574 C34.2555066,35.3389226 34.0188289,35.5469393 33.7268722,35.5079757 L12.3700441,32.6577603 C12.0780874,32.6187967 11.8414097,32.3476074 11.8414097,32.0520422 C11.8414097,31.756477 12.0780874,31.5484603 12.3700441,31.5874239 Z" id="Rectangle" fill="#EB8C30"></path>
                        <path d="M36.4757709,34.8044987 L39.6475771,35.227798 C39.9395338,35.2667616 40.1762115,35.5379508 40.1762115,35.8335161 C40.1762115,36.1290813 39.9395338,36.337098 39.6475771,36.2981344 L36.4757709,35.8748351 C36.1838142,35.8358715 35.9471366,35.5646822 35.9471366,35.269117 C35.9471366,34.9735518 36.1838142,34.7655351 36.4757709,34.8044987 Z" id="Rectangle" fill="#EB8C30"></path>
                        <path d="M4.969163,34.2388692 L13.0044053,35.3112275 C13.296362,35.3501911 13.5330396,35.6213803 13.5330396,35.9169456 C13.5330396,36.2125108 13.296362,36.4205275 13.0044053,36.3815639 L4.969163,35.3092056 C4.6772063,35.270242 4.44052863,34.9990528 4.44052863,34.7034875 C4.44052863,34.4079223 4.6772063,34.1999056 4.969163,34.2388692 Z" id="Rectangle" fill="#EB8C30"></path>
                        <path d="M15.9647577,35.7063068 L28.4405286,37.3712841 C28.7324853,37.4102478 28.969163,37.681437 28.969163,37.9770022 C28.969163,38.2725675 28.7324853,38.4805842 28.4405286,38.4416205 L15.9647577,36.7766432 C15.672801,36.7376796 15.4361233,36.4664904 15.4361233,36.1709252 C15.4361233,35.8753599 15.672801,35.6673432 15.9647577,35.7063068 Z" id="Rectangle" fill="#EB8C30"></path>
                        <path d="M31.1894273,37.7381436 L39.6475771,38.8669417 C39.9395338,38.9059054 40.1762115,39.1770946 40.1762115,39.4726598 C40.1762115,39.768225 39.9395338,39.9762417 39.6475771,39.9372781 L31.1894273,38.8084799 C30.8974706,38.7695163 30.660793,38.4983271 30.660793,38.2027619 C30.660793,37.9071966 30.8974706,37.6991799 31.1894273,37.7381436 Z" id="Rectangle" fill="#EB8C30"></path>
                        <path d="M4.969163,43.2296949 L13.0044053,44.3020532 C13.296362,44.3410168 13.5330396,44.612206 13.5330396,44.9077713 C13.5330396,45.2033365 13.296362,45.4113532 13.0044053,45.3723896 L4.969163,44.3000313 C4.6772063,44.2610677 4.44052863,43.9898784 4.44052863,43.6943132 C4.44052863,43.398748 4.6772063,43.1907313 4.969163,43.2296949 Z" id="Rectangle" fill="#EB8C30"></path>
                        <path d="M5.07488987,38.9624593 L20.0881057,40.9660761 C20.4384538,41.0128324 20.722467,41.3382595 20.722467,41.6929378 L20.722467,42.1210723 C20.722467,42.4757506 20.4384538,42.7253707 20.0881057,42.6786143 L5.07488987,40.6749975 C4.72454183,40.6282412 4.44052863,40.3028141 4.44052863,39.9481358 L4.44052863,39.5200013 C4.44052863,39.165323 4.72454183,38.915703 5.07488987,38.9624593 Z" id="Rectangle" fill="#EB8C30"></path>
                        <path d="M5.07488987,4.49762751 L27.277533,7.46072272 C27.6278811,7.50747907 27.9118943,7.83290614 27.9118943,8.18758442 L27.9118943,8.61571897 C27.9118943,8.97039725 27.6278811,9.2200173 27.277533,9.17326095 L5.07488987,6.21016574 C4.72454183,6.16340938 4.44052863,5.83798232 4.44052863,5.48330404 L4.44052863,5.05516948 C4.44052863,4.7004912 4.72454183,4.45087116 5.07488987,4.49762751 Z" id="Rectangle" fill="#EB8C30"></path>
                        <path d="M15.9647577,44.6971325 L32.0352423,46.8418491 C32.327199,46.8808127 32.5638767,47.1520019 32.5638767,47.4475671 C32.5638767,47.7431324 32.327199,47.9511491 32.0352423,47.9121855 L15.9647577,45.7674689 C15.672801,45.7285053 15.4361233,45.4573161 15.4361233,45.1617508 C15.4361233,44.8661856 15.672801,44.6581689 15.9647577,44.6971325 Z" id="Rectangle" fill="#EB8C30"></path>
                        <path d="M34.784141,46.9946412 L39.6475771,47.6437001 C39.9395338,47.6826638 40.1762115,47.953853 40.1762115,48.2494182 C40.1762115,48.5449835 39.9395338,48.7530002 39.6475771,48.7140365 L34.784141,48.0649776 C34.4921843,48.026014 34.2555066,47.7548247 34.2555066,47.4592595 C34.2555066,47.1636943 34.4921843,46.9556776 34.784141,46.9946412 Z" id="Rectangle" fill="#EB8C30"></path>
                        <path d="M4.969163,46.8688386 L18.5022026,48.6749157 C18.7941593,48.7138793 19.030837,48.9850686 19.030837,49.2806338 C19.030837,49.576199 18.7941593,49.7842157 18.5022026,49.7452521 L4.969163,47.939175 C4.6772063,47.9002114 4.44052863,47.6290222 4.44052863,47.3334569 C4.44052863,47.0378917 4.6772063,46.829875 4.969163,46.8688386 Z" id="Rectangle" fill="#EB8C30"></path>
                        <path d="M21.2511013,49.0417751 L28.2290749,49.9730336 C28.5210316,50.0119972 28.7577093,50.2831865 28.7577093,50.5787517 C28.7577093,50.8743169 28.5210316,51.0823336 28.2290749,51.04337 L21.2511013,50.1121115 C20.9591446,50.0731479 20.722467,49.8019587 20.722467,49.5063934 C20.722467,49.2108282 20.9591446,49.0028115 21.2511013,49.0417751 Z" id="Rectangle" fill="#EB8C30"></path>
                        <path d="M31.1894273,50.368113 L39.6475771,51.4969112 C39.9395338,51.5358748 40.1762115,51.807064 40.1762115,52.1026292 C40.1762115,52.3981945 39.9395338,52.6062112 39.6475771,52.5672475 L31.1894273,51.4384494 C30.8974706,51.3994857 30.660793,51.1282965 30.660793,50.8327313 C30.660793,50.5371661 30.8974706,50.3291493 31.1894273,50.368113 Z" id="Rectangle" fill="#EB8C30"></path>
                        <path d="M4.969163,12.1899396 L16.5991189,13.742037 C16.8910756,13.7810007 17.1277533,14.0521899 17.1277533,14.3477551 C17.1277533,14.6433204 16.8910756,14.8513371 16.5991189,14.8123734 L4.969163,13.2602759 C4.6772063,13.2213123 4.44052863,12.9501231 4.44052863,12.6545579 C4.44052863,12.3589926 4.6772063,12.1509759 4.969163,12.1899396 Z" id="Rectangle" fill="#EB8C30"></path>
                        <path d="M4.969163,50.5079824 L16.5991189,52.0600799 C16.8910756,52.0990435 17.1277533,52.3702327 17.1277533,52.6657979 C17.1277533,52.9613632 16.8910756,53.1693799 16.5991189,53.1304162 L4.969163,51.5783188 C4.6772063,51.5393551 4.44052863,51.2681659 4.44052863,50.9726007 C4.44052863,50.6770354 4.6772063,50.4690187 4.969163,50.5079824 Z" id="Rectangle" fill="#EB8C30"></path>
                        <path d="M4.969163,54.1471261 L7.71806167,54.5139855 C8.01001837,54.5529491 8.24669604,54.8241384 8.24669604,55.1197036 C8.24669604,55.4152688 8.01001837,55.6232855 7.71806167,55.5843219 L4.969163,55.2174625 C4.6772063,55.1784989 4.44052863,54.9073096 4.44052863,54.6117444 C4.44052863,54.3161792 4.6772063,54.1081625 4.969163,54.1471261 Z" id="Rectangle" fill="#EB8C30"></path>
                        <path d="M19.5594714,14.3511837 L30.1321586,15.7621814 C30.4241153,15.801145 30.660793,16.0723342 30.660793,16.3678995 C30.660793,16.6634647 30.4241153,16.8714814 30.1321586,16.8325178 L19.5594714,15.4215201 C19.2675147,15.3825564 19.030837,15.1113672 19.030837,14.815802 C19.030837,14.5202368 19.2675147,14.3122201 19.5594714,14.3511837 Z" id="Rectangle" fill="#EB8C30"></path>
                        <path d="M19.5594714,52.4551592 L30.1321586,53.8661569 C30.4241153,53.9051206 30.660793,54.1763098 30.660793,54.471875 C30.660793,54.7674402 30.4241153,54.975457 30.1321586,54.9364933 L19.5594714,53.5254956 C19.2675147,53.486532 19.030837,53.2153428 19.030837,52.9197775 C19.030837,52.6242123 19.2675147,52.4161956 19.5594714,52.4551592 Z" id="Rectangle" fill="#EB8C30"></path>
                        <path d="M10.4669604,54.8808449 L21.0396476,56.2918426 C21.3316043,56.3308063 21.5682819,56.6019955 21.5682819,56.8975607 C21.5682819,57.1931259 21.3316043,57.4011426 21.0396476,57.362179 L10.4669604,55.9511813 C10.1750037,55.9122177 9.93832599,55.6410285 9.93832599,55.3454632 C9.93832599,55.049898 10.1750037,54.8418813 10.4669604,54.8808449 Z" id="Rectangle" fill="#EB8C30"></path>
                        <path d="M33.092511,16.1572608 L39.6475771,17.0320793 C39.9395338,17.071043 40.1762115,17.3422322 40.1762115,17.6377974 C40.1762115,17.9333627 39.9395338,18.1413794 39.6475771,18.1024157 L33.092511,17.2275972 C32.8005543,17.1886335 32.5638767,16.9174443 32.5638767,16.6218791 C32.5638767,16.3263138 32.8005543,16.1182971 33.092511,16.1572608 Z" id="Rectangle" fill="#EB8C30"></path>
                        <path d="M33.092511,54.2612363 L39.6475771,55.1360549 C39.9395338,55.1750185 40.1762115,55.4462077 40.1762115,55.741773 C40.1762115,56.0373382 39.9395338,56.2453549 39.6475771,56.2063913 L33.092511,55.3315727 C32.8005543,55.2926091 32.5638767,55.0214198 32.5638767,54.7258546 C32.5638767,54.4302894 32.8005543,54.2222727 33.092511,54.2612363 Z" id="Rectangle" fill="#EB8C30"></path>
                        <path d="M38.3788546,61.3887535 L39.6475771,61.5580732 C39.9395338,61.5970369 40.1762115,61.8682261 40.1762115,62.1637913 C40.1762115,62.4593565 39.9395338,62.6673732 39.6475771,62.6284096 L38.3788546,62.4590899 C38.0868979,62.4201263 37.8502203,62.148937 37.8502203,61.8533718 C37.8502203,61.5578066 38.0868979,61.3497899 38.3788546,61.3887535 Z" id="Rectangle" fill="#EB8C30"></path>
                        <path d="M24,56.686922 L39.6475771,58.7751986 C39.9395338,58.8141622 40.1762115,59.0853515 40.1762115,59.3809167 C40.1762115,59.6764819 39.9395338,59.8844986 39.6475771,59.845535 L24,57.7572584 C23.7080433,57.7182948 23.4713656,57.4471055 23.4713656,57.1515403 C23.4713656,56.8559751 23.7080433,56.6479584 24,56.686922 Z" id="Rectangle" fill="#EB8C30"></path>
                        <path d="M4.969163,23.321438 L16.5991189,24.8735355 C16.8910756,24.9124991 17.1277533,25.1836884 17.1277533,25.4792536 C17.1277533,25.7748188 16.8910756,25.9828355 16.5991189,25.9438719 L4.969163,24.3917744 C4.6772063,24.3528108 4.44052863,24.0816216 4.44052863,23.7860563 C4.44052863,23.4904911 4.6772063,23.2824744 4.969163,23.321438 Z" id="Rectangle" fill="#EB8C30"></path>
                        <path d="M19.5594714,25.2686149 L30.1321586,26.6796126 C30.4241153,26.7185762 30.660793,26.9897654 30.660793,27.2853307 C30.660793,27.5808959 30.4241153,27.7889126 30.1321586,27.749949 L19.5594714,26.3389513 C19.2675147,26.2999876 19.030837,26.0287984 19.030837,25.7332332 C19.030837,25.437668 19.2675147,25.2296512 19.5594714,25.2686149 Z" id="Rectangle" fill="#EB8C30"></path>
                        <path d="M33.092511,27.074692 L39.6475771,27.9495105 C39.9395338,27.9884742 40.1762115,28.2596634 40.1762115,28.5552286 C40.1762115,28.8507939 39.9395338,29.0588106 39.6475771,29.0198469 L33.092511,28.1450283 C32.8005543,28.1060647 32.5638767,27.8348755 32.5638767,27.5393103 C32.5638767,27.243745 32.8005543,27.0357283 33.092511,27.074692 Z" id="Rectangle" fill="#EB8C30"></path>
                        <path d="M4.969163,16.0431506 L22.0969163,18.3289669 C22.388873,18.3679305 22.6255507,18.6391197 22.6255507,18.9346849 C22.6255507,19.2302502 22.388873,19.4382669 22.0969163,19.3993033 L4.969163,17.113487 C4.6772063,17.0745233 4.44052863,16.8033341 4.44052863,16.5077689 C4.44052863,16.2122036 4.6772063,16.0041869 4.969163,16.0431506 Z" id="Rectangle" fill="#EB8C30"></path>
                        <path d="M24.845815,18.6958263 L28.2290749,19.1473455 C28.5210316,19.1863092 28.7577093,19.4574984 28.7577093,19.7530636 C28.7577093,20.0486289 28.5210316,20.2566456 28.2290749,20.2176819 L24.845815,19.7661627 C24.5538583,19.727199 24.3171806,19.4560098 24.3171806,19.1604446 C24.3171806,18.8648793 24.5538583,18.6568626 24.845815,18.6958263 Z" id="Rectangle" fill="#EB8C30"></path>
                        <path d="M31.1894273,19.5424249 L39.6475771,20.6712231 C39.9395338,20.7101867 40.1762115,20.9813759 40.1762115,21.2769412 C40.1762115,21.5725064 39.9395338,21.7805231 39.6475771,21.7415595 L31.1894273,20.6127613 C30.8974706,20.5737977 30.660793,20.3026084 30.660793,20.0070432 C30.660793,19.711478 30.8974706,19.5034613 31.1894273,19.5424249 Z" id="Rectangle" fill="#EB8C30"></path>
                        <path d="M4.969163,19.6822943 L11.3127753,20.5288929 C11.604732,20.5678565 11.8414097,20.8390458 11.8414097,21.134611 C11.8414097,21.4301762 11.604732,21.6381929 11.3127753,21.5992293 L4.969163,20.7526307 C4.6772063,20.7136671 4.44052863,20.4424778 4.44052863,20.1469126 C4.44052863,19.8513474 4.6772063,19.6433307 4.969163,19.6822943 Z" id="Rectangle" fill="#EB8C30"></path>
                        <path d="M14.061674,20.8957523 L24.6343612,22.30675 C24.9263179,22.3457137 25.1629956,22.6169029 25.1629956,22.9124681 C25.1629956,23.2080334 24.9263179,23.4160501 24.6343612,23.3770864 L14.061674,21.9660887 C13.7697173,21.9271251 13.5330396,21.6559359 13.5330396,21.3603706 C13.5330396,21.0648054 13.7697173,20.8567887 14.061674,20.8957523 Z" id="Rectangle" fill="#EB8C30"></path>
                        <path d="M27.5947137,22.7018294 L39.6475771,24.3103668 C39.9395338,24.3493304 40.1762115,24.6205197 40.1762115,24.9160849 C40.1762115,25.2116501 39.9395338,25.4196668 39.6475771,25.3807032 L27.5947137,23.7721658 C27.302757,23.7332022 27.0660793,23.462013 27.0660793,23.1664477 C27.0660793,22.8708825 27.302757,22.6628658 27.5947137,22.7018294 Z" id="Rectangle" fill="#EB8C30"></path>
                    </g>
                </g>
                <g id="Arrows" transform="translate(61.272383, 25.250000)">
                    <g id="Combined-Shape">
                        <use fill="black" fill-opacity="1" filter="url(#filter-16)" xlink:href="#path-15"></use>
                        <use fill="#FFFFFF" fill-rule="evenodd" xlink:href="#path-15"></use>
                    </g>
                    <g id="Combined-Shape">
                        <use fill="black" fill-opacity="1" filter="url(#filter-18)" xlink:href="#path-17"></use>
                        <use fill="#FFFFFF" fill-rule="evenodd" xlink:href="#path-17"></use>
                    </g>
                    <g id="Combined-Shape">
                        <use fill="black" fill-opacity="1" filter="url(#filter-20)" xlink:href="#path-19"></use>
                        <use fill="#FFFFFF" fill-rule="evenodd" xlink:href="#path-19"></use>
                    </g>
                </g>
            </g>
        </g>
    </g>
</svg>