<?xml version="1.0" encoding="UTF-8"?>
<svg width="89px" height="113px" viewBox="0 0 89 113" version="1.1" xmlns="http://www.w3.org/2000/svg" xmlns:xlink="http://www.w3.org/1999/xlink">
    <!-- Generator: Sketch 52.3 (67297) - http://www.bohemiancoding.com/sketch -->
    <title>ui/icon/paper</title>
    <desc>Created with Sketch.</desc>
    <defs>
        <path d="M7.53303965,5.11694007 L53.4845815,11.240267 C55.4260935,11.4989855 57,13.2996819 57,15.2622351 L57,79.7331831 C57,81.6957362 55.4260935,83.0769672 53.4845815,82.8182487 L4.01762115,76.2264705 L4.01762115,8.20200565 C4.01762115,6.2394525 5.59152762,4.85822159 7.53303965,5.11694007 Z" id="path-1"></path>
        <filter x="-41.5%" y="-28.3%" width="198.1%" height="166.9%" filterUnits="objectBoundingBox" id="filter-2">
            <feOffset dx="4" dy="4" in="SourceAlpha" result="shadowOffsetOuter1"></feOffset>
            <feGaussianBlur stdDeviation="8" in="shadowOffsetOuter1" result="shadowBlurOuter1"></feGaussianBlur>
            <feColorMatrix values="0 0 0 0 0.568627451   0 0 0 0 0.137254902   0 0 0 0 0.160784314  0 0 0 0.1 0" type="matrix" in="shadowBlurOuter1"></feColorMatrix>
        </filter>
        <path d="M6.02643172,3.4876796 L51.9779736,9.61100656 C53.9194856,9.86972503 55.4933921,11.6704215 55.4933921,13.6329746 L55.4933921,78.1039226 C55.4933921,80.0664758 53.9194856,81.4477067 51.9779736,81.1889882 L2.51101322,74.59721 L2.51101322,6.57274518 C2.51101322,4.61019203 4.08491969,3.22896112 6.02643172,3.4876796 Z" id="path-3"></path>
        <filter x="-41.5%" y="-28.3%" width="198.1%" height="166.9%" filterUnits="objectBoundingBox" id="filter-4">
            <feOffset dx="4" dy="4" in="SourceAlpha" result="shadowOffsetOuter1"></feOffset>
            <feGaussianBlur stdDeviation="8" in="shadowOffsetOuter1" result="shadowBlurOuter1"></feGaussianBlur>
            <feColorMatrix values="0 0 0 0 0.568627451   0 0 0 0 0.137254902   0 0 0 0 0.160784314  0 0 0 0.1 0" type="matrix" in="shadowBlurOuter1"></feColorMatrix>
        </filter>
        <path d="M4.77092511,1.83167139 L50.722467,7.95499835 C52.663979,8.21371683 54.2378855,10.0144133 54.2378855,11.9769664 L54.2378855,76.4479144 C54.2378855,78.4104676 52.663979,79.7916985 50.722467,79.53298 L1.25550661,72.9412018 L1.25550661,4.91673697 C1.25550661,2.95418382 2.82941308,1.57295292 4.77092511,1.83167139 Z" id="path-5"></path>
        <filter x="-41.5%" y="-28.3%" width="198.1%" height="166.9%" filterUnits="objectBoundingBox" id="filter-6">
            <feOffset dx="4" dy="4" in="SourceAlpha" result="shadowOffsetOuter1"></feOffset>
            <feGaussianBlur stdDeviation="8" in="shadowOffsetOuter1" result="shadowBlurOuter1"></feGaussianBlur>
            <feColorMatrix values="0 0 0 0 0.568627451   0 0 0 0 0.137254902   0 0 0 0 0.160784314  0 0 0 0.1 0" type="matrix" in="shadowBlurOuter1"></feColorMatrix>
        </filter>
        <path d="M3.5154185,0.17566319 L49.4669604,6.29899015 C51.4084724,6.55770862 52.9823789,8.35840506 52.9823789,10.3209582 L52.9823789,74.7919062 C52.9823789,76.7544594 51.4084724,78.1356903 49.4669604,77.8769718 L0,71.2851936 L4.4604555e-16,3.26072877 C0,1.29817562 1.57390647,-0.0830552878 3.5154185,0.17566319 Z" id="path-7"></path>
        <filter x="-41.5%" y="-28.3%" width="198.1%" height="166.9%" filterUnits="objectBoundingBox" id="filter-8">
            <feOffset dx="4" dy="4" in="SourceAlpha" result="shadowOffsetOuter1"></feOffset>
            <feGaussianBlur stdDeviation="8" in="shadowOffsetOuter1" result="shadowBlurOuter1"></feGaussianBlur>
            <feColorMatrix values="0 0 0 0 0.568627451   0 0 0 0 0.137254902   0 0 0 0 0.160784314  0 0 0 0.1 0" type="matrix" in="shadowBlurOuter1"></feColorMatrix>
        </filter>
    </defs>
    <g id="AccentTranslations" stroke="none" stroke-width="1" fill="none" fill-rule="evenodd" opacity="0.699999988">
        <g id="AccentTranslations---Home-2" transform="translate(-1170.000000, -1031.000000)">
            <g id="Are-you" transform="translate(0.000000, 532.000000)">
                <g id="lawyer" transform="translate(960.000000, 444.000000)">
                    <g id="ui/icon/paper-2" transform="translate(222.000000, 66.000000)">
                        <g id="Paper-1">
                            <g id="Rectangle">
                                <use fill="black" fill-opacity="1" filter="url(#filter-2)" xlink:href="#path-1"></use>
                                <use fill="#FFFFFF" fill-rule="evenodd" xlink:href="#path-1"></use>
                            </g>
                            <g id="Rectangle">
                                <use fill="black" fill-opacity="1" filter="url(#filter-4)" xlink:href="#path-3"></use>
                                <use fill="#FFFFFF" fill-rule="evenodd" xlink:href="#path-3"></use>
                            </g>
                            <g id="Rectangle">
                                <use fill="black" fill-opacity="1" filter="url(#filter-6)" xlink:href="#path-5"></use>
                                <use fill="#FFFFFF" fill-rule="evenodd" xlink:href="#path-5"></use>
                            </g>
                            <g id="Rectangle">
                                <use fill="black" fill-opacity="1" filter="url(#filter-8)" xlink:href="#path-7"></use>
                                <use fill="#FFFFFF" fill-rule="evenodd" xlink:href="#path-7"></use>
                            </g>
                            <path d="M5.90088106,10.1388008 L23.9801762,12.5479786 C24.3268748,12.5941783 24.6079295,12.9157312 24.6079295,13.2661872 C24.6079295,13.6166431 24.3268748,13.8632915 23.9801762,13.8170917 L5.90088106,11.4079139 C5.55418248,11.3617142 5.27312775,11.0401612 5.27312775,10.6897053 C5.27312775,10.3392494 5.55418248,10.092601 5.90088106,10.1388008 Z" id="Rectangle" fill="#EB8C30"></path>
                            <path d="M27.4955947,13.2702524 L40.0506608,14.9432926 C40.3973594,14.9894923 40.6784141,15.3110453 40.6784141,15.6615012 C40.6784141,16.0119571 40.3973594,16.2586055 40.0506608,16.2124058 L27.4955947,14.5393656 C27.1488961,14.4931659 26.8678414,14.1716129 26.8678414,13.821157 C26.8678414,13.4707011 27.1488961,13.2240527 27.4955947,13.2702524 Z" id="Rectangle" fill="#EB8C30"></path>
                            <path d="M43.314978,15.1244604 L47.0814978,15.6263725 C47.4281964,15.6725722 47.7092511,15.9941251 47.7092511,16.344581 C47.7092511,16.695037 47.4281964,16.9416853 47.0814978,16.8954856 L43.314978,16.3935736 C42.9682794,16.3473738 42.6872247,16.0258209 42.6872247,15.675365 C42.6872247,15.3249091 42.9682794,15.0782607 43.314978,15.1244604 Z" id="Rectangle" fill="#EB8C30"></path>
                            <path d="M5.90088106,31.9675469 L21.9713656,34.1090383 C22.3180642,34.1552381 22.5991189,34.476791 22.5991189,34.8272469 C22.5991189,35.1777028 22.3180642,35.4243512 21.9713656,35.3781515 L5.90088106,33.2366601 C5.55418248,33.1904604 5.27312775,32.8689074 5.27312775,32.5184515 C5.27312775,32.1679956 5.55418248,31.9213472 5.90088106,31.9675469 Z" id="Rectangle" fill="#EB8C30"></path>
                            <path d="M25.2356828,34.5440288 L35.7819383,35.9493825 C36.1286369,35.9955822 36.4096916,36.3171352 36.4096916,36.6675911 C36.4096916,37.018047 36.1286369,37.2646954 35.7819383,37.2184956 L25.2356828,35.8131419 C24.8889842,35.7669422 24.6079295,35.4453893 24.6079295,35.0949333 C24.6079295,34.7444774 24.8889842,34.497829 25.2356828,34.5440288 Z" id="Rectangle" fill="#EB8C30"></path>
                            <path d="M39.2973568,36.4178337 L47.0814978,37.4551186 C47.4281964,37.5013184 47.7092511,37.8228713 47.7092511,38.1733272 C47.7092511,38.5237831 47.4281964,38.7704315 47.0814978,38.7242318 L39.2973568,37.6869469 C38.9506583,37.6407472 38.6696035,37.3191942 38.6696035,36.9687383 C38.6696035,36.6182824 38.9506583,36.371634 39.2973568,36.4178337 Z" id="Rectangle" fill="#EB8C30"></path>
                            <path d="M5.90088106,36.028709 L11.1740088,36.7313859 C11.5207074,36.7775856 11.8017621,37.0991385 11.8017621,37.4495945 C11.8017621,37.8000504 11.5207074,38.0466988 11.1740088,38.000499 L5.90088106,37.2978222 C5.55418248,37.2516224 5.27312775,36.9300695 5.27312775,36.5796136 C5.27312775,36.2291577 5.55418248,35.9825093 5.90088106,36.028709 Z" id="Rectangle" fill="#EB8C30"></path>
                            <path d="M14.6894273,37.4536598 L40.0506608,40.8332009 C40.3973594,40.8794006 40.6784141,41.2009535 40.6784141,41.5514094 C40.6784141,41.9018654 40.3973594,42.1485137 40.0506608,42.102314 L14.6894273,38.7227729 C14.3427287,38.6765732 14.061674,38.3550202 14.061674,38.0045643 C14.061674,37.6541084 14.3427287,37.40746 14.6894273,37.4536598 Z" id="Rectangle" fill="#EB8C30"></path>
                            <path d="M43.314978,41.2681913 L47.0814978,41.7701033 C47.4281964,41.8163031 47.7092511,42.137856 47.7092511,42.4883119 C47.7092511,42.8387678 47.4281964,43.0854162 47.0814978,43.0392165 L43.314978,42.5373044 C42.9682794,42.4911047 42.6872247,42.1695518 42.6872247,41.8190959 C42.6872247,41.4686399 42.9682794,41.2219916 43.314978,41.2681913 Z" id="Rectangle" fill="#EB8C30"></path>
                            <path d="M5.90088106,40.5975164 L15.4427313,41.8690269 C15.7894299,41.9152266 16.0704846,42.2367795 16.0704846,42.5872355 C16.0704846,42.9376914 15.7894299,43.1843397 15.4427313,43.13814 L5.90088106,41.8666295 C5.55418248,41.8204298 5.27312775,41.4988768 5.27312775,41.1484209 C5.27312775,40.797965 5.55418248,40.5513166 5.90088106,40.5975164 Z" id="Rectangle" fill="#EB8C30"></path>
                            <path d="M18.9581498,42.3374781 L33.7731278,44.3116655 C34.1198263,44.3578652 34.4008811,44.6794182 34.4008811,45.0298741 C34.4008811,45.38033 34.1198263,45.6269784 33.7731278,45.5807786 L18.9581498,43.6065913 C18.6114512,43.5603915 18.3303965,43.2388386 18.3303965,42.8883827 C18.3303965,42.5379268 18.6114512,42.2912784 18.9581498,42.3374781 Z" id="Rectangle" fill="#EB8C30"></path>
                            <path d="M37.0374449,44.7466559 L47.0814978,46.0850881 C47.4281964,46.1312878 47.7092511,46.4528407 47.7092511,46.8032966 C47.7092511,47.1537526 47.4281964,47.4004009 47.0814978,47.3542012 L37.0374449,46.0157691 C36.6907464,45.9695694 36.4096916,45.6480164 36.4096916,45.2975605 C36.4096916,44.9471046 36.6907464,44.7004562 37.0374449,44.7466559 Z" id="Rectangle" fill="#EB8C30"></path>
                            <path d="M5.90088106,51.2580668 L15.4427313,52.5295773 C15.7894299,52.5757771 16.0704846,52.89733 16.0704846,53.2477859 C16.0704846,53.5982418 15.7894299,53.8448902 15.4427313,53.7986905 L5.90088106,52.52718 C5.55418248,52.4809802 5.27312775,52.1594273 5.27312775,51.8089714 C5.27312775,51.4585155 5.55418248,51.2118671 5.90088106,51.2580668 Z" id="Rectangle" fill="#EB8C30"></path>
                            <path d="M6.02643172,46.1983446 L23.8546256,48.5740616 C24.2706638,48.6295013 24.6079295,49.0153648 24.6079295,49.4359119 L24.6079295,49.9435572 C24.6079295,50.3641043 24.2706638,50.6600823 23.8546256,50.6046427 L6.02643172,48.2289257 C5.61039343,48.173486 5.27312775,47.7876225 5.27312775,47.3670754 L5.27312775,46.8594301 C5.27312775,46.438883 5.61039343,46.1429049 6.02643172,46.1983446 Z" id="Rectangle" fill="#EB8C30"></path>
                            <path d="M6.02643172,5.33290119 L32.3920705,8.84628551 C32.8081088,8.90172518 33.1453744,9.28758871 33.1453744,9.70813581 L33.1453744,10.2157811 C33.1453744,10.6363282 32.8081088,10.9323062 32.3920705,10.8768665 L6.02643172,7.36348223 C5.61039343,7.30804256 5.27312775,6.92217903 5.27312775,6.50163193 L5.27312775,5.99398667 C5.27312775,5.57343957 5.61039343,5.27746152 6.02643172,5.33290119 Z" id="Rectangle" fill="#EB8C30"></path>
                            <path d="M18.9581498,52.9980286 L38.0418502,55.5410496 C38.3885488,55.5872493 38.6696035,55.9088023 38.6696035,56.2592582 C38.6696035,56.6097141 38.3885488,56.8563625 38.0418502,56.8101628 L18.9581498,54.2671417 C18.6114512,54.220942 18.3303965,53.8993891 18.3303965,53.5489331 C18.3303965,53.1984772 18.6114512,52.9518288 18.9581498,52.9980286 Z" id="Rectangle" fill="#EB8C30"></path>
                            <path d="M41.3061674,55.7222174 L47.0814978,56.4918159 C47.4281964,56.5380156 47.7092511,56.8595685 47.7092511,57.2100245 C47.7092511,57.5604804 47.4281964,57.8071288 47.0814978,57.760929 L41.3061674,56.9913306 C40.9594688,56.9451308 40.6784141,56.6235779 40.6784141,56.273122 C40.6784141,55.9226661 40.9594688,55.6760177 41.3061674,55.7222174 Z" id="Rectangle" fill="#EB8C30"></path>
                            <path d="M5.90088106,55.5730515 L21.9713656,57.7145429 C22.3180642,57.7607426 22.5991189,58.0822956 22.5991189,58.4327515 C22.5991189,58.7832074 22.3180642,59.0298558 21.9713656,58.9836561 L5.90088106,56.8421647 C5.55418248,56.7959649 5.27312775,56.474412 5.27312775,56.1239561 C5.27312775,55.7735002 5.55418248,55.5268518 5.90088106,55.5730515 Z" id="Rectangle" fill="#EB8C30"></path>
                            <path d="M25.2356828,58.1495334 L33.5220264,59.2537399 C33.868725,59.2999396 34.1497797,59.6214925 34.1497797,59.9719484 C34.1497797,60.3224044 33.868725,60.5690527 33.5220264,60.522853 L25.2356828,59.4186465 C24.8889842,59.3724468 24.6079295,59.0508938 24.6079295,58.7004379 C24.6079295,58.349982 24.8889842,58.1033336 25.2356828,58.1495334 Z" id="Rectangle" fill="#EB8C30"></path>
                            <path d="M37.0374449,59.7221911 L47.0814978,61.0606232 C47.4281964,61.1068229 47.7092511,61.4283759 47.7092511,61.7788318 C47.7092511,62.1292877 47.4281964,62.3759361 47.0814978,62.3297364 L37.0374449,60.9913042 C36.6907464,60.9451045 36.4096916,60.6235516 36.4096916,60.2730957 C36.4096916,59.9226397 36.6907464,59.6759914 37.0374449,59.7221911 Z" id="Rectangle" fill="#EB8C30"></path>
                            <path d="M5.90088106,14.4537855 L19.7114537,16.2941296 C20.0581523,16.3403294 20.339207,16.6618823 20.339207,17.0123382 C20.339207,17.3627941 20.0581523,17.6094425 19.7114537,17.5632428 L5.90088106,15.7228986 C5.55418248,15.6766989 5.27312775,15.355146 5.27312775,15.00469 C5.27312775,14.6542341 5.55418248,14.4075857 5.90088106,14.4537855 Z" id="Rectangle" fill="#EB8C30"></path>
                            <path d="M5.90088106,59.8880362 L19.7114537,61.7283804 C20.0581523,61.7745801 20.339207,62.0961331 20.339207,62.446589 C20.339207,62.7970449 20.0581523,63.0436933 19.7114537,62.9974935 L5.90088106,61.1571494 C5.55418248,61.1109497 5.27312775,60.7893967 5.27312775,60.4389408 C5.27312775,60.0884849 5.55418248,59.8418365 5.90088106,59.8880362 Z" id="Rectangle" fill="#EB8C30"></path>
                            <path d="M5.90088106,64.2030209 L9.16519824,64.6380114 C9.51189681,64.6842111 9.79295154,65.005764 9.79295154,65.35622 C9.79295154,65.7066759 9.51189681,65.9533243 9.16519824,65.9071245 L5.90088106,65.4721341 C5.55418248,65.4259344 5.27312775,65.1043814 5.27312775,64.7539255 C5.27312775,64.4034696 5.55418248,64.1568212 5.90088106,64.2030209 Z" id="Rectangle" fill="#EB8C30"></path>
                            <path d="M23.2268722,17.0164035 L35.7819383,18.6894437 C36.1286369,18.7356434 36.4096916,19.0571963 36.4096916,19.4076522 C36.4096916,19.7581082 36.1286369,20.0047565 35.7819383,19.9585568 L23.2268722,18.2855167 C22.8801737,18.2393169 22.5991189,17.917764 22.5991189,17.5673081 C22.5991189,17.2168522 22.8801737,16.9702038 23.2268722,17.0164035 Z" id="Rectangle" fill="#EB8C30"></path>
                            <path d="M23.2268722,62.1968316 L35.7819383,63.8698718 C36.1286369,63.9160715 36.4096916,64.2376245 36.4096916,64.5880804 C36.4096916,64.9385363 36.1286369,65.1851847 35.7819383,65.1389849 L23.2268722,63.4659448 C22.8801737,63.4197451 22.5991189,63.0981921 22.5991189,62.7477362 C22.5991189,62.3972803 22.8801737,62.1506319 23.2268722,62.1968316 Z" id="Rectangle" fill="#EB8C30"></path>
                            <path d="M12.4295154,65.0730018 L24.9845815,66.746042 C25.3312801,66.7922417 25.6123348,67.1137946 25.6123348,67.4642506 C25.6123348,67.8147065 25.3312801,68.0613549 24.9845815,68.0151551 L12.4295154,66.342115 C12.0828168,66.2959152 11.8017621,65.9743623 11.8017621,65.6239064 C11.8017621,65.2734505 12.0828168,65.0268021 12.4295154,65.0730018 Z" id="Rectangle" fill="#EB8C30"></path>
                            <path d="M39.2973568,19.1578949 L47.0814978,20.1951798 C47.4281964,20.2413795 47.7092511,20.5629325 47.7092511,20.9133884 C47.7092511,21.2638443 47.4281964,21.5104927 47.0814978,21.4642929 L39.2973568,20.4270081 C38.9506583,20.3808083 38.6696035,20.0592554 38.6696035,19.7087995 C38.6696035,19.3583436 38.9506583,19.1116952 39.2973568,19.1578949 Z" id="Rectangle" fill="#EB8C30"></path>
                            <path d="M39.2973568,64.338323 L47.0814978,65.3756079 C47.4281964,65.4218077 47.7092511,65.7433606 47.7092511,66.0938165 C47.7092511,66.4442724 47.4281964,66.6909208 47.0814978,66.6447211 L39.2973568,65.6074362 C38.9506583,65.5612365 38.6696035,65.2396835 38.6696035,64.8892276 C38.6696035,64.5387717 38.9506583,64.2921233 39.2973568,64.338323 Z" id="Rectangle" fill="#EB8C30"></path>
                            <path d="M45.5748899,72.789522 L47.0814978,72.9902868 C47.4281964,73.0364866 47.7092511,73.3580395 47.7092511,73.7084954 C47.7092511,74.0589513 47.4281964,74.3055997 47.0814978,74.2594 L45.5748899,74.0586352 C45.2281913,74.0124354 44.9471366,73.6908825 44.9471366,73.3404266 C44.9471366,72.9899707 45.2281913,72.7433223 45.5748899,72.789522 Z" id="Rectangle" fill="#EB8C30"></path>
                            <path d="M28.5,67.2144932 L47.0814978,69.6905926 C47.4281964,69.7367924 47.7092511,70.0583453 47.7092511,70.4088012 C47.7092511,70.7592571 47.4281964,71.0059055 47.0814978,70.9597058 L28.5,68.4836064 C28.1533014,68.4374066 27.8722467,68.1158537 27.8722467,67.7653978 C27.8722467,67.4149419 28.1533014,67.1682935 28.5,67.2144932 Z" id="Rectangle" fill="#EB8C30"></path>
                            <path d="M5.90088106,27.6525622 L19.7114537,29.4929064 C20.0581523,29.5391061 20.339207,29.8606591 20.339207,30.211115 C20.339207,30.5615709 20.0581523,30.8082193 19.7114537,30.7620195 L5.90088106,28.9216754 C5.55418248,28.8754756 5.27312775,28.5539227 5.27312775,28.2034668 C5.27312775,27.8530109 5.55418248,27.6063625 5.90088106,27.6525622 Z" id="Rectangle" fill="#EB8C30"></path>
                            <path d="M23.2268722,29.9613576 L35.7819383,31.6343978 C36.1286369,31.6805975 36.4096916,32.0021505 36.4096916,32.3526064 C36.4096916,32.7030623 36.1286369,32.9497107 35.7819383,32.9035109 L23.2268722,31.2304708 C22.8801737,31.1842711 22.5991189,30.8627181 22.5991189,30.5122622 C22.5991189,30.1618063 22.8801737,29.9151579 23.2268722,29.9613576 Z" id="Rectangle" fill="#EB8C30"></path>
                            <path d="M39.2973568,32.102849 L47.0814978,33.1401339 C47.4281964,33.1863337 47.7092511,33.5078866 47.7092511,33.8583425 C47.7092511,34.2087984 47.4281964,34.4554468 47.0814978,34.4092471 L39.2973568,33.3719622 C38.9506583,33.3257625 38.6696035,33.0042095 38.6696035,32.6537536 C38.6696035,32.3032977 38.9506583,32.0566493 39.2973568,32.102849 Z" id="Rectangle" fill="#EB8C30"></path>
                            <path d="M5.90088106,19.0225928 L26.2400881,21.7329179 C26.5867867,21.7791176 26.8678414,22.1006705 26.8678414,22.4511264 C26.8678414,22.8015824 26.5867867,23.0482307 26.2400881,23.002031 L5.90088106,20.291706 C5.55418248,20.2455062 5.27312775,19.9239533 5.27312775,19.5734974 C5.27312775,19.2230415 5.55418248,18.9763931 5.90088106,19.0225928 Z" id="Rectangle" fill="#EB8C30"></path>
                            <path d="M29.5044053,22.1679083 L33.5220264,22.7032811 C33.868725,22.7494809 34.1497797,23.0710338 34.1497797,23.4214897 C34.1497797,23.7719456 33.868725,24.018594 33.5220264,23.9723943 L29.5044053,23.4370214 C29.1577067,23.3908217 28.876652,23.0692688 28.876652,22.7188129 C28.876652,22.3683569 29.1577067,22.1217086 29.5044053,22.1679083 Z" id="Rectangle" fill="#EB8C30"></path>
                            <path d="M37.0374449,23.1717324 L47.0814978,24.5101645 C47.4281964,24.5563642 47.7092511,24.8779172 47.7092511,25.2283731 C47.7092511,25.578829 47.4281964,25.8254774 47.0814978,25.7792777 L37.0374449,24.4408455 C36.6907464,24.3946458 36.4096916,24.0730929 36.4096916,23.722637 C36.4096916,23.372181 36.6907464,23.1255327 37.0374449,23.1717324 Z" id="Rectangle" fill="#EB8C30"></path>
                            <path d="M5.90088106,23.3375775 L13.4339207,24.3414016 C13.7806193,24.3876013 14.061674,24.7091543 14.061674,25.0596102 C14.061674,25.4100661 13.7806193,25.6567145 13.4339207,25.6105148 L5.90088106,24.6066907 C5.55418248,24.5604909 5.27312775,24.238938 5.27312775,23.8884821 C5.27312775,23.5380262 5.55418248,23.2913778 5.90088106,23.3375775 Z" id="Rectangle" fill="#EB8C30"></path>
                            <path d="M16.6982379,24.776392 L29.253304,26.4494322 C29.6000025,26.4956319 29.8810573,26.8171849 29.8810573,27.1676408 C29.8810573,27.5180967 29.6000025,27.7647451 29.253304,27.7185453 L16.6982379,26.0455052 C16.3515393,25.9993055 16.0704846,25.6777525 16.0704846,25.3272966 C16.0704846,24.9768407 16.3515393,24.7301923 16.6982379,24.776392 Z" id="Rectangle" fill="#EB8C30"></path>
                            <path d="M32.7687225,26.9178834 L47.0814978,28.8251492 C47.4281964,28.8713489 47.7092511,29.1929019 47.7092511,29.5433578 C47.7092511,29.8938137 47.4281964,30.1404621 47.0814978,30.0942624 L32.7687225,28.1869966 C32.4220239,28.1407969 32.1409692,27.8192439 32.1409692,27.468788 C32.1409692,27.1183321 32.4220239,26.8716837 32.7687225,26.9178834 Z" id="Rectangle" fill="#EB8C30"></path>
                        </g>
                    </g>
                </g>
            </g>
        </g>
    </g>
</svg>