<?xml version="1.0" encoding="UTF-8"?>
<svg width="1150px" height="860px" viewBox="0 0 1150 860" version="1.1" xmlns="http://www.w3.org/2000/svg" xmlns:xlink="http://www.w3.org/1999/xlink">
    <!-- Generator: Sketch 52.4 (67378) - http://www.bohemiancoding.com/sketch -->
    <title>Artboard_1</title>
    <desc>Created with Sketch.</desc>
    <g id="Artboard_1" stroke="none" stroke-width="1" fill="none" fill-rule="evenodd">
        <g id="undraw_teacher_35j2" transform="translate(0.000000, 116.000000)">
            <path d="M1137.81,582.18 C1133.34683,593.19365 1127.85238,603.760667 1121.4,613.74 C1118.37368,618.498608 1115.05392,623.064113 1111.46,627.41 C1111.42813,627.454142 1111.39121,627.494414 1111.35,627.53 L0,627.53 L0.15,627.41 C1.15,626.63 7.02,621.88 16.15,613.74 C22.7,607.91 30.92,600.33 40.15,591.21 C115.64,516.96 260.65,341.21 139.88,180.21 C27.61,30.54 148.49,3.38 228.23,0.21 C258.866681,-0.990202412 289.430396,4.00624734 318.09,14.9 C354.93,28.9 422.26,50.36 509.98,60.2 C512.86,60.52 515.76,60.84 518.7,61.13 C565.141844,65.8586916 611.897019,66.7082992 658.48,63.67 C659.85,63.59 661.23,63.49 662.62,63.39 C708.702179,60.1541665 754.434097,53.0796342 799.34,42.24 C802.25,41.53 805.12,40.86 807.98,40.19 C957.61,5.57 1095.55,123.56 1061.06,256.9 C1048.31,306.22 1051.55,358.79 1094.06,401.32 C1163.66,470.74 1155.23,539.11 1137.81,582.18 Z" id="Path" fill="#EB8C30" opacity="0.1"></path>
            <path d="M1137.81,582.18 C1133.34683,593.19365 1127.85238,603.760667 1121.4,613.74 C1118.37368,618.498608 1115.05392,623.064113 1111.46,627.41 L0.15,627.41 C1.15,626.63 7.02,621.88 16.15,613.74 C22.7,607.91 30.92,600.33 40.15,591.21 L157.28,567.01 C158.793433,566.697784 160.334698,566.540307 161.88,566.54 L286.75,566.36 L286.88,566.36 L348.73,566.28 L348.87,566.28 L401.07,566.22 L435.24,566.22 L470.24,566.22 L613.66,566.02 L613.89,566.02 L625,566.02 L644.52,566.02 L668.89,566.02 L675.37,566.02 L700,565.74 L708.14,565.74 L779.78,565.64 L802.66,565.64 L813.66,565.64 L896.41,565.53 L921.05,565.53 L999.43,565.42 L1065.59,565.34 C1067.43254,565.341017 1069.26853,565.559188 1071.06,565.99 L1137.81,582.18 Z" id="Path" fill="#454B69"></path>
            <path d="M16.15,613.74 L1121.4,613.74 C1118.37368,618.498608 1115.05392,623.064113 1111.46,627.41 L0.15,627.41 C1.13,626.58 7,621.83 16.15,613.74 Z" id="Path"></path>
            <path d="M16.15,613.74 L1121.4,613.74 C1118.37368,618.498608 1115.05392,623.064113 1111.46,627.41 L0.15,627.41 C1.13,626.58 7,621.83 16.15,613.74 Z" id="Path" fill="#000000" opacity="0.4"></path>
            <path d="M733.22,302.74 L731,303.17 L630.64,322.45 C601.49,328.05 571.92,333.68 542.31,331.53 C520.86,329.97 500.82,323.61 480.21,318.03 C468.56,314.87 456.21,313.61 452.26,300.57 C446.81,282.57 455.68,255.92 457.77,237.68 C459.77,219.78 460.95,201.43 457.39,183.74 C456.599142,179.764665 455.557052,175.843467 454.27,172 C450.7,161.41 445.09,150.4 448.12,139.65 C450.51,131.12 457.8,125.03 464.62,119.39 C477.98,108.39 491.62,96.06 496.92,79.57 C499.52,71.57 500.01,62.96 502.81,55.02 C508.12,39.92 521.46,28.63 536.3,22.65 C551.14,16.67 567.46,15.4 583.47,15.4 C597.60664,15.4007864 611.727653,16.3395147 625.74,18.21 C641.02,20.21 656.44,23.5 669.87,31.08 C683.3,38.66 694.62,51.08 697.75,66.22 C702.18,87.63 689.88,110.43 696.48,131.22 C699.8,141.73 707.48,150.22 712.81,159.84 C721.591013,176.098832 723.395448,195.225842 717.81,212.84 C711.43,232.61 695.81,252.61 703.81,271.78 C708.9,283.97 721.9,290.48 730.96,300.14 C731.766667,301.006667 732.52,301.873333 733.22,302.74 Z" id="Path" fill="#454B69"></path>
            <path d="M731,300.22 L731,303.17 L630.64,322.45 C601.49,328.05 571.92,333.68 542.31,331.53 C520.86,329.97 500.82,323.61 480.21,318.03 C468.56,314.87 456.21,313.61 452.26,300.57 C446.81,282.57 455.68,255.92 457.77,237.68 C459.77,219.78 490.56,154.43 487,136.74 L671,144.74 C672.24,154.51 720.87,203.55 717.84,212.92 C711.46,232.69 695.84,252.69 703.84,271.86 C708.94,284.05 721.94,290.56 731,300.22 Z" id="Path" fill="#000000" opacity="0.1"></path>
            <path d="M543,250.74 C544.09,256.93 544.67,263.74 541.51,269.14 C537.3,276.38 528.12,278.69 519.91,280.33 L491.41,286.03 C489.47,286.42 487.41,286.86 485.96,288.19 C484.25,289.72 483.67,292.14 483.42,294.42 C482.27,304.74 485.92,314.91 489.25,324.74 C495.98,344.65 501.63,364.98 510.14,384.19 C518.65,403.4 530.33,421.74 547,434.58 C563.67,447.42 585.73,454.26 606.14,449.24 C623.92,444.87 638.5,432.32 651.07,419.01 C661.44,408.01 671.14,396.01 676.17,381.74 C679.64,371.94 680.77,361.5 681.86,351.16 C683.546667,335.306667 685.233333,319.453333 686.92,303.6 C687.71,296.16 688.23,287.79 683.4,282.08 C681.28,279.57 678.4,277.9 675.46,276.35 C664.52,270.54 653,265.74 642.82,258.74 C632.64,251.74 623.61,242.1 620.52,230.14 C618.67,222.96 619,215.14 615.85,208.45 C612.33,200.95 604.85,195.87 596.85,193.64 C588.85,191.41 580.41,191.71 572.17,192.64 C563.93,193.57 532.17,195.95 528.76,205.24 C526.93,210.24 534.52,220.97 536.32,225.89 C539.282918,233.957664 541.518487,242.274115 543,250.74 Z" id="Path" fill="#EFB7B9"></path>
            <path d="M543,250.74 C544.09,256.93 544.67,263.74 541.51,269.14 C537.3,276.38 528.12,278.69 519.91,280.33 L491.41,286.03 C489.47,286.42 487.41,286.86 485.96,288.19 C484.25,289.72 483.67,292.14 483.42,294.42 C482.27,304.74 485.92,314.91 489.25,324.74 C495.98,344.65 501.63,364.98 510.14,384.19 C518.65,403.4 530.33,421.74 547,434.58 C563.67,447.42 585.73,454.26 606.14,449.24 C623.92,444.87 638.5,432.32 651.07,419.01 C661.44,408.01 671.14,396.01 676.17,381.74 C679.64,371.94 680.77,361.5 681.86,351.16 C683.546667,335.306667 685.233333,319.453333 686.92,303.6 C687.71,296.16 688.23,287.79 683.4,282.08 C681.28,279.57 678.4,277.9 675.46,276.35 C664.52,270.54 653,265.74 642.82,258.74 C632.64,251.74 623.61,242.1 620.52,230.14 C618.67,222.96 619,215.14 615.85,208.45 C612.33,200.95 604.85,195.87 596.85,193.64 C588.85,191.41 580.41,191.71 572.17,192.64 C563.93,193.57 532.17,195.95 528.76,205.24 C526.93,210.24 534.52,220.97 536.32,225.89 C539.282918,233.957664 541.518487,242.274115 543,250.74 Z" id="Path" fill="#000000" opacity="0.1"></path>
            <path d="M611.59,359.48 L628.3,324.1 C636.13,307.52 644.13,290.1 643.3,271.79 C643.14,268.15 643.1,263.6 646.3,261.95 C647.689187,261.382657 649.202874,261.189567 650.69,261.39 C668.281749,262.289534 685.641786,265.80131 702.2,271.81 C705.41,272.97 708.7,274.31 710.95,276.87 C713.2,279.43 714.11,282.87 714.88,286.17 C717.502924,297.327751 719.416753,308.640381 720.61,320.04 C723.61,348.26 722.12,376.73 720.61,405.04 L716.17,491.47 C716.193964,492.696145 715.944596,493.91224 715.44,495.03 C714.34,497.03 711.86,497.7 709.63,498.08 C701.04,499.55 692.26,499.25 683.56,498.92 C622.36,496.6 560.84,493.04 500.04,500.46 C500.313333,491.466667 500.17,482.466667 499.61,473.46 C497.2,434.57 487.12,396.63 477.22,358.95 C471.45,336.95 465.86,312.95 475.15,292.22 C476.51611,288.946258 478.479536,285.95534 480.94,283.4 C484.89,279.53 490.28,277.49 495.62,276.03 C504.831154,273.524384 514.371898,272.445191 523.91,272.83 L586.96,410.1 C589.84,416.38 592.21,422.99 595.08,429.19 C597.66,418.48 594.56,405.93 597.66,394.32 C601,382.27 606.26,370.74 611.59,359.48 Z" id="Path" fill="#FFFFFF"></path>
            <path d="M605,453.93 C616.28,454.64 627.24,448.86 635,440.69 C642.76,432.52 647.88,422.16 652.21,411.69 C658.434656,396.765748 663.382386,381.340473 667,365.58 C670,352.18 672.13,338.31 670.06,324.73 C667.2,305.98 656.59,288.94 654.78,270.06 C654.47,266.76 654.67,262.9 657.32,260.91 C658.96,259.68 661.12,259.51 663.16,259.39 C682.02,258.27 702.74,258.48 717.35,270.45 C721.8,274.09 725.41,278.64 729.76,282.39 C740.12,291.39 754.76,295.97 761.41,307.92 C763.73,312.08 764.84,316.79 766.46,321.27 C770.28,331.87 776.89,341.19 783.46,350.36 C777.09,377.24 769.77,404.14 763.4,431.02 C759.67,446.79 755.91,462.62 750.05,477.72 C746.21,487.62 741.38,497.72 742.56,508.32 C743.03,512.49 744.42,516.48 745.63,520.5 C749.871627,534.609677 751.859422,549.300466 751.52,564.03 L466.18,564.73 C479.85,545.13 483.86,521.09 482.47,497.24 C481.8,485.81 479.22,474.31 473.47,464.42 C464.41,448.92 448.47,438.82 432.76,430.17 C421.76,424.17 409.95,457.93 398.06,454.06 C399.98,440.48 400.86,388.06 400.06,374.39 C399.8,369.91 399.4,365.31 400.78,361.03 C401.72,358.1 403.45,355.48 404.62,352.63 C409.31,341.22 404.84,326.63 412.42,316.92 C417.66,310.17 426.85,308.25 434.32,304.09 C441.99,299.81 447.92,293.09 454.6,287.35 C467.707352,276.220132 483.723231,269.069194 500.76,266.74 C505.729977,274.579171 508.750846,283.494338 509.57,292.74 C510.08,298.55 509.71,304.44 510.52,310.22 C511.63,318.05 514.87,325.4 518.08,332.64 C531.45,362.83 544.87,393.11 561.81,421.46 C566.6,429.46 571.81,437.46 578.75,443.69 C585.69,449.92 595.68,454.37 605,453.93 Z" id="Path" fill="#912329"></path>
            <path d="M605,453.93 C616.28,454.64 627.24,448.86 635,440.69 C642.76,432.52 647.88,422.16 652.21,411.69 C658.434656,396.765748 663.382386,381.340473 667,365.58 C670,352.18 672.13,338.31 670.06,324.73 C667.2,305.98 656.59,288.94 654.78,270.06 C654.47,266.76 654.67,262.9 657.32,260.91 C658.96,259.68 661.12,259.51 663.16,259.39 C682.02,258.27 702.74,258.48 717.35,270.45 C721.8,274.09 725.41,278.64 729.76,282.39 C740.12,291.39 754.76,295.97 761.41,307.92 C763.73,312.08 764.84,316.79 766.46,321.27 C770.28,331.87 776.89,341.19 783.46,350.36 C777.09,377.24 769.77,404.14 763.4,431.02 C759.67,446.79 755.91,462.62 750.05,477.72 C746.21,487.62 741.38,497.72 742.56,508.32 C743.03,512.49 744.42,516.48 745.63,520.5 C749.871627,534.609677 751.859422,549.300466 751.52,564.03 L466.18,564.73 C479.85,545.13 483.86,521.09 482.47,497.24 C481.8,485.81 479.22,474.31 473.47,464.42 C464.41,448.92 448.47,438.82 432.76,430.17 C421.76,424.17 409.95,457.93 398.06,454.06 C399.98,440.48 400.86,388.06 400.06,374.39 C399.8,369.91 399.4,365.31 400.78,361.03 C401.72,358.1 403.45,355.48 404.62,352.63 C409.31,341.22 404.84,326.63 412.42,316.92 C417.66,310.17 426.85,308.25 434.32,304.09 C441.99,299.81 447.92,293.09 454.6,287.35 C467.707352,276.220132 483.723231,269.069194 500.76,266.74 C505.729977,274.579171 508.750846,283.494338 509.57,292.74 C510.08,298.55 509.71,304.44 510.52,310.22 C511.63,318.05 514.87,325.4 518.08,332.64 C531.45,362.83 544.87,393.11 561.81,421.46 C566.6,429.46 571.81,437.46 578.75,443.69 C585.69,449.92 595.68,454.37 605,453.93 Z" id="Path" fill="#000000" opacity="0.1"></path>
            <circle id="Oval" fill="#EFB7B9" cx="589.91" cy="162.75" r="85.72"></circle>
            <path d="M544.93,276.98 C547.28,254.8 538.06,233.1 527.62,213.39 C522.62,203.97 517.26,194.58 514.75,184.23 C512.24,173.88 512.96,162.16 519.38,153.65 C524.84,146.41 533.5,142.5 541.51,138.25 C564.12,126.25 584.79,108.61 594.73,85.02 C589.11,88.08 590.57,97.21 595.53,101.24 C600.49,105.27 607.25,106.05 613.35,107.97 C635.59,114.97 648.93,137.15 659.63,157.87 C661.38,161.25 663.16,164.82 663.14,168.63 C663.12,172.44 661.38,175.82 659.56,179.06 C654.28,188.46 647.82,197.49 645.42,208 C642.67,220 645.57,232.62 649.34,244.39 C653.34,256.91 658.65,269.53 668.25,278.51 C677.85,287.49 692.74,291.95 704.55,286.15 C692.76,265.88 680.55,243.23 685.15,220.25 C687.37,209.25 693.34,199.25 695.88,188.31 C700.72,167.44 692.66,145.97 684.75,126.05 L661.11,66.6 C657.5,57.51 653.39,47.81 645.11,42.66 C639.51,39.19 632.73,38.29 626.17,37.66 C605.05,35.78 583.17,36.4 563.51,44.26 C527.69,58.57 505.23,93.85 487.41,128.07 C482.07,138.32 476.8,149.21 477.02,160.77 C477.14,167.11 478.91,173.28 480.35,179.46 C486.21,204.62 486.53,230.69 486.83,256.52 C487.06,276.34 486.03,295.02 477.36,313.07 C489.24,315.43 506.47,321.8 518.23,317.14 C533.56,311.08 543,292.41 544.93,276.98 Z" id="Path" fill="#454B69"></path>
            <g id="Group" opacity="0.1" transform="translate(476.000000, 83.000000)" fill="#000000">
                <path d="M10.78,173.1 C10.82,170.28 10.82,167.433333 10.78,164.56 C10.48,138.73 10.16,112.66 4.3,87.5 C2.99093053,82.6038621 1.96918782,77.6353877 1.24,72.62 C1.03437814,74.3420445 0.944176784,76.075915 0.97,77.81 C1.09,84.15 2.86,90.32 4.3,96.5 C10.13,121.51 10.49,147.42 10.78,173.1 Z" id="Path"></path>
                <path d="M219.88,105.31 C221.192757,99.4670566 221.630866,93.4616028 221.18,87.49 C220.983713,90.4600856 220.548979,93.4095855 219.88,96.31 C217.34,107.31 211.37,117.22 209.15,128.25 C208.193309,133.114993 207.924017,138.090166 208.35,143.03 C208.509206,141.089981 208.776285,139.160329 209.15,137.25 C211.37,126.22 217.34,116.27 219.88,105.31 Z" id="Path"></path>
                <path d="M186.36,81.04 C186.848236,79.6196322 187.111414,78.1316664 187.14,76.63 C187.14,72.82 185.38,69.25 183.63,65.87 C172.93,45.15 159.63,22.99 137.35,15.97 C131.25,14.05 124.5,13.27 119.53,9.24 C116.946152,7.01491893 115.367372,3.84294045 115.15,0.44 C104.31,20.34 85.69,35.56 65.51,46.25 C57.51,50.5 48.84,54.41 43.38,61.65 C38.25,68.45 36.76,77.3 37.65,85.86 C38.1544539,80.3662785 40.1342513,75.1110049 43.38,70.65 C48.84,63.41 57.5,59.5 65.51,55.25 C85.69,44.56 104.31,29.34 115.15,9.44 C115.367372,12.8429404 116.946152,16.0149189 119.53,18.24 C124.53,22.24 131.25,23.05 137.35,24.97 C159.59,31.97 172.93,54.15 183.63,74.87 C184.714745,76.8448244 185.628093,78.9090576 186.36,81.04 Z" id="Path"></path>
                <path d="M192.25,186.51 C182.65,177.51 177.36,164.91 173.34,152.39 C170.927974,145.357063 169.317774,138.074264 168.54,130.68 C167.61,140.95 170.16,151.46 173.34,161.39 C177.34,173.91 182.65,186.53 192.25,195.51 C201.85,204.49 216.74,208.95 228.55,203.15 C227.13,200.72 225.72,198.25 224.32,195.76 C213.35,198.85 200.75,194.45 192.25,186.51 Z" id="Path"></path>
                <path d="M68.93,184.98 C67,200.41 57.56,219.08 42.19,225.18 C31.52,229.41 16.33,224.55 4.74,221.86 C3.74260281,224.666972 2.60108634,227.42063 1.32,230.11 C13.2,232.47 30.43,238.84 42.19,234.18 C57.56,228.08 67,209.41 68.93,193.98 C69.3277239,190.119608 69.4013146,186.23268 69.15,182.36 C69.09,183.23 69,184.11 68.93,184.98 Z" id="Path"></path>
            </g>
            <path d="M666.1,515.92 C650.65,513.47 634.97,508.74 619.65,511.92 C610.77,513.76 602.65,518.18 595.27,523.52 C599.33,526.77 604.07,529.67 606.65,534.19 C608.251473,537.317307 609.454202,540.633208 610.23,544.06 C611.85,550.06 613.48,556.18 613.73,562.42 C613.98,568.66 612.73,575.16 609.01,580.19 C628.49,582.11 647.37,577.31 666.37,572.62 C668.542914,572.238593 670.611136,571.403809 672.44,570.17 C675.44,567.81 676.32,563.61 676.34,559.78 C676.34,552.94 674.42,546.27 672.47,539.71 C670.15,531.84 668.43,523.74 666.1,515.92 Z" id="Path" fill="#FFFFFF"></path>
            <path d="M770.42,347.25 C778.09,348.25 784.04,354.44 788.42,360.8 C800.71,378.5 806.01,399.96 811.91,420.69 C819.243333,446.47 827.866667,471.843333 837.78,496.81 C839.914346,502.575881 842.509394,508.160585 845.54,513.51 C848.01,517.64 851.01,521.61 852.1,526.3 C854.74,537.64 845.39,548.3 835.64,554.62 C830.443202,558.123164 824.768044,560.858018 818.79,562.74 C812.97,564.48 806.9,565.14 800.87,565.8 L745.36,571.8 C719.81,574.58 694.03,577.36 668.47,574.68 C666.86,569.08 670.02,565.12 669.79,559.29 C669.63,555.12 667.79,551.24 666.15,547.4 C663.125865,540.560786 661.127669,533.312693 660.22,525.89 C659.93,523.16 659.83,520.36 658.79,517.82 C657.75,515.28 655.52,513 652.79,512.82 C667.79,511.33 679.18,508.5 694.18,507 C699.75,506.44 705.54,505.81 710.29,502.85 C716.18,499.18 719.48,492.56 722.1,486.14 C728.59,470.24 732.77,452.72 729.36,435.88 C726.56,422.07 718.75,409.21 718.79,395.12 C718.79,386.73 721.65,378.6 725.03,370.92 C728.61,362.8 733.28,354.5 741.14,350.38 C749,346.26 761.55,346.05 770.42,347.25 Z" id="Path" fill="#912329"></path>
            <path d="M770.42,347.25 C778.09,348.25 784.04,354.44 788.42,360.8 C800.71,378.5 806.01,399.96 811.91,420.69 C819.243333,446.47 827.866667,471.843333 837.78,496.81 C839.914346,502.575881 842.509394,508.160585 845.54,513.51 C848.01,517.64 851.01,521.61 852.1,526.3 C854.74,537.64 845.39,548.3 835.64,554.62 C830.443202,558.123164 824.768044,560.858018 818.79,562.74 C812.97,564.48 806.9,565.14 800.87,565.8 L745.36,571.8 C719.81,574.58 694.03,577.36 668.47,574.68 C666.86,569.08 670.02,565.12 669.79,559.29 C669.63,555.12 667.79,551.24 666.15,547.4 C663.125865,540.560786 661.127669,533.312693 660.22,525.89 C659.93,523.16 659.83,520.36 658.79,517.82 C657.75,515.28 655.52,513 652.79,512.82 C667.79,511.33 679.18,508.5 694.18,507 C699.75,506.44 705.54,505.81 710.29,502.85 C716.18,499.18 719.48,492.56 722.1,486.14 C728.59,470.24 732.77,452.72 729.36,435.88 C726.56,422.07 718.75,409.21 718.79,395.12 C718.79,386.73 721.65,378.6 725.03,370.92 C728.61,362.8 733.28,354.5 741.14,350.38 C749,346.26 761.55,346.05 770.42,347.25 Z" id="Path" fill="#000000" opacity="0.08"></path>
            <path d="M422.81,334.26 C426.44,325.64 430.13,316.74 430.23,307.39 C430.34,297.28 426.23,287.68 423.09,278.08 C419.206954,266.334192 416.621551,254.198558 415.38,241.89 C415.122405,240.710897 415.299997,239.478412 415.88,238.42 C416.71,237.25 418.31,237.01 419.72,236.7 C426.64,235.12 431.87,229.53 436.19,223.9 C442.892067,215.205081 448.550756,205.753796 453.05,195.74 C456.36,188.37 460.84,179.38 468.92,179.31 C465.667067,194.589333 461.635138,209.692376 456.84,224.56 C465.29,222.4 473.32,219.26 481.77,217.1 C483.424202,216.577606 485.156789,216.347497 486.89,216.42 C491.95,216.95 495.05,223.8 492.11,227.95 C496.24,232.79 503.11,234.09 508.51,237.41 C513.91,240.73 517.79,248.95 512.99,253.12 C512.05,253.93 510.86,254.5 510.18,255.54 C507.86,259.12 513.54,263.23 513.07,267.47 C512.69,270.94 508.24,272.56 504.87,271.64 C501.5,270.72 498.87,268.2 495.87,266.35 C492.87,264.5 488.95,263.35 486.04,265.27 C485.26,274.68 484.42,284.27 480.35,292.84 C478.86,295.97 476.95,298.9 475.75,302.15 C474.602251,305.693763 473.890343,309.364114 473.63,313.08 L470,346.27 C452.68,349.74 437.15,344.55 422.81,334.26 Z" id="Path" fill="#EFB7B9"></path>
            <path d="M418.58,364.01 L415.39,342.42 C415.085045,340.662205 414.914551,338.883717 414.88,337.1 C414.88,332.1 417.08,327.33 419.21,322.78 C436.86,331.02 455.94,333.95 475.41,333.96 C477.98,333.96 480.91,333.72 482.51,331.71 C485.82,335.52 485.92,341.65 484.51,346.49 C483.1,351.33 480.39,355.69 478.59,360.41 C477.68,362.8 476.94,365.41 475.2,367.25 C472.5,370.16 468.12,370.66 464.14,370.64 C459.952972,370.613619 455.776562,370.215388 451.66,369.45 C441,367.47 429.24,362.1 418.58,364.01 Z" id="Path" fill="#FFFFFF"></path>
            <path d="M484.41,363.13 C470.71,361.57 457.1,359.37 443.58,356.53 C436.95,355.14 430.26,353.59 423.5,353.86 C419.1,354.04 414.37,354.92 410.5,352.74 C414.27,365.57 414.5,379.09 409.99,391.68 C407.32,399.18 403.25,406.17 401.29,413.89 C397.21,430.04 402.81,447.65 397.71,463.51 C397.170706,465.582484 396.110463,467.482661 394.63,469.03 C393.07,470.46 390.94,471.2 389.5,472.75 C387.38,475.03 387.25,478.46 387.24,481.57 L387.15,509.12 C387.09,526.66 387.32,545.26 396.58,560.12 C407.14,577.12 429.37,585.93 448.72,580.76 C453.864896,579.444409 458.684571,577.085627 462.88,573.83 C469.6,568.49 473.88,560.77 478.07,553.25 C483.07,544.25 488.07,535.05 489.68,524.92 C490.82,517.75 490.18,510.43 489.36,503.22 C484.84,463.22 475.03,423.56 477.14,383.41 C477.455905,376.070195 479.990844,368.998866 484.41,363.13 Z" id="Path" fill="#912329"></path>
            <path d="M541.67,529.13 C534.72,529.53 527.72,529.93 520.8,529.13 C515.8,528.53 510.92,527.3 505.96,526.46 C478.547674,522.032961 450.569599,529.806475 429.37,547.74 C425.53,551.02 421.65,556.05 423.77,560.64 C426.05,565.58 433.02,565.44 438.39,564.52 C432.593732,567.288233 427.473853,571.291978 423.39,576.25 C421.89,578.08 420.47,580.25 420.76,582.62 C421.37,587.57 428.09,588.47 433.06,588.04 C431.44,589.78 432.53,592.86 434.59,594.04 C436.65,595.22 439.21,594.98 441.54,594.55 C446.691111,593.606708 451.668297,591.883577 456.3,589.44 C455.36,591.89 456.99,594.76 459.3,595.98 C461.61,597.2 464.42,597.11 467.01,596.69 C479.23,594.69 489.43,586.19 501.35,582.85 C520.41,577.52 540.35,586.02 560.16,586.62 C566.36,586.81 572.72,586.18 578.37,583.62 C585.3,580.47 590.89,574.56 598.21,572.46 C606.34,570.14 615.67,572.81 623.11,568.8 C628.52,565.89 623.64,543.46 622.26,539.14 C619.73,531.24 617.19,526 608.76,525.2 C587.43,523.11 563.16,527.89 541.67,529.13 Z" id="Path" fill="#EFB7B9"></path>
            <path d="M594.88,523.01 C594.88,523.01 627.17,550.34 608.54,580.16 L644.54,567.73 L644.54,541.64 C644.54,540.4 630.87,521.77 630.87,521.77 L614.72,519.28 L594.88,523.01 Z" id="Path" fill="#FFFFFF"></path>
            <path d="M256.79,521.32 L268.9,521.32 C282.707119,521.32 293.9,532.512881 293.9,546.32 L293.9,583.43 L231.79,583.43 L231.79,546.32 C231.79,539.689588 234.423921,533.33074 239.11233,528.64233 C243.80074,523.953921 250.159588,521.32 256.79,521.32 Z" id="Path" fill="#3F3D56"></path>
            <path d="M256.79,521.32 L268.9,521.32 C282.707119,521.32 293.9,532.512881 293.9,546.32 L293.9,583.43 L231.79,583.43 L231.79,546.32 C231.79,539.689588 234.423921,533.33074 239.11233,528.64233 C243.80074,523.953921 250.159588,521.32 256.79,521.32 Z" id="Path" fill="#000000" opacity="0.1"></path>
            <circle id="Oval" fill="#3F3D56" cx="260.36" cy="530.01" r="4.97"></circle>
            <circle id="Oval" fill="#3F3D56" cx="260.36" cy="523.8" r="4.97"></circle>
            <circle id="Oval" fill="#3F3D56" cx="260.36" cy="517.59" r="4.97"></circle>
            <circle id="Oval" fill="#3F3D56" cx="260.36" cy="511.38" r="4.97"></circle>
            <circle id="Oval" fill="#3F3D56" cx="260.36" cy="505.17" r="4.97"></circle>
            <circle id="Oval" fill="#3F3D56" cx="260.36" cy="498.96" r="4.97"></circle>
            <circle id="Oval" fill="#3F3D56" cx="260.36" cy="492.74" r="4.97"></circle>
            <circle id="Oval" fill="#3F3D56" cx="267.82" cy="495.23" r="4.97"></circle>
            <circle id="Oval" fill="#3F3D56" cx="272.79" cy="492.74" r="4.97"></circle>
            <circle id="Oval" fill="#3F3D56" cx="277.76" cy="490.26" r="4.97"></circle>
            <circle id="Oval" fill="#3F3D56" cx="260.36" cy="486.53" r="4.97"></circle>
            <circle id="Oval" fill="#3F3D56" cx="260.36" cy="480.32" r="4.97"></circle>
            <circle id="Oval" fill="#3F3D56" cx="260.36" cy="474.11" r="4.97"></circle>
            <circle id="Oval" fill="#3F3D56" cx="260.36" cy="467.9" r="4.97"></circle>
            <path d="M281,451.87 C279.76,452.05 278.52,452.18 277.28,452.26 C278.432798,451.254142 279.502908,450.157279 280.48,448.98 C279.791412,446.891581 278.779076,444.924275 277.48,443.15 C276.248102,443.841991 274.886097,444.271022 273.48,444.41 C272.25,444.59 271.01,444.72 269.77,444.81 C271.4,443.48 272.92,441.48 274.52,439.81 C267.131813,433.113658 256.064551,432.503385 247.984895,438.346797 C239.905239,444.190208 237.0191,454.891933 241.065025,464.005482 C245.110951,473.119031 254.984321,478.15622 264.73763,476.082755 C274.490939,474.009289 281.461335,465.391267 281.45,455.42 C281.450357,454.202941 281.343275,452.988226 281.13,451.79 L281,451.87 Z" id="Path" fill="#912329"></path>
            <path d="M297.57,476.56 C296.302621,477.339736 294.871939,477.815489 293.39,477.95 C292.16,478.13 290.92,478.27 289.68,478.35 C290.997933,477.167855 292.227864,475.891133 293.36,474.53 C287.150574,472.911043 280.728586,476.280877 278.532595,482.310439 C276.336605,488.340001 279.087276,495.050553 284.883482,497.804095 C290.679688,500.557637 297.619271,498.450531 300.905935,492.939104 C304.1926,487.427677 302.747753,480.320629 297.57,476.53 L297.57,476.56 Z" id="Path" fill="#912329"></path>
            <circle id="Oval" fill="#3F3D56" cx="252.91" cy="495.23" r="4.97"></circle>
            <circle id="Oval" fill="#3F3D56" cx="247.94" cy="492.74" r="4.97"></circle>
            <circle id="Oval" fill="#3F3D56" cx="242.97" cy="490.26" r="4.97"></circle>
            <path d="M223.16,476.56 C224.427379,477.339736 225.858061,477.815489 227.34,477.95 C228.57,478.13 229.81,478.27 231.05,478.35 C229.729581,477.170434 228.499466,475.893521 227.37,474.53 C233.579426,472.911043 240.001414,476.280877 242.197405,482.310439 C244.393395,488.340001 241.642724,495.050553 235.846518,497.804095 C230.050312,500.557637 223.110729,498.450531 219.824065,492.939104 C216.5374,487.427677 217.982247,480.320629 223.16,476.53 L223.16,476.56 Z" id="Path" fill="#912329"></path>
            <path d="M256.79,525 L268.9,525 C282.707119,525 293.9,536.192881 293.9,550 L293.9,582.87 C293.9,585.211687 292.001687,587.11 289.66,587.11 L236,587.11 C234.875482,587.11 233.797021,586.663287 233.001867,585.868133 C232.206713,585.072979 231.76,583.994518 231.76,582.87 L231.76,550 C231.759995,543.364387 234.398034,537.000988 239.092934,532.311715 C243.787834,527.622443 250.154391,524.992037 256.79,525 Z" id="Path" fill="#3F3D56"></path>
            <g id="Group" opacity="0.1" transform="translate(239.000000, 434.000000)" fill="#000000">
                <path d="M42.34,19.23 C41.8368418,19.7675115 41.3025912,20.2750496 40.74,20.75 C41.31,20.75 41.87,20.66 42.44,20.6 C42.42,20.14 42.39,19.68 42.34,19.23 Z" id="Path"></path>
                <path d="M33.28,13.29 C34.53,13.21 35.76,13.08 37,12.9 C38.1124956,12.7590282 39.1997398,12.4628131 40.23,12.02 C39.7241996,11.0202708 39.1424949,10.0607924 38.49,9.15 C37.8680045,9.5286737 37.1943051,9.81499595 36.49,10 C35.5093956,11.1804672 34.4359754,12.2806394 33.28,13.29 Z" id="Path"></path>
                <path d="M2.73,23.96 C2.71483524,16.236935 6.92421654,9.12387751 13.7014032,5.42040565 C20.4785899,1.7169338 28.7384333,2.01603955 35.23,6.2 L35.55,5.86 C29.8908336,0.824733142 21.9667978,-0.790591612 14.7882173,1.62768429 C7.60963677,4.04596019 2.2782053,10.126705 0.819322702,17.5598563 C-0.639559896,24.9930075 1.99800045,32.6378028 7.73,37.59 C4.49589584,33.7855939 2.72322179,28.9532844 2.73,23.96 Z" id="Path"></path>
            </g>
            <g id="Group" opacity="0.1" transform="translate(277.000000, 474.000000)" fill="#000000">
                <path d="M12.68,6.83 C13.92,6.75 15.16,6.62 16.39,6.44 C17.8726878,6.30209091 19.3033456,5.82292323 20.57,5.04 C23.409527,7.13125029 25.2271141,10.3302036 25.57,13.84 C25.618504,13.4050427 25.6418761,12.9676494 25.64,12.53 C25.6591137,8.59104607 23.8026313,4.87808144 20.64,2.53 C19.3726214,3.30973598 17.9419392,3.78548916 16.46,3.92 L15.46,4.05 C14.6066379,5.04718111 13.6771811,5.97663787 12.68,6.83 Z" id="Path"></path>
                <path d="M13.18,2.59 C13.5947799,2.59473354 14.0088838,2.62478947 14.42,2.68 C15.07,1.99 15.71,1.25 16.36,0.53 C12.6337899,-0.465321652 8.65660376,0.329877403 5.5995704,2.68144152 C2.54253705,5.03300564 0.753772736,8.6731531 0.76,12.53 C0.76,12.95 0.76,13.36 0.82,13.77 C1.45697033,7.42189901 6.80002223,2.58894429 13.18,2.59 Z" id="Path"></path>
            </g>
            <g id="Group" opacity="0.1" transform="translate(218.000000, 474.000000)" fill="#000000">
                <path d="M13.05,6.83 C11.81,6.75 10.57,6.62 9.34,6.44 C7.85731217,6.30209091 6.42665438,5.82292323 5.16,5.04 C2.32047303,7.13125029 0.502885894,10.3302036 0.16,13.84 C0.111496009,13.4050427 0.0881238507,12.9676494 0.09,12.53 C0.070886343,8.59104607 1.92736866,4.87808144 5.09,2.53 C6.35737864,3.30973598 7.78806085,3.78548916 9.27,3.92 L10.27,4.05 C11.1179719,5.0521547 12.0478453,5.98202807 13.05,6.83 Z" id="Path"></path>
                <path d="M12.55,2.59 C12.131914,2.59510905 11.7145055,2.62516246 11.3,2.68 C10.66,1.99 10.02,1.25 9.37,0.53 C13.0962101,-0.465321652 17.0733962,0.329877403 20.1304296,2.68144152 C23.187463,5.03300564 24.9762273,8.6731531 24.97,12.53 C24.97,12.95 24.97,13.36 24.91,13.77 C24.2730297,7.42189901 18.9299778,2.58894429 12.55,2.59 Z" id="Path"></path>
            </g>
            <path d="M196.85,599.13 L99.15,599.13 C96.8580183,599.13 95,597.271982 95,594.98 L95,548.74 C94.9996158,547.316525 95.7288277,545.992179 96.9319264,545.231366 C98.1350251,544.470554 99.6441112,544.379449 100.93,544.99 C129,558.31 159.24,562.88 194.93,545.2 C196.216092,544.565713 197.738192,544.63853 198.95786,545.392692 C200.177529,546.146854 200.922787,547.47602 200.93,548.91 L200.93,594.91 C200.948723,596.010694 200.529348,597.073728 199.764166,597.865166 C198.998985,598.656604 197.950699,599.111591 196.85,599.13 Z" id="Path" fill="#912329"></path>
            <path d="M196.85,599.13 L99.15,599.13 C96.8580183,599.13 95,597.271982 95,594.98 L95,548.74 C94.9996158,547.316525 95.7288277,545.992179 96.9319264,545.231366 C98.1350251,544.470554 99.6441112,544.379449 100.93,544.99 C129,558.31 159.24,562.88 194.93,545.2 C196.216092,544.565713 197.738192,544.63853 198.95786,545.392692 C200.177529,546.146854 200.922787,547.47602 200.93,548.91 L200.93,594.91 C200.948723,596.010694 200.529348,597.073728 199.764166,597.865166 C198.998985,598.656604 197.950699,599.111591 196.85,599.13 Z" id="Path" fill="#000000" opacity="0.1"></path>
            <ellipse id="Oval" fill="#3F3D56" cx="147.32" cy="556.41" rx="5.78" ry="7.57"></ellipse>
            <ellipse id="Oval" fill="#3F3D56" cx="147.32" cy="547.16" rx="5.78" ry="7.57"></ellipse>
            <ellipse id="Oval" fill="#3F3D56" cx="147.32" cy="537.9" rx="5.78" ry="7.57"></ellipse>
            <ellipse id="Oval" fill="#3F3D56" cx="147.32" cy="528.65" rx="5.78" ry="7.57"></ellipse>
            <ellipse id="Oval" fill="#3F3D56" cx="147.32" cy="519.39" rx="5.78" ry="7.57"></ellipse>
            <ellipse id="Oval" fill="#3F3D56" cx="147.32" cy="510.13" rx="5.78" ry="7.57"></ellipse>
            <ellipse id="Oval" fill="#3F3D56" cx="147.32" cy="500.88" rx="5.78" ry="7.57"></ellipse>
            <path d="M169,437.54 C169.784765,436.531158 170.502953,435.472247 171.15,434.37 L155.95,431.87 L172.39,431.99 C175.595879,425.044214 175.787694,417.082103 172.92,409.99 L150.87,421.43 L171.21,406.43 C166.018835,397.452484 156.24934,392.12497 145.890963,392.622989 C135.532587,393.121008 126.319254,399.361194 122.013299,408.79532 C117.707344,418.229446 119.029556,429.278301 125.44,437.43 C124.204288,438.992094 123.144553,440.685657 122.28,442.48 L142,452.84 L121,445.74 C118.009808,454.605902 119.690512,464.381808 125.47,471.74 C116.534837,483.099894 117.83126,499.41941 128.447898,509.226108 C139.064536,519.032807 155.435464,519.032807 166.052102,509.226108 C176.66874,499.41941 177.965163,483.099894 169.03,471.74 C176.935479,461.688139 176.935479,447.531861 169.03,437.48 L169,437.54 Z" id="Path" fill="#912329"></path>
            <path d="M119.49,454.67 C119.480895,460.884919 121.5704,466.920873 125.42,471.8 C116.484837,483.159894 117.78126,499.47941 128.397898,509.286108 C139.014536,519.092807 155.385464,519.092807 166.002102,509.286108 C176.61874,499.47941 177.915163,483.159894 168.98,471.8 C172.69,467.09 119.49,451.56 119.49,454.67 Z" id="Path" fill="#000000" opacity="0.1"></path>
            <path d="M196.85,601.58 L99.15,601.58 C96.8580183,601.58 95,599.721982 95,597.43 L95,548.74 C94.9996158,547.316525 95.7288277,545.992179 96.9319264,545.231366 C98.1350251,544.470554 99.6441112,544.379449 100.93,544.99 C129,558.31 151.26,573.84 194.93,545.2 C197.52,543.5 200.93,545.82 200.93,548.91 L200.93,597.41 C200.941276,599.6827 199.122405,601.541693 196.85,601.58 Z" id="Path" fill="#912329"></path>
            <polygon id="Path" fill="#9C9CA1" points="921.83 587.81 777.69 606.88 770.48 607.83 700.01 570.19 700.01 561.38 920.23 537.36"></polygon>
            <polygon id="Path" fill="#939498" points="740.85 574.19 897 555.78 895.4 584.61 773.77 593.53"></polygon>
            <path d="M777.69,597.41 L777.69,606.87 L770.48,607.87 L700,570.19 L700,561.38 L767.27,597.38 C767.27,597.38 776.09,598.21 777.69,597.41 Z" id="Path" fill="#000000" opacity="0.4"></path>
            <path d="M805.36,447.26 L773,597.31 C772.337971,600.358617 773.201833,603.538654 775.315362,605.833287 C777.428892,608.12792 780.527352,609.249724 783.62,608.84 L988.35,581.74 C991.988896,581.260219 995.033789,578.743523 996.19,575.26 L1040.36,442.06 C1041.35075,439.059778 1040.80179,435.764151 1038.89201,433.247077 C1036.98223,430.730003 1033.95619,429.313811 1030.8,429.46 L814.28,439.74 C809.94982,439.945164 806.2944,443.026863 805.36,447.26 Z" id="Path" fill="#3F3D56"></path>
            <ellipse id="Oval" fill="#FFFFFF" transform="translate(912.295928, 502.031900) rotate(-84.000000) translate(-912.295928, -502.031900) " cx="912.295928" cy="502.0319" rx="8.7" ry="5.59"></ellipse>
        </g>
    </g>
</svg>