<?xml version="1.0" encoding="UTF-8"?>
<svg width="60px" height="60px" viewBox="0 0 60 60" version="1.1" xmlns="http://www.w3.org/2000/svg" xmlns:xlink="http://www.w3.org/1999/xlink">
    <!-- Generator: Sketch 52.6 (67491) - http://www.bohemiancoding.com/sketch -->
    <title>reliability</title>
    <desc>Created with Sketch.</desc>
    <g id="reliability" stroke="none" stroke-width="1" fill="none" fill-rule="evenodd">
        <path d="M12,17.5 C18.8571429,17.5 24.8571429,15 30,10 C34.7142857,15 40.7142857,17.5 48,17.5 C48,31.8120033 42,42.6453366 30,50 C18,42.6453366 12,31.8120033 12,17.5 Z M15,19.375 C15,31.5402028 20,40.7485361 30,47 C40,40.7485361 45,31.5402028 45,19.375 C38.9285714,19.375 33.9285714,17.25 30,13 C25.7142857,17.25 20.7142857,19.375 15,19.375 Z M25.2392612,28.3590133 L28.3594681,31.6444589 C28.739792,32.0449238 29.3727464,32.0612513 29.7732114,31.6809274 C29.8143499,31.6418579 29.852089,31.5993583 29.8860201,31.5538886 L35.6276623,23.8597405 C35.9829055,23.3836931 36.6554428,23.2829184 37.1346154,23.6339348 C37.612588,23.9840721 37.7162965,24.6553503 37.3662751,25.1334078 L29.9214689,35.3014859 C29.5952037,35.7470972 28.9694741,35.8438464 28.5238628,35.5175812 C28.4619557,35.4722544 28.405471,35.4199534 28.3555233,35.3617105 L23.6988356,29.9316394 C23.3032794,29.4703892 23.3254837,28.7834158 23.75,28.3486719 C24.1488879,27.9401738 24.8034036,27.9323832 25.2119017,28.3312712 C25.221195,28.3403458 25.2303165,28.3495949 25.2392612,28.3590133 Z" id="Combined-Shape" fill="#912329"></path>
    </g>
</svg>