<?xml version="1.0" encoding="UTF-8"?>
<svg width="60px" height="60px" viewBox="0 0 60 60" version="1.1" xmlns="http://www.w3.org/2000/svg" xmlns:xlink="http://www.w3.org/1999/xlink">
    <!-- Generator: Sketch 52.6 (67491) - http://www.bohemiancoding.com/sketch -->
    <title>specialization</title>
    <desc>Created with Sketch.</desc>
    <g id="specialization" stroke="none" stroke-width="1" fill="none" fill-rule="evenodd">
        <path d="M21.4216463,16.4916075 C23.6370348,15.08181 26.2226625,14.2020116 29,14.030742 L29,10 L31,10 L31,14.030742 C33.7773375,14.2020116 36.3629652,15.08181 38.5783537,16.4916075 L40.9466881,13.2318749 L42.564722,14.4074454 L40.1954496,17.6684691 C42.2557528,19.3738074 43.8815925,21.5855755 44.8822101,24.1130146 L48.7121133,22.8686036 L49.3301473,24.7707166 L45.4998486,26.0152561 C45.8263772,27.289141 46,28.6242946 46,30 C46,31.3757054 45.8263772,32.710859 45.4998486,33.9847439 L49.3301473,35.2292834 L48.7121133,37.1313964 L44.8822101,35.8869854 C43.8815925,38.4144245 42.2557528,40.6261926 40.1954496,42.3315309 L42.564722,45.5925546 L40.9466881,46.7681251 L38.5783537,43.5083925 C36.3629652,44.91819 33.7773375,45.7979884 31,45.969258 L31,50 L29,50 L29,45.969258 C26.2226625,45.7979884 23.6370348,44.91819 21.4216463,43.5083925 L19.0533119,46.7681251 L17.435278,45.5925546 L19.8045504,42.3315309 C17.7442472,40.6261926 16.1184075,38.4144245 15.1177899,35.8869854 L11.2878867,37.1313964 L10.6698527,35.2292834 L14.5001514,33.9847439 C14.1736228,32.710859 14,31.3757054 14,30 C14,28.6242946 14.1736228,27.289141 14.5001514,26.0152561 L10.6698527,24.7707166 L11.2878867,22.8686036 L15.1177899,24.1130146 C16.1184075,21.5855755 17.7442472,19.3738074 19.8045504,17.6684691 L17.435278,14.4074454 L19.0533119,13.2318749 L21.4216463,16.4916075 Z M22.4929036,19.3853411 L22.2419505,19.5676692 C20.1844542,21.1002327 18.5957647,23.2271069 17.7300577,25.6941158 L17.5441049,26.2664195 C17.1901489,27.4489735 17,28.7022809 17,30 C17,31.2977191 17.1901489,32.5510265 17.5441049,33.7335805 L17.7300577,34.3058842 C18.5957647,36.7728931 20.1844542,38.8997672 22.2419505,40.4323308 L22.4929036,40.6146589 C24.6133124,42.1170231 27.2035411,43 30,43 C32.796459,43 35.3866876,42.1170231 37.5070965,40.6146588 L37.7580495,40.4323308 C39.8155458,38.8997673 41.4042353,36.7728931 42.2699423,34.3058842 L42.4558951,33.7335805 C42.8098511,32.5510265 43,31.2977191 43,30 C43,28.7022809 42.8098511,27.4489735 42.4558951,26.2664195 L42.2699423,25.6941158 C41.4042353,23.2271069 39.8155458,21.1002328 37.7580495,19.5676692 L37.5070955,19.3853404 C35.3866876,17.8829769 32.7964589,17 30,17 C27.203541,17 24.6133124,17.8829769 22.4929035,19.3853412 Z M30,33.2343676 L25.6618928,36 L26.8123185,30.8146236 L23,27.3232893 L28.0279419,26.8741506 L30,22 L31.9720581,26.8741506 L37,27.3232893 L33.1876815,30.8146236 L34.3381072,36 L30,33.2343676 Z" id="Combined-Shape" fill="#912329"></path>
    </g>
</svg>