<?xml version="1.0" encoding="UTF-8"?>
<svg width="60px" height="60px" viewBox="0 0 60 60" version="1.1" xmlns="http://www.w3.org/2000/svg" xmlns:xlink="http://www.w3.org/1999/xlink">
    <!-- Generator: Sketch 52.6 (67491) - http://www.bohemiancoding.com/sketch -->
    <title>userfriendly</title>
    <desc>Created with Sketch.</desc>
    <g id="userfriendly" stroke="none" stroke-width="1" fill="none" fill-rule="evenodd">
        <path d="M37,28.5449102 L24,36 L24,21 L37,28.5449102 Z M47,40 L47,17 L13,17 L13,40 L47,40 Z M47.1570372,13 C49.2119548,13 51,14.6829065 51,16.8077885 L50.9104071,39.4731959 C50.9104071,41.509305 49.2119548,43.1922115 47.1570372,43.1922115 L37.5953797,43.1922115 L37.5953797,47 L22.4046203,47 L22.4046203,43.1922115 L12.8429628,43.1922115 C10.6984523,43.1922115 9,41.509305 9,39.4731959 L9,16.8077885 C9,14.6829065 10.6984523,13 12.8429628,13 L47.1551309,13 L47.1570372,13 Z" id="Shape" fill="#912329" fill-rule="nonzero"></path>
    </g>
</svg>