<?xml version="1.0" encoding="UTF-8"?>
<svg width="976px" height="946px" viewBox="0 0 976 946" version="1.1" xmlns="http://www.w3.org/2000/svg" xmlns:xlink="http://www.w3.org/1999/xlink">
    <!-- Generator: Sketch 53.2 (72643) - https://sketchapp.com -->
    <title>Artboard</title>
    <desc>Created with Sketch.</desc>
    <defs>
        <linearGradient x1="50.0009756%" y1="100%" x2="50.0009756%" y2="-2.00681439e-15%" id="linearGradient-1">
            <stop stop-color="#808080" stop-opacity="0.25" offset="0%"></stop>
            <stop stop-color="#808080" stop-opacity="0.12" offset="54%"></stop>
            <stop stop-color="#808080" stop-opacity="0.1" offset="100%"></stop>
        </linearGradient>
        <linearGradient x1="49.9959642%" y1="100%" x2="49.9959642%" y2="0%" id="linearGradient-2">
            <stop stop-color="#808080" stop-opacity="0.25" offset="0%"></stop>
            <stop stop-color="#808080" stop-opacity="0.12" offset="54%"></stop>
            <stop stop-color="#808080" stop-opacity="0.1" offset="100%"></stop>
        </linearGradient>
        <linearGradient x1="70.5051339%" y1="95.6889288%" x2="29.4841046%" y2="4.35102511%" id="linearGradient-3">
            <stop stop-color="#808080" stop-opacity="0.25" offset="0%"></stop>
            <stop stop-color="#808080" stop-opacity="0.12" offset="54%"></stop>
            <stop stop-color="#808080" stop-opacity="0.1" offset="100%"></stop>
        </linearGradient>
        <linearGradient x1="50%" y1="99.990649%" x2="50%" y2="0%" id="linearGradient-4">
            <stop stop-color="#808080" stop-opacity="0.25" offset="0%"></stop>
            <stop stop-color="#808080" stop-opacity="0.12" offset="54%"></stop>
            <stop stop-color="#808080" stop-opacity="0.1" offset="100%"></stop>
        </linearGradient>
        <linearGradient x1="50%" y1="99.990649%" x2="50%" y2="-0.00935103797%" id="linearGradient-5">
            <stop stop-color="#808080" stop-opacity="0.25" offset="0%"></stop>
            <stop stop-color="#808080" stop-opacity="0.12" offset="54%"></stop>
            <stop stop-color="#808080" stop-opacity="0.1" offset="100%"></stop>
        </linearGradient>
        <linearGradient x1="71.3879732%" y1="96.8011501%" x2="40.8391411%" y2="14.9426208%" id="linearGradient-6">
            <stop stop-color="#808080" stop-opacity="0.25" offset="0%"></stop>
            <stop stop-color="#808080" stop-opacity="0.12" offset="54%"></stop>
            <stop stop-color="#808080" stop-opacity="0.1" offset="100%"></stop>
        </linearGradient>
        <linearGradient x1="50.002825%" y1="99.9979296%" x2="50.002825%" y2="0%" id="linearGradient-7">
            <stop stop-color="#808080" stop-opacity="0.25" offset="0%"></stop>
            <stop stop-color="#808080" stop-opacity="0.12" offset="54%"></stop>
            <stop stop-color="#808080" stop-opacity="0.1" offset="100%"></stop>
        </linearGradient>
    </defs>
    <g id="Artboard" stroke="none" stroke-width="1" fill="none" fill-rule="evenodd">
        <g id="undraw_agreement_aajr" transform="translate(39.000000, 56.000000)" fill-rule="nonzero">
            <g id="Group" opacity="0.5" transform="translate(75.000000, 0.000000)" fill="url(#linearGradient-1)">
                <rect id="Rectangle" transform="translate(380.211317, 428.494545) rotate(-24.520000) translate(-380.211317, -428.494545) " x="123.956317" y="74.4295452" width="512.51" height="708.13"></rect>
            </g>
            <rect id="Rectangle" fill="#FFFFFF" transform="translate(454.123064, 426.121943) rotate(-24.520000) translate(-454.123064, -426.121943) " x="204.388064" y="79.8819429" width="499.47" height="692.48"></rect>
            <rect id="Rectangle" fill="url(#linearGradient-2)" transform="translate(315.893980, 121.492678) rotate(-24.520000) translate(-315.893980, -121.492678) " x="192.00398" y="91.4826781" width="247.78" height="60.02"></rect>
            <path d="M279.09,40.82 C261.69,48.76 254.17,69.64 262.3,87.46 C270.43,105.28 291.13,113.29 308.53,105.35 C325.93,97.41 333.45,76.53 325.32,58.71 C317.19,40.89 296.49,32.88 279.09,40.82 Z M302.3,91.7 C294.810994,95.3332795 285.86765,94.0699037 279.678113,88.5043336 C273.488577,82.9387635 271.285534,74.1794184 274.105591,66.3478662 C276.925648,58.5163139 284.207173,53.1722589 292.523961,52.8302596 C300.84075,52.4882602 308.53646,57.2164279 311.99,64.79 C314.2751,69.6447505 314.537938,75.2084459 312.720684,80.2569977 C310.90343,85.3055495 307.154965,89.4253546 302.3,91.71 L302.3,91.7 Z" id="Shape" fill="url(#linearGradient-3)"></path>
            <rect id="Rectangle" fill="#D0021B" transform="translate(315.357116, 120.332299) rotate(-24.520000) translate(-315.357116, -120.332299) " x="194.077116" y="91.6422987" width="242.56" height="57.38"></rect>
            <path d="M280.17,43.2 C267.690264,48.8904149 259.867419,61.5383679 260.349486,75.245747 C260.831554,88.9531262 269.523592,101.020276 282.372248,105.819929 C295.220904,110.619583 309.695646,107.206454 319.046478,97.1721834 C328.39731,87.1379132 330.782593,72.4587426 325.09,59.98 C317.318148,42.9433095 297.208047,35.4311213 280.17,43.2 L280.17,43.2 Z M302.36,91.85 C292.531689,96.3306714 280.931908,91.996572 276.449688,82.1689671 C271.967468,72.3413622 276.299741,60.740898 286.126639,56.2571304 C295.953538,51.7733629 307.554685,56.1038077 312.04,65.93 C316.520594,75.7579492 312.187031,87.3573931 302.36,91.84 L302.36,91.85 Z" id="Shape" fill="#D0021B"></path>
            <rect id="Rectangle" fill="url(#linearGradient-4)" transform="translate(221.961371, 333.504835) rotate(-24.520000) translate(-221.961371, -333.504835) " x="168.491371" y="280.034835" width="106.94" height="106.94"></rect>
            <rect id="Rectangle" fill="url(#linearGradient-5)" transform="translate(310.241809, 526.163818) rotate(-24.520000) translate(-310.241809, -526.163818) " x="256.771809" y="472.693818" width="106.94" height="106.94"></rect>
            <rect id="Rectangle" fill="#69F0AE" transform="translate(221.954746, 333.502361) rotate(-24.520000) translate(-221.954746, -333.502361) " x="172.399746" y="283.947361" width="99.11" height="99.11"></rect>
            <rect id="Rectangle" fill="#D0021B" transform="translate(309.091526, 524.521456) rotate(-24.520000) translate(-309.091526, -524.521456) " x="259.536526" y="474.966456" width="99.11" height="99.11"></rect>
            <rect id="Rectangle" fill="#E0E0E0" transform="translate(382.263135, 244.751211) rotate(-24.520000) translate(-382.263135, -244.751211) " x="314.338135" y="240.011211" width="135.85" height="9.48"></rect>
            <rect id="Rectangle" fill="#E0E0E0" transform="translate(428.412707, 239.331405) rotate(-24.520000) translate(-428.412707, -239.331405) " x="316.257707" y="234.591405" width="224.31" height="9.48"></rect>
            <rect id="Rectangle" fill="#E0E0E0" transform="translate(427.116370, 255.544894) rotate(-24.520000) translate(-427.116370, -255.544894) " x="322.86137" y="250.804894" width="208.51" height="9.48"></rect>
            <rect id="Rectangle" fill="#E0E0E0" transform="translate(469.404065, 435.779404) rotate(-24.520000) translate(-469.404065, -435.779404) " x="401.479065" y="431.039404" width="135.85" height="9.48"></rect>
            <rect id="Rectangle" fill="#E0E0E0" transform="translate(515.549487, 430.350500) rotate(-24.520000) translate(-515.549487, -430.350500) " x="403.394487" y="425.6105" width="224.31" height="9.48"></rect>
            <rect id="Rectangle" fill="#E0E0E0" transform="translate(514.257300, 446.573087) rotate(-24.520000) translate(-514.257300, -446.573087) " x="410.0023" y="441.833087" width="208.51" height="9.48"></rect>
            <polygon id="Path" fill="url(#linearGradient-6)" points="199.04 337.46 222.26 345 229.9 300.31 241.2 303.4 228.49 358.65 193.47 343.3"></polygon>
            <polygon id="Path" fill="#FFFFFF" points="202 336.87 222.19 343.42 228.83 304.56 238.65 307.25 227.6 355.29 197.15 341.95"></polygon>
            <polygon id="Path" fill="#FFFFFF" points="289.68 529.08 309.87 535.63 316.51 496.77 326.33 499.46 315.28 547.5 284.83 534.16"></polygon>
            <rect id="Rectangle" fill="#E0E0E0" transform="translate(555.066013, 647.398309) rotate(-24.520000) translate(-555.066013, -647.398309) " x="396.616013" y="594.583309" width="316.9" height="105.63"></rect>
            <path d="M635.51,610.18 C624.43,607.02 613.09,607.62 609.56,620.29 C608.37,624.56 608.23,631.19 603.65,633.39 C596.91,636.63 588.78,630.15 582.93,627.51 C572.03,622.59 560.84,625.94 554.53,636.28 C551.33,641.52 549.96,647.55 548.87,653.52 C548.4,656.11 548.34,659.31 547.25,661.75 C545.16,666.42 538.62,666 534.33,665.82 C533.39,665.82 532.43,665.71 531.47,665.61 C534.861546,660.937511 536.555065,655.246582 536.27,649.48 C535.99,640.01 529.84,629.65 519.09,630.81 C509.46,631.81 502.68,641.11 503.76,650.52 C504.68,658.52 509.89,664.72 516.57,668.52 C513.29,669.97 509.79,671.1 506.69,672.6 C505.242237,673.300942 503.836524,674.085604 502.48,674.95 C493.11,670.43 480.8,669.58 472.37,674.19 C468.29,676.42 471.27,683.05 475.37,680.8 C481.79,677.29 488.87,678.17 495.58,680.4 L496.14,680.6 C495.476995,681.449322 494.891326,682.356273 494.39,683.31 C490.6,690.67 494.39,702.31 503.61,703.11 C516.61,704.22 517.22,687.04 510.16,680.2 C509.86,679.91 509.56,679.63 509.24,679.36 C512.16,677.95 515.32,676.89 518.11,675.7 C520.540766,674.670561 522.854016,673.383188 525.01,671.86 L525.51,671.99 C535.44,674.24 550.94,674.94 554.51,662.91 C557.57,652.47 557.86,630.3 574.36,632.35 C581.09,633.18 586.61,638.35 593.01,640.22 C598.74,641.93 605.37,642 610.07,637.78 C613.95,634.3 614.82,629.16 616.01,624.36 C616.62,621.88 617.22,618.92 619.24,617.15 C622.89,613.96 628.92,615.84 632.99,617 C637.44,618.26 640.02,611.46 635.51,610.18 Z M506.51,694.77 C504.32,696.94 502,695.22 500.83,692.95 C499.41,690.19 500.02,687.47 501.83,685.04 C502.1259,684.643165 502.443029,684.26261 502.78,683.9 C507.11,686.7 510.65,690.71 506.55,694.77 L506.51,694.77 Z M514.19,640.77 C518.69,636.59 524.96,637.51 527.64,643.25 C530.32,648.99 529.14,657.09 525.38,662.15 C524.881509,662.813849 524.329678,663.435914 523.73,664.01 C521.109457,663.133967 518.686809,661.751052 516.6,659.94 C511.28,655.14 508.27,646.27 514.23,640.74 L514.19,640.77 Z" id="Shape" fill="#D0021B"></path>
            <path d="M695.48,221.71 L614.76,253.18 C599.58,252.05 567.64,247.93 535.94,232.98 C500.65,216.34 460.22,216.38 425.94,233.81 C346.94,235.7 303.46,225.58 280.26,216 L286.38,203.44 L204.56,171.54 L0,79.86 L0,455.62 L71.59,487.52 L109.99,395.4 L194.32,434.4 L210.51,393.26 L265.88,434.35 L269.65,437.52 L264.46,442.91 C254.579154,453.345493 254.579154,469.684507 264.46,480.12 L264.46,480.12 C269.113968,485.039804 275.587712,487.827203 282.36,487.827203 C289.132288,487.827203 295.606032,485.039804 300.26,480.12 L297.42,483.12 C287.539154,493.555493 287.539154,509.894507 297.42,520.33 L297.42,520.33 C302.073968,525.249804 308.547712,528.037203 315.32,528.037203 C322.092288,528.037203 328.566032,525.249804 333.22,520.33 L349.62,503.28 L349.62,503.28 L338.36,514.98 C328.479154,525.415493 328.479154,541.754507 338.36,552.19 L338.36,552.19 C343.013968,557.109804 349.487712,559.897203 356.26,559.897203 C363.032288,559.897203 369.506032,557.109804 374.16,552.19 L390.35,535.36 L390.35,535.36 L383.54,542.44 C376.631953,549.730096 376.631953,561.149904 383.54,568.44 C386.790464,571.874738 391.311053,573.820626 396.04,573.820626 C400.768947,573.820626 405.289536,571.874738 408.54,568.44 L419.34,557.22 C437.89,570.77 452.9,580.66 460.25,583.22 C490.88,593.84 490.88,572.57 490.88,572.57 C531.79,593.83 552.25,551.31 552.25,551.31 C603.39,572.57 603.39,519.41 603.39,519.41 C616.17,528.27 625.39,524.21 631.83,516.41 C640.6,505.83 641.67,490.9 635.65,478.92 L684.53,433.75 L705.67,476.97 L790,437.97 L828.4,523.1 L884.95,497.85 L884.95,126.02 L695.48,221.71 Z" id="Path" fill="url(#linearGradient-7)"></path>
            <polygon id="Path" fill="#E49271" points="681.9 418.48 592.88 497.6 523.65 369.02 681.9 329.46"></polygon>
            <path d="M256.6,210.77 C256.6,210.77 285.17,250.33 454.41,240.44 L553.32,388.8 L619.6,463.37 C630.01,475.09 630.6,492.86 620.38,504.74 C614.17,511.95 605.24,515.74 592.88,507.49 C592.88,507.49 592.88,556.94 543.43,537.16 C543.43,537.16 523.65,576.72 484.09,556.94 C484.09,556.94 484.09,576.72 454.42,566.83 C424.75,556.94 266.49,428.37 266.49,428.37 L197.26,378.92 L256.6,210.77 Z" id="Path" fill="#FDA57D"></path>
            <path d="M612.66,260.23 C612.66,260.23 569.92,260.23 527.66,241.04 C489.23,223.61 444.48,225.83 409.02,248.71 C380.12,267.36 355.08,298.24 355.55,349.24 C355.55,349.24 394.01,388.8 434.67,309.68 L464.34,309.68 C464.34,309.68 492.91,408.59 573.14,398.68 C653.37,388.77 672.05,378.9 672.05,378.9 L612.66,260.23 Z" id="Path" fill="#E49271"></path>
            <rect id="Rectangle" fill="#E49271" transform="translate(324.195212, 481.119918) rotate(45.000000) translate(-324.195212, -481.119918) " x="299.715212" y="442.654918" width="48.96" height="76.93" rx="22.21"></rect>
            <rect id="Rectangle" fill="#E49271" transform="translate(292.317228, 443.756915) rotate(45.000000) translate(-292.317228, -443.756915) " x="267.837228" y="405.291915" width="48.96" height="76.93" rx="22.21"></rect>
            <rect id="Rectangle" fill="#E49271" transform="translate(366.225141, 508.309385) rotate(45.000000) translate(-366.225141, -508.309385) " x="341.745141" y="466.349385" width="48.96" height="83.92" rx="22.21"></rect>
            <rect id="Rectangle" fill="#E49271" transform="translate(400.020610, 533.317263) rotate(45.000000) translate(-400.020610, -533.317263) " x="382.92561" y="505.342263" width="34.19" height="55.95" rx="15.51"></rect>
            <polygon id="Path" fill="#FFFFFF" points="780.8 438.26 691.79 477.82 602.77 260.23 681.9 230.56"></polygon>
            <polygon id="Path" fill="#FFFFFF" points="108.25 388.81 197.26 428.37 286.28 210.78 207.15 181.1"></polygon>
            <polygon id="Path" fill="#EB8C30" points="9.34 92.09 207.15 181.1 78.58 477.82 9.34 448.15"></polygon>
            <polygon id="Path" fill="#D0021B" points="879.71 141.54 681.9 230.56 810.48 527.27 879.71 497.6"></polygon>
        </g>
    </g>
</svg>